<svg width="60" height="53" viewBox="0 0 60 53" fill="none" xmlns="http://www.w3.org/2000/svg">
<path d="M47.3114 51.9845L59.2621 51.995L57.6244 49.6427V25.6784C57.6244 18.7684 54.7361 12.5411 50.1159 8.13046C49.284 7.18008 48.3369 6.37147 47.2643 5.8569C47.2276 5.80964 47.1962 5.76764 47.1544 5.71513L46.7149 3.3208C46.6521 2.96375 46.5213 2.62245 46.3434 2.30741L45.1556 0.254373C45.0196 0.0180899 44.7265 -0.0659218 44.4859 0.054845L40.8232 1.94511C40.5616 2.01862 40.2842 2.00812 40.0279 1.91885L36.7733 0.774195C36.1402 0.548413 35.4495 0.553664 34.8164 0.784696L31.8287 1.8821C31.6612 1.94511 31.4833 1.96086 31.3054 1.92936L25.7277 0.921215L23.6714 5.8674C23.326 6.69702 23.4098 7.64215 23.8807 8.39825C23.9801 8.55577 24.1214 8.68704 24.2679 8.80256L33.4821 15.849V15.8858L46.2701 25.2846L30.0392 17.398C29.2439 17.0147 28.3753 16.8099 27.4963 16.8099H19.0826C18.5122 16.8099 17.9524 16.8414 17.3977 16.8939C17.3977 16.8939 12.631 17.0357 5.37891 21.5776C4.458 22.1552 3.45338 22.5857 2.39121 22.8273C0.533705 23.2526 0 23.3628 0 23.3628L0.177902 23.8406C0.737768 25.3476 1.86797 26.571 3.32257 27.2536C2.4383 29.3277 1.95168 31.6065 1.95168 34.0061V51.995L14.0595 52.0056L12.7775 49.6532C16.3408 46.025 19.8151 44.8961 22.0703 44.5863C23.6504 44.3657 24.6394 44.5443 24.6394 44.5443V51.995L36.7471 52.0056L35.4652 49.6532C37.0349 48.057 38.5837 46.9438 40.0226 46.172C44.1353 43.9667 47.327 44.5443 47.327 44.5443V51.995L47.3114 51.9845ZM36.7471 4.98528C36.7471 5.5156 36.2919 5.94091 35.753 5.88315C35.2821 5.8359 34.9472 5.40534 34.9472 4.93277V3.58333C34.9472 3.11077 35.2873 2.68021 35.753 2.63295C36.2919 2.58045 36.7471 3.0005 36.7471 3.53083V4.98003V4.98528Z" fill="#BC6626"/>
</svg>
