<svg width="31" height="32" viewBox="0 0 31 32" fill="none" xmlns="http://www.w3.org/2000/svg">
<path d="M27.352 28.6667C27.352 30.4156 25.9931 31.8333 24.3168 31.8333C22.6405 31.8333 21.2816 30.4156 21.2816 28.6667C21.2816 26.9177 22.6405 25.5 24.3168 25.5C25.9931 25.5 27.352 26.9177 27.352 28.6667ZM9.14083 25.5C7.46453 25.5 6.10562 26.9177 6.10562 28.6667C6.10562 30.4156 7.46453 31.8333 9.14083 31.8333C10.8171 31.8333 12.176 30.4156 12.176 28.6667C12.176 26.9177 10.8171 25.5 9.14083 25.5ZM29.6284 3.33332H5.68069L4.83084 1.74998C4.2865 0.766309 3.27889 0.162142 2.19021 0.166651H0.794018C0.374944 0.166651 0.0352173 0.521092 0.0352173 0.958318V2.54165C0.0352173 2.97888 0.374944 3.33332 0.794018 3.33332H2.19021L8.68554 15.1925C8.80386 15.3912 8.94115 15.5768 9.0953 15.7467L6.27256 21.605C6.09709 21.9573 6.09709 22.3768 6.27256 22.7292L6.60643 23.3308C6.8195 23.7029 7.2079 23.9267 7.62322 23.9167H26.5932C27.0123 23.9167 27.352 23.5622 27.352 23.125V21.5417C27.352 21.1044 27.0123 20.75 26.5932 20.75H10.0817L11.5993 17.4408C11.9166 17.5281 12.2426 17.576 12.5706 17.5833H22.0253C23.6122 17.55 25.0627 16.6396 25.8344 15.1925L29.4008 8.65332C30.0362 7.51878 30.3763 6.23063 30.3872 4.91665V4.12498C30.3872 3.68776 30.0475 3.33332 29.6284 3.33332Z" fill="#333333"/>
</svg>
