<svg width="166" height="169" viewBox="0 0 166 169" fill="none" xmlns="http://www.w3.org/2000/svg">
<g clip-path="url(#clip0_249_24)">
<path d="M12.1443 65.2806L10.3837 65.4748C9.51027 65.5719 9.06664 65.6829 8.7062 65.5581C8.34575 65.4332 8.22098 65.1419 8.31802 64.8506C8.4012 64.6009 8.67847 64.4206 9.05278 64.2264C10.8827 63.297 12.5048 62.0624 13.087 60.3145C13.5445 58.969 13.087 57.9286 12.2552 57.6373C11.1184 57.2489 10.4668 58.4418 9.37164 60.1897C8.08235 62.2982 6.44647 64.4761 4.17287 63.6993C2.31518 63.075 1.49724 60.9249 2.30132 58.5806C2.73108 57.3044 3.46584 56.4582 3.59061 56.0836C3.72925 55.6814 3.28562 55.5288 3.43812 55.0571C3.57675 54.6271 4.03424 54.5439 4.56105 54.3913L6.07216 54.0306C6.61283 53.9196 7.16736 53.8225 7.45849 53.9196C7.77735 54.0306 7.90212 54.3219 7.81894 54.5577C7.7219 54.8213 7.40304 54.9878 7.08418 55.182C5.62853 56.0143 4.22833 57.2766 3.75697 58.6777C3.39653 59.7319 3.70152 60.5504 4.43628 60.8001C5.4483 61.1468 6.03057 60.1203 7.23668 58.2893C8.62302 56.042 10.148 53.9474 12.5879 54.7797C14.7784 55.5288 15.4022 57.9979 14.4872 60.7029C13.9604 62.2427 13.1841 63.075 13.0593 63.4496C12.8929 63.9628 13.4475 64.1986 13.2811 64.7258C13.1425 65.1558 12.6018 65.1974 12.1582 65.239L12.1443 65.2806Z" fill="black"/>
<path d="M21.71 42.3506C22.1814 42.6141 22.1537 43.1551 21.6269 44.8752C21.2941 46.0405 21.1555 46.4427 21.0307 46.6786C20.7951 47.0947 20.3376 46.9976 19.9771 46.7895L18.8265 46.1514C19.5473 47.4138 19.8246 49.0645 18.8542 50.7846C17.6065 53.0318 15.4161 53.4619 12.9345 52.0747L9.55186 50.1881C8.27643 49.4807 7.81894 51.2979 7.04259 50.8678C6.61283 50.632 6.62669 50.0633 6.91782 48.3987C7.16736 46.9421 7.2644 46.6508 7.37531 46.4705C7.65258 45.9711 8.1378 46.1653 8.5537 46.4011L13.7386 49.3003C15.4022 50.2297 16.6638 50.2575 17.4956 48.7455C18.1887 47.4831 17.9947 45.7075 15.9429 44.5562L13.4752 43.1829C12.1998 42.4754 11.6868 44.5007 10.8689 44.0429C10.4391 43.8071 10.4807 43.2384 10.8273 41.3657C11.0768 39.9924 11.2293 39.5901 11.3125 39.4236C11.5759 38.952 12.0611 39.1462 12.477 39.3681L19.0483 43.0303C20.3237 43.7377 21.0169 41.9622 21.7378 42.3644L21.71 42.3506Z" fill="black"/>
<path d="M30.6242 31.8358C31.0401 32.1825 31.1094 33.5281 30.1528 34.6795C29.5013 35.4563 28.4892 35.7892 27.3386 35.4008C27.5049 36.7048 27.1445 38.3971 25.9245 39.8536C24.3025 41.7957 22.1537 42.087 20.5455 40.7414C18.9374 39.3959 18.7987 36.9406 20.7812 34.5685C21.4605 33.7501 22.1675 33.1674 22.8607 32.7097L22.6112 32.571C20.6287 31.3364 19.4364 31.5444 18.5076 32.6681C17.8422 33.4588 17.6342 34.4853 17.6203 35.4979C17.5649 35.8586 17.5094 36.1083 17.3708 36.2747C17.2044 36.4689 16.8579 36.5522 16.5945 36.3302C16.3449 36.1221 16.2756 35.6921 16.2201 35.276C15.9845 33.972 16.4281 32.1548 17.6342 30.7121C19.5474 28.4094 21.6546 28.6869 23.7618 29.9908L27.1168 32.0854C28.5585 32.9732 29.0576 32.6958 30.0419 31.8912C30.2499 31.7248 30.444 31.7109 30.6242 31.8496V31.8358ZM26.077 34.735L24.0529 33.4449C23.4152 33.8055 22.8746 34.2772 22.3893 34.8459C21.2803 36.1638 21.2248 37.4122 22.2368 38.2584C23.2073 39.0768 24.455 38.9104 25.3145 37.8839C26.077 36.9822 26.2711 35.6782 26.077 34.735Z" fill="black"/>
<path d="M42.8517 16.6184C45.0698 19.7257 44.3489 23.263 41.701 25.1496C40.1899 26.2316 38.9699 26.398 37.9579 26.3148L39.3997 28.3262C40.4395 29.7827 41.4515 28.2846 42.0199 29.0891C42.1724 29.2972 42.1724 29.6718 41.8119 29.9353C41.3544 30.2682 40.6751 30.6567 39.774 31.3086C38.9699 31.8774 38.4986 32.3074 38.0688 32.6126C37.6806 32.89 37.3341 32.7652 37.1816 32.5432C36.6548 31.7941 38.1381 31.4473 37.0845 29.9769L31.5114 22.1671C30.6519 20.9603 29.7924 22.4723 29.2101 21.6677C28.9467 21.3071 29.1824 20.7799 30.0003 19.3928C30.7212 18.0888 30.8737 17.8946 31.0817 17.742C31.5392 17.4091 31.9273 17.8669 32.1353 18.172L32.8285 19.1569C32.773 17.5756 33.3553 15.9109 35.005 14.7318C37.4588 12.9701 40.7029 13.6221 42.8378 16.6184H42.8517ZM40.8415 18.9905C39.2195 16.7294 36.8627 15.9248 35.2268 17.09C33.8821 18.0472 33.4523 20.0031 34.7693 21.8481L35.5318 22.9162C36.8766 24.8028 38.9422 25.2605 40.5504 24.1092C42.006 23.0688 42.3942 21.1684 40.8276 18.9766L40.8415 18.9905Z" fill="black"/>
<path d="M40.8969 7.29656C40.4256 6.36715 40.8692 4.869 42.1308 4.23089C42.8794 3.84248 43.7667 4.00895 44.1548 4.75802C44.6262 5.67356 44.0994 7.17171 42.8517 7.80981C42.1031 8.19823 41.2713 8.03176 40.8969 7.29656ZM47.1355 20.7383C46.7196 19.9199 48.2584 19.795 47.4405 18.172L44.9866 13.3863C44.3073 12.0685 43.1983 13.4556 42.7408 12.5817C42.5467 12.2072 42.8517 11.7078 43.8498 10.4455C44.7787 9.25248 45.0005 9.05828 45.1807 8.96117C45.5966 8.73922 45.9155 9.00279 46.1927 9.52992L49.9497 16.8681C50.7815 18.4772 51.8074 17.2981 52.2233 18.1166C52.3342 18.3524 52.2926 18.713 51.8906 18.9211C51.4054 19.1708 50.7954 19.4066 49.8804 19.8644C48.9793 20.3222 48.4386 20.6828 47.9673 20.9325C47.5514 21.1545 47.2464 20.988 47.1216 20.7244L47.1355 20.7383Z" fill="black"/>
<path d="M64.9776 12.5262C65.1578 13.0395 64.534 14.2325 63.1338 14.7318C62.1772 15.0648 61.1513 14.8289 60.3473 13.9134C59.8204 15.1202 58.6421 16.3826 56.8675 17.0207C54.4969 17.853 52.5006 17.0207 51.7936 15.037C51.1004 13.0534 52.2233 10.8894 55.1346 9.86284C56.1328 9.51605 57.0339 9.36346 57.8657 9.32184L57.7271 9.07215C56.6457 7.00525 55.5228 6.57523 54.1503 7.06074C53.166 7.40753 52.4729 8.18435 51.9461 9.03053C51.7242 9.30797 51.544 9.50217 51.3361 9.57153C51.0865 9.65476 50.7538 9.55766 50.6429 9.22474C50.532 8.91956 50.6845 8.5034 50.8508 8.12887C51.3083 6.89428 52.6115 5.56259 54.3999 4.92448C57.2141 3.92571 58.8777 5.24353 60.0284 7.43528L61.8445 10.9448C62.6208 12.443 63.2031 12.4707 64.4647 12.2765C64.7281 12.2349 64.9083 12.3181 64.9915 12.5401L64.9776 12.5262ZM59.5986 12.7066L58.5173 10.5703C57.7825 10.5564 57.0755 10.6813 56.3685 10.931C54.7465 11.4997 54.0671 12.5401 54.4969 13.7886C54.9267 14.9954 56.0635 15.4809 57.3389 15.037C58.448 14.6486 59.2936 13.6221 59.5986 12.7204V12.7066Z" fill="black"/>
<path d="M71.3548 12.2349L70.4398 10.709C69.9823 9.94608 69.7189 9.59928 69.6773 9.22474C69.6357 8.8502 69.8575 8.61438 70.1625 8.58664C70.4259 8.5589 70.7032 8.7531 71.0359 9.00279C72.6302 10.2929 74.4324 11.25 76.2624 11.0697C77.6626 10.931 78.439 10.0987 78.3558 9.21087C78.2449 8.0179 76.8863 7.90692 74.8345 7.64336C72.3945 7.33818 69.7328 6.75556 69.4971 4.35574C69.303 2.41369 70.925 0.776823 73.3788 0.541003C74.7097 0.402285 75.791 0.735208 76.1931 0.693593C76.6228 0.651977 76.5674 0.180336 77.0665 0.138721C77.5101 0.0971057 77.7874 0.471644 78.134 0.887798L79.0905 2.12239C79.4232 2.56628 79.7282 3.03793 79.756 3.3431C79.7837 3.67603 79.5757 3.91185 79.3123 3.92572C79.0351 3.95346 78.7439 3.71764 78.439 3.50957C77.0942 2.52467 75.3613 1.77559 73.8779 1.92818C72.7827 2.03916 72.145 2.64951 72.2282 3.41246C72.3391 4.46672 73.5036 4.59157 75.6663 4.92449C78.2726 5.25741 80.8235 5.78454 81.073 8.35082C81.2948 10.6535 79.2985 12.2488 76.4704 12.5262C74.8483 12.6927 73.7809 12.3182 73.3788 12.3598C72.8382 12.4153 72.852 13.0256 72.3113 13.0811C71.8677 13.1227 71.6043 12.6511 71.3825 12.2765L71.3548 12.2349Z" fill="black"/>
<path d="M93.9798 9.87671C93.9798 10.0432 93.8828 10.2235 93.7025 10.4455C92.8014 11.6107 90.6249 12.7482 88.171 12.5817C84.7329 12.3459 82.1821 9.84897 82.4455 5.96487C82.695 2.15013 85.745 -0.194205 89.0306 0.0138721C92.136 0.221949 93.9798 2.66338 93.8273 4.9661C93.7857 5.54872 93.5916 5.68743 93.1896 5.77066L85.7311 7.49077C86.3272 9.23861 87.672 10.5703 89.5158 10.6951C90.7912 10.7784 91.9003 10.3067 92.7737 9.58541C93.0925 9.32184 93.2728 9.21087 93.4807 9.22474C93.8134 9.25248 94.0075 9.57153 93.9798 9.84897V9.87671ZM85.4122 5.07707C85.3845 5.42387 85.3845 5.75679 85.4122 6.08972L90.2921 4.89674C90.6942 4.79964 90.8467 4.67479 90.8744 4.24477C90.9437 3.12115 90.001 1.65074 88.5176 1.55364C86.8679 1.44267 85.5509 2.8021 85.3984 5.0632L85.4122 5.07707Z" fill="black"/>
<path d="M114.886 17.853C114.789 18.172 114.414 18.283 113.985 18.1443C113.375 17.964 112.917 17.742 111.905 17.4368C110.796 17.1039 110.394 17.0484 109.77 16.8542C109.299 16.7155 109.105 16.3826 109.202 16.0635C109.451 15.2451 110.741 16.1051 111.129 14.8012C111.198 14.5792 111.254 14.2186 111.323 13.9273L111.864 10.3622C112.016 9.29409 112.321 7.39366 110.699 6.90815C109.548 6.56135 108.204 7.11622 107.538 9.29409L106.415 12.9979C105.888 14.7318 107.51 14.607 107.233 15.4948C107.164 15.7445 106.873 15.9803 106.443 15.8416C105.916 15.689 105.292 15.4116 104.294 15.1202C103.324 14.8289 102.714 14.718 102.201 14.5515C101.743 14.4128 101.632 14.0799 101.716 13.8163C101.979 12.9424 103.185 13.9134 103.712 12.1794L104.904 8.25371C105.32 6.8804 105.403 5.29902 103.809 4.81351C102.631 4.45284 101.05 4.9661 100.357 7.24107L99.2617 10.8339C98.7349 12.5678 100.301 12.4291 100.038 13.3169C99.9688 13.5666 99.6776 13.8024 99.2479 13.6637C98.721 13.5111 98.1111 13.2476 97.1545 12.9562C96.1841 12.6649 95.5741 12.554 95.0334 12.3875C94.6036 12.2627 94.4789 11.9297 94.562 11.6523C94.8254 10.7784 96.0316 11.7494 96.5584 10.0154L98.1249 4.86899C98.5547 3.4402 96.7802 3.67602 97.0713 2.73274C97.1961 2.33046 97.7645 2.17787 99.331 1.96979C100.856 1.73397 101.119 1.77559 101.341 1.84494C101.813 1.98366 101.84 2.41369 101.674 2.95469L101.314 4.14766C102.367 3.19051 103.948 2.52466 105.667 3.05179C107.344 3.56505 108.01 4.82738 108.093 6.25617C109.119 5.21579 110.588 4.54994 112.349 5.07707C114.83 5.82615 115.08 8.19822 114.706 10.6535L114.012 15.0509C113.68 17.2149 115.205 16.9375 114.927 17.8669L114.886 17.853Z" fill="black"/>
<path d="M133.865 24.3034C131.66 27.4245 128.098 27.91 125.436 26.0373C123.911 24.9692 123.356 23.8733 123.093 22.8885L121.665 24.9137C120.639 26.3841 122.386 26.8419 121.817 27.6465C121.665 27.8546 121.318 27.9933 120.958 27.7297C120.5 27.4107 119.904 26.8974 118.989 26.2593C118.185 25.6906 117.617 25.3854 117.201 25.0802C116.813 24.8028 116.813 24.4421 116.965 24.2201C117.492 23.4711 118.31 24.7611 119.35 23.2769L124.867 15.4254C125.727 14.2047 124.008 13.8995 124.576 13.095C124.84 12.7343 125.408 12.7759 126.975 13.095C128.444 13.3447 128.666 13.4279 128.888 13.5805C129.345 13.8995 129.054 14.4128 128.832 14.718L128.139 15.7029C129.609 15.1202 131.369 15.1203 133.033 16.2994C135.501 18.0333 135.958 21.3071 133.851 24.3172L133.865 24.3034ZM130.967 23.1798C132.575 20.9048 132.548 18.4079 130.898 17.2565C129.553 16.2994 127.557 16.549 126.268 18.394L125.505 19.476C124.174 21.3626 124.424 23.4711 126.032 24.6086C127.501 25.6351 129.415 25.3715 130.953 23.1798H130.967Z" fill="black"/>
<path d="M141.032 36.2747C140.921 36.3857 140.727 36.4689 140.45 36.5244C138.994 36.788 136.624 36.1776 134.904 34.4298C132.492 31.9745 132.27 28.3956 135.043 25.6767C137.774 22.9994 141.6 23.2769 143.916 25.6351C146.092 27.8545 145.843 30.9063 144.193 32.5293C143.777 32.9455 143.541 32.9039 143.181 32.6958L136.471 29.0059C135.75 30.6983 135.861 32.5987 137.15 33.9165C138.038 34.8321 139.188 35.2205 140.325 35.2621C140.741 35.2898 140.935 35.3176 141.088 35.4702C141.323 35.706 141.254 36.0666 141.046 36.2747H141.032ZM137.844 26.9806C137.594 27.2303 137.372 27.48 137.164 27.7436L141.587 30.1157C141.947 30.3237 142.155 30.3237 142.446 30.0185C143.25 29.2279 143.527 27.5078 142.488 26.4535C141.337 25.2744 139.452 25.3992 137.83 26.9806H137.844Z" fill="black"/>
<path d="M139.757 38.3971C140.491 37.8422 140.893 39.3404 142.335 38.2584L151.457 31.3641C152.622 30.4902 151.055 29.6301 151.846 29.0337C152.206 28.7701 152.747 29.0059 154.161 29.7411C155.492 30.4486 155.713 30.6289 155.852 30.8231C156.143 31.1977 155.907 31.5583 155.436 31.9051L144.027 40.5195C142.585 41.6154 143.93 42.4199 143.195 42.9748C142.987 43.1274 142.613 43.1413 142.349 42.7945C142.016 42.3644 141.684 41.7957 141.074 40.9773C140.464 40.1727 140.02 39.7011 139.715 39.2849C139.41 38.8826 139.535 38.5636 139.757 38.3971Z" fill="black"/>
<path d="M148.449 40.9634C151.665 39.1739 155.45 40.3669 157.363 43.821C159.249 47.2334 158.195 50.7291 155.048 52.4631C151.818 54.2526 148.047 53.0041 146.175 49.6194C144.276 46.1931 145.33 42.6974 148.449 40.9773V40.9634ZM152.802 50.2297C155.131 48.9397 156.906 46.1514 155.755 44.0707C154.785 42.3228 152.816 42.0593 150.723 43.2106C148.407 44.4868 146.633 47.2612 147.797 49.3697C148.768 51.1314 150.736 51.3811 152.802 50.2297Z" fill="black"/>
<path d="M150.944 57.0824L152.22 55.8478C152.858 55.2375 153.135 54.8907 153.495 54.7658C153.856 54.641 154.133 54.7936 154.23 55.0849C154.313 55.3346 154.188 55.6397 154.022 56.0282C153.135 57.8731 152.608 59.8429 153.19 61.5907C153.648 62.9363 154.632 63.4912 155.478 63.1999C156.615 62.8115 156.407 61.4659 156.212 59.4129C155.949 56.9576 155.921 54.2248 158.195 53.4619C160.039 52.8376 161.993 54.0445 162.798 56.375C163.227 57.6512 163.158 58.7609 163.297 59.1493C163.435 59.5516 163.879 59.399 164.045 59.8706C164.184 60.3007 163.879 60.6475 163.56 61.0775L162.576 62.2843C162.215 62.7005 161.841 63.1028 161.55 63.2137C161.245 63.3247 160.968 63.1583 160.871 62.9224C160.774 62.6589 160.94 62.3259 161.079 61.9792C161.73 60.4394 162.063 58.5806 161.591 57.1795C161.231 56.1253 160.496 55.6536 159.761 55.9033C158.763 56.2501 158.902 57.4153 159.068 59.5932C159.332 62.215 159.401 64.809 156.961 65.6413C154.771 66.3904 152.774 64.7951 151.859 62.104C151.333 60.5642 151.443 59.4267 151.319 59.0522C151.138 58.539 150.542 58.6915 150.376 58.1783C150.237 57.7483 150.639 57.3876 150.958 57.0824H150.944Z" fill="black"/>
<path d="M0.693172 99.2943L2.09337 98.1984C2.78654 97.6574 3.1054 97.3383 3.46585 97.2551C3.84016 97.1719 4.0897 97.3522 4.15901 97.6574C4.21447 97.9071 4.06197 98.2123 3.85402 98.5729C2.77268 100.321 2.05178 102.235 2.46768 104.025C2.78654 105.398 3.71539 106.064 4.57492 105.856C5.7533 105.592 5.68398 104.219 5.68398 102.166C5.68398 99.6966 5.91966 96.9777 8.26257 96.4367C10.1619 95.9928 11.9918 97.3938 12.5464 99.8075C12.8513 101.111 12.6711 102.221 12.7543 102.61C12.8513 103.026 13.3088 102.915 13.4197 103.4C13.5168 103.844 13.1841 104.149 12.8098 104.552L11.7007 105.648C11.2986 106.022 10.8827 106.397 10.5778 106.466C10.2589 106.535 9.99549 106.355 9.94004 106.105C9.88459 105.828 10.0787 105.523 10.245 105.19C11.0491 103.719 11.5759 101.902 11.2432 100.459C10.9937 99.3775 10.3144 98.8365 9.55186 99.003C8.51211 99.2388 8.5537 100.418 8.49825 102.61C8.49825 105.245 8.2903 107.839 5.79489 108.408C3.54903 108.921 1.7052 107.146 1.06748 104.357C0.707035 102.776 0.928849 101.652 0.845669 101.264C0.720898 100.737 0.11091 100.834 3.09199e-06 100.293C-0.0970405 99.863 0.332724 99.544 0.679308 99.2665L0.693172 99.2943Z" fill="black"/>
<path d="M10.55 125.151C10.0509 125.373 9.63505 125.013 8.58143 123.584C7.84667 122.627 7.59713 122.266 7.50009 122.03C7.306 121.6 7.65259 121.281 8.04076 121.115L9.24687 120.574C7.80508 120.393 6.3217 119.644 5.51763 117.827C4.46401 115.483 5.42058 113.471 8.0269 112.306L11.5482 110.725C12.8791 110.128 11.6868 108.672 12.5048 108.297C12.9623 108.089 13.392 108.436 14.5704 109.67C15.5963 110.738 15.7627 111.002 15.8458 111.196C16.0815 111.71 15.6379 111.987 15.2081 112.181L9.78754 114.623C8.04076 115.399 7.27827 116.398 7.98531 117.966C8.58143 119.284 10.1203 120.185 12.2691 119.214L14.8477 118.049C16.1786 117.452 14.8477 115.829 15.7211 115.441C16.1647 115.233 16.5945 115.621 17.8976 116.995C18.8403 118.021 19.0899 118.368 19.1592 118.548C19.381 119.048 18.9374 119.325 18.5076 119.519L11.6452 122.599C10.3144 123.195 11.3264 124.818 10.5639 125.151H10.55Z" fill="black"/>
<path d="M19.9494 138.704C19.5058 139.023 18.1887 138.76 17.3154 137.553C16.7192 136.734 16.6638 135.666 17.3154 134.64C16.0122 134.473 14.4595 133.696 13.3643 132.17C11.8948 130.117 12.1443 127.967 13.8495 126.747C15.5547 125.526 17.9531 125.997 19.7553 128.508C20.3792 129.368 20.7673 130.201 21.0446 130.977L21.2526 130.769C22.93 129.146 23.0271 127.953 22.1814 126.76C21.5714 125.914 20.6426 125.456 19.6721 125.193C19.3394 125.054 19.1037 124.929 18.979 124.763C18.8265 124.555 18.8403 124.194 19.1176 123.986C19.381 123.792 19.8246 123.833 20.2267 123.875C21.5437 123.972 23.1934 124.846 24.2886 126.386C26.0354 128.813 25.2452 130.783 23.4568 132.503L20.601 135.222C19.381 136.387 19.5196 136.956 20.0603 138.108C20.1712 138.343 20.1435 138.538 19.9494 138.676V138.704ZM18.2719 133.585L20.0326 131.948C19.8524 131.241 19.5335 130.603 19.0899 129.979C18.0778 128.578 16.8995 128.217 15.8181 128.994C14.7784 129.743 14.6397 130.977 15.4161 132.073C16.1092 133.03 17.3154 133.544 18.2719 133.585Z" fill="black"/>
<path d="M42.1724 158.43C41.9783 158.693 41.5901 158.666 41.2297 158.402C40.7167 158.027 40.3701 157.667 39.5106 157.043C38.5818 156.349 38.2213 156.169 37.6806 155.78C37.2786 155.489 37.2093 155.114 37.4034 154.837C37.9025 154.157 38.8313 155.406 39.6492 154.296C39.7879 154.102 39.9681 153.797 40.1206 153.533L41.8258 150.37C42.3249 149.413 43.2537 147.735 41.8951 146.722C40.9247 146.001 39.469 146.07 38.1104 147.901L35.8091 151.008C34.7277 152.465 36.2943 152.895 35.7398 153.63C35.5873 153.838 35.2407 153.963 34.8802 153.686C34.4505 153.366 33.9375 152.895 33.1057 152.284C32.2878 151.674 31.761 151.369 31.3174 151.05C30.943 150.772 30.9292 150.412 31.1094 150.19C31.6639 149.455 32.4542 150.786 33.5355 149.33L35.9754 146.028C36.835 144.877 37.445 143.42 36.1002 142.422C35.1159 141.686 33.4523 141.631 32.0382 143.545L29.8062 146.555C28.7249 148.012 30.2499 148.414 29.7092 149.149C29.5567 149.358 29.1963 149.482 28.8358 149.205C28.406 148.886 27.907 148.428 27.1029 147.832C26.2849 147.221 25.7581 146.916 25.3007 146.583C24.9402 146.32 24.9402 145.959 25.1066 145.737C25.6611 145.002 26.4513 146.334 27.5327 144.877L30.7351 140.563C31.6223 139.37 29.8756 138.981 30.4717 138.191C30.7212 137.844 31.3035 137.899 32.8562 138.219C34.3673 138.51 34.603 138.635 34.7971 138.773C35.1991 139.065 35.0743 139.481 34.7277 139.925L33.9791 140.923C35.2961 140.369 37.0013 140.285 38.4431 141.354C39.8433 142.394 40.0513 143.809 39.6492 145.182C40.9663 144.544 42.5744 144.419 44.0439 145.515C46.1234 147.055 45.555 149.371 44.3766 151.549L42.2417 155.461C41.1881 157.389 42.7269 157.653 42.1585 158.43H42.1724Z" fill="black"/>
<path d="M57.4221 163.687C57.2141 164.186 56.6596 164.214 54.9128 163.881C53.7206 163.687 53.3047 163.576 53.0551 163.479C52.6254 163.299 52.6669 162.827 52.8333 162.439L53.3463 161.218C52.1679 162.078 50.5736 162.522 48.7436 161.759C46.373 160.76 45.7214 158.638 46.8305 156.002L48.3416 152.437C48.91 151.092 47.0523 150.842 47.3989 150.01C47.593 149.552 48.1475 149.51 49.8388 149.607C51.3083 149.69 51.6133 149.774 51.8074 149.857C52.3342 150.079 52.1956 150.578 52.0015 151.022L49.6863 156.488C48.9377 158.249 49.0486 159.498 50.6429 160.164C51.9599 160.719 53.7206 160.344 54.6355 158.166L55.7446 155.558C56.313 154.213 54.2335 153.921 54.6078 153.047C54.8019 152.59 55.3703 152.576 57.2557 152.715C58.6421 152.812 59.058 152.923 59.2382 152.992C59.7373 153.2 59.5986 153.713 59.4184 154.143L56.4932 161.065C55.9248 162.411 57.7687 162.91 57.4359 163.673L57.4221 163.687Z" fill="black"/>
<path d="M59.3491 164.866C59.5709 163.978 60.8186 164.908 61.2761 163.146L64.1181 152.063C64.4785 150.648 62.7318 150.953 62.9674 149.996C63.0783 149.566 63.6467 149.413 65.2133 149.108C66.6967 148.83 66.9878 148.83 67.2096 148.886C67.6671 148.997 67.7087 149.427 67.5562 149.996L64.0072 163.84C63.5497 165.601 65.1163 165.393 64.8944 166.281C64.8251 166.531 64.5479 166.781 64.1181 166.67C63.5913 166.531 62.9674 166.309 61.9831 166.045C60.9988 165.782 60.3611 165.699 59.862 165.574C59.3768 165.449 59.2659 165.13 59.3352 164.852L59.3491 164.866Z" fill="black"/>
<path d="M81.2809 168.528C81.2394 168.861 80.9205 169.042 80.4769 168.986C79.8669 168.917 79.3817 168.792 78.3003 168.681C77.1774 168.556 76.7199 168.584 76.1099 168.514C75.597 168.459 75.3474 168.168 75.3751 167.849C75.4722 167.002 76.9001 167.585 77.0249 166.323C77.0526 166.059 77.0526 165.823 77.0526 165.643L76.914 161.814C76.8585 160.386 76.5258 158.735 74.9592 158.568C73.7393 158.444 72.2975 159.262 72.0479 161.62L71.6459 165.324C71.4518 167.127 72.9629 166.697 72.8659 167.613C72.8381 167.876 72.6025 168.154 72.145 168.098C71.6043 168.043 70.9527 167.904 69.9546 167.793C68.9564 167.682 68.3048 167.682 67.7919 167.627C67.3067 167.571 67.1403 167.28 67.168 166.989C67.2651 166.073 68.6375 166.808 68.8316 165.005L70.0516 153.63C70.2041 152.174 68.5128 152.728 68.6098 151.743C68.6514 151.3 69.2059 151.078 70.7032 150.551C72.1311 150.065 72.4222 150.023 72.6718 150.051C73.1154 150.107 73.2125 150.495 73.1709 150.939L72.3807 158.346C73.254 157.209 74.6404 156.266 76.4426 156.46C79.0628 156.737 79.6728 159.248 79.7421 161.481L79.853 165.934C79.9085 168.126 81.3364 167.571 81.2393 168.528H81.2809Z" fill="black"/>
<path d="M95.6573 165.296C95.6573 165.463 95.6157 165.657 95.477 165.907C94.7562 167.197 92.7737 168.639 90.3199 168.834C86.8818 169.111 83.9982 167.016 83.6793 163.132C83.3743 159.317 86.0222 156.543 89.3217 156.28C92.4271 156.03 94.6037 158.166 94.7977 160.469C94.8532 161.051 94.673 161.218 94.2848 161.371L87.159 164.186C88.0047 165.823 89.5435 166.947 91.3735 166.794C92.6489 166.683 93.6748 166.059 94.4373 165.213C94.7146 164.908 94.8809 164.769 95.0889 164.755C95.4216 164.727 95.6573 165.019 95.6711 165.296H95.6573ZM86.4797 161.814C86.5074 162.161 86.5629 162.494 86.6322 162.813L91.2764 160.913C91.6646 160.76 91.7894 160.608 91.7617 160.191C91.6646 159.068 90.5278 157.764 89.0444 157.875C87.3947 158.014 86.2995 159.539 86.4797 161.801V161.814Z" fill="black"/>
<path d="M106.29 154.476C106.415 154.976 106.388 155.739 106.277 156.918C106.249 157.389 106.11 157.694 105.736 157.778C105.389 157.861 105.154 157.611 104.89 157.292C104.35 156.626 103.906 156.293 103.365 156.432C102.381 156.682 101.119 158.582 101.868 161.579L102.409 163.701C102.852 165.463 104.377 164.395 104.627 165.352C104.696 165.601 104.585 165.948 104.128 166.059C103.559 166.198 102.783 166.323 101.688 166.6C100.704 166.85 100.107 167.072 99.5806 167.211C99.1231 167.322 98.8736 167.1 98.8043 166.822C98.5824 165.934 100.121 166.142 99.6776 164.395L98.3606 159.179C98.0002 157.736 96.6 158.846 96.3504 157.889C96.2395 157.473 96.6554 157.056 97.9031 156.058C99.0677 155.1 99.3311 154.962 99.539 154.92C99.9965 154.809 100.246 155.128 100.399 155.697L100.925 157.778C101.203 155.78 102.492 154.074 104.142 153.658C105.237 153.38 106.138 153.783 106.318 154.476H106.29Z" fill="black"/>
<path d="M127.806 154.24C128.042 154.684 127.723 155.142 126.586 156.321C125.644 157.362 125.38 157.57 125.214 157.667C124.687 157.944 124.382 157.417 124.202 157.084L123.634 156.002C123.467 157.556 122.649 159.082 120.902 160.011C118.338 161.371 115.135 160.566 113.375 157.223C111.628 153.935 112.723 150.356 115.759 148.747C117.118 148.026 118.379 147.915 119.502 148.206L117.922 145.224C117.243 143.934 115.953 145.487 115.454 144.558C115.26 144.183 115.579 143.684 116.66 142.352C117.589 141.229 117.908 140.937 118.102 140.84C118.546 140.604 118.865 140.965 119.114 141.423L125.422 153.339C126.101 154.629 127.349 153.408 127.793 154.24H127.806ZM122.136 153.158L121.582 152.118C120.403 149.885 118.047 149.219 116.508 150.037C114.803 150.939 114.511 152.964 115.621 155.073C117.021 157.722 119.461 158.485 121.041 157.639C122.4 156.918 123.176 155.128 122.136 153.158Z" fill="black"/>
<path d="M138.842 144.031C138.953 144.156 139.008 144.35 139.036 144.641C139.174 146.112 138.343 148.428 136.443 149.982C133.782 152.16 130.205 152.063 127.751 149.038C125.339 146.084 125.963 142.283 128.513 140.202C130.926 138.232 133.934 138.76 135.39 140.549C135.764 141.007 135.709 141.229 135.473 141.575L131.189 147.929C132.811 148.803 134.71 148.858 136.138 147.693C137.123 146.888 137.622 145.779 137.774 144.655C137.83 144.239 137.885 144.045 138.051 143.906C138.301 143.698 138.661 143.795 138.842 144.017V144.031ZM129.304 146.361C129.525 146.639 129.747 146.874 129.997 147.096L132.756 142.907C132.991 142.56 133.005 142.366 132.756 142.033C132.035 141.159 130.357 140.729 129.207 141.673C127.931 142.713 127.89 144.6 129.318 146.361H129.304Z" fill="black"/>
<path d="M149.794 125.248C152.871 127.496 153.287 131.255 151.291 133.988C149.988 135.777 148.782 135.985 148.338 136.596C147.936 137.15 148.13 138.163 147.811 138.607C147.562 138.954 147.187 138.94 146.827 138.676L135.889 130.672C134.71 129.812 134.239 131.685 133.449 131.102C133.088 130.839 133.158 130.256 133.504 128.633C133.809 127.218 133.948 126.83 134.114 126.594C134.378 126.233 134.807 126.372 135.126 126.594L141.101 130.964C140.561 129.465 140.616 127.662 141.836 126.011C143.652 123.514 146.841 123.071 149.808 125.248H149.794ZM148.726 128.175C146.494 126.552 143.943 126.538 142.71 128.217C141.725 129.563 141.919 131.574 143.749 132.919L144.817 133.696C146.661 135.042 148.796 134.848 150.016 133.169C151.083 131.699 150.917 129.771 148.726 128.175Z" fill="black"/>
<path d="M151.499 122.89C148.144 121.378 146.827 117.633 148.449 114.04C150.043 110.489 153.468 109.24 156.739 110.711C160.108 112.237 161.37 115.996 159.775 119.519C158.167 123.084 154.743 124.333 151.499 122.876V122.89ZM156.31 113.86C153.883 112.764 150.598 113.013 149.613 115.191C148.796 117.022 149.766 118.756 151.943 119.727C154.355 120.809 157.627 120.587 158.611 118.382C159.429 116.551 158.458 114.817 156.31 113.86Z" fill="black"/>
<path d="M165.043 96.3396C165.57 96.4644 166.25 97.6296 165.917 99.0862C165.695 100.071 164.946 100.82 163.74 101C164.489 102.096 164.919 103.761 164.503 105.606C163.934 108.061 162.16 109.31 160.108 108.838C158.056 108.366 156.836 106.244 157.516 103.234C157.751 102.193 158.112 101.361 158.514 100.64H158.223C155.894 100.432 154.937 101.153 154.604 102.582C154.369 103.595 154.646 104.607 155.103 105.495C155.214 105.842 155.284 106.091 155.228 106.3C155.173 106.549 154.895 106.785 154.563 106.702C154.244 106.632 153.98 106.286 153.745 105.939C152.941 104.885 152.511 103.067 152.941 101.222C153.606 98.3094 155.602 97.6019 158.07 97.7961L162.007 98.1429C163.685 98.2816 164.018 97.81 164.53 96.6447C164.641 96.4089 164.808 96.2979 165.03 96.3534L165.043 96.3396ZM162.312 100.987L159.928 100.751C159.526 101.361 159.249 102.027 159.082 102.762C158.694 104.441 159.221 105.578 160.496 105.869C161.744 106.161 162.77 105.453 163.075 104.136C163.338 102.984 162.922 101.736 162.326 100.987H162.312Z" fill="black"/>
</g>
<defs>
<clipPath id="clip0_249_24">
<rect width="166" height="169" fill="white"/>
</clipPath>
</defs>
</svg>
