<svg width="58" height="45" viewBox="0 0 58 45" fill="none" xmlns="http://www.w3.org/2000/svg">
<path d="M46.4119 24.532L46.412 24.5322C46.9197 25.064 47.7466 25.0656 48.2547 24.532L48.2548 24.5318C48.7561 24.0041 48.7563 23.1519 48.2547 22.6251L45.9972 20.2544L45.997 20.2542C45.4892 19.7222 44.6624 19.7222 44.1546 20.2542L44.1546 20.2542L44.1543 20.2546C43.653 20.7822 43.6528 21.6344 44.1544 22.1613L46.4119 24.532Z" fill="#BC6626" stroke="#BC6626" stroke-width="0.4"/>
<path d="M42.6502 28.4825L42.6503 28.4827C43.1582 29.0147 43.9849 29.0147 44.4928 28.4827L44.4931 28.4823C44.9943 27.9547 44.9946 27.1025 44.4929 26.5756L39.9791 21.8352L39.9789 21.8351C39.4711 21.303 38.6443 21.303 38.1365 21.8351L38.1364 21.8351L38.1361 21.8354C37.6349 22.3631 37.6346 23.2153 38.1363 23.7421L42.6502 28.4825Z" fill="#BC6626" stroke="#BC6626" stroke-width="0.4"/>
<path d="M35.1267 36.3835L35.1269 36.3837C35.6347 36.9157 36.4615 36.9157 36.9693 36.3837L36.9696 36.3833C37.4709 35.8557 37.4711 35.0035 36.9695 34.4766L32.4556 29.7362L32.4554 29.7361C31.9476 29.204 31.1208 29.204 30.613 29.7361L30.613 29.7361L30.6126 29.7364C30.1114 30.2641 30.1112 31.1163 30.6128 31.6431L35.1267 36.3835Z" fill="#BC6626" stroke="#BC6626" stroke-width="0.4"/>
<path d="M38.8884 32.4319L38.8886 32.4321C39.3964 32.9641 40.2232 32.9641 40.731 32.4321L40.7314 32.4317C41.2326 31.904 41.2329 31.0518 40.7312 30.525L38.4738 28.1543L38.4736 28.1541C37.9657 27.6221 37.139 27.6221 36.6311 28.1541L36.6311 28.1541L36.6308 28.1545C36.1296 28.6821 36.1293 29.5343 36.631 30.0612L38.8884 32.4319Z" fill="#BC6626" stroke="#BC6626" stroke-width="0.4"/>
<path d="M26.1249 42.7309L26.1251 42.7311C26.6329 43.2631 27.4597 43.2631 27.9676 42.7311L27.9679 42.7307C28.4691 42.2031 28.4694 41.3509 27.9677 40.824L24.9322 37.6362L24.932 37.636C24.4242 37.1039 23.5974 37.1039 23.0895 37.636L23.0895 37.636L23.0892 37.6363C22.588 38.164 22.5877 39.0162 23.0894 39.543L26.1249 42.7309Z" fill="#BC6626" stroke="#BC6626" stroke-width="0.4"/>
<path d="M31.1343 40.0907L31.1345 40.0909C31.6421 40.6227 32.469 40.6243 32.9771 40.0907L32.9773 40.0905C33.4785 39.5628 33.4788 38.7106 32.9771 38.1838L30.9513 36.0564L30.9512 36.0562C30.4433 35.5242 29.6165 35.5242 29.1087 36.0562L29.1087 36.0562L29.1084 36.0566C28.6071 36.5842 28.6069 37.4364 29.1085 37.9633L31.1343 40.0907Z" fill="#BC6626" stroke="#BC6626" stroke-width="0.4"/>
<path d="M6.91405 7.21919L6.91404 7.21921C3.79574 10.494 1.62925 14.8077 0.993278 19.0972C0.360941 23.3622 1.24082 27.6191 4.22536 30.7939V30.7954L4.28053 30.8533C7.20128 33.9201 11.2152 34.9374 15.3024 34.3339C19.3867 33.7309 23.5525 31.5099 26.8113 28.0876C30.1242 24.6085 32.2458 20.2709 32.7792 15.8681C33.3263 11.3544 32.1495 7.29504 29.4448 4.45462C26.4831 1.34432 22.4452 0.351853 18.3564 0.978522C14.2709 1.60468 10.1257 3.8469 6.91405 7.21919ZM14.9727 31.6594C11.5579 32.1529 8.34393 31.2796 6.12226 28.9464C3.89937 26.6114 3.06488 23.2289 3.53597 19.6337C4.00697 16.0392 5.78241 12.2481 8.75577 9.12501C11.6378 6.09889 15.212 4.20134 18.635 3.666C22.0562 3.13093 25.315 3.95646 27.603 6.35932C29.8259 8.6943 30.6604 12.0771 30.1893 15.6725C29.7183 19.2671 27.9429 23.0582 24.9695 26.1807C21.9955 29.304 18.3885 31.1658 14.9727 31.6594Z" fill="#BC6626" stroke="#BC6626" stroke-width="0.4"/>
<path d="M8.04247 26.9016L8.04249 26.9017C9.96656 28.9217 12.7269 29.2809 15.4823 28.6184C18.2373 27.9561 21.021 26.2676 23.0508 24.136L23.0508 24.1359C25.497 21.5659 27.1232 18.2978 27.503 15.161L27.503 15.161C27.6947 13.5775 27.7287 10.5498 25.6843 8.40286C23.7038 6.32301 20.8982 6.01155 18.1353 6.71205C15.3732 7.41234 12.6179 9.12973 10.676 11.1685L10.676 11.1685C8.72775 13.2145 7.09576 16.1074 6.43251 19.0019C5.76962 21.8947 6.06796 24.828 8.04247 26.9016ZM15.2084 25.9134C13.0847 26.4963 11.116 26.2894 9.88421 24.9958C8.75759 23.8121 8.46811 21.8306 8.9488 19.6173C9.42775 17.412 10.6641 15.0221 12.5177 13.0754C14.166 11.345 16.3816 9.98425 18.5011 9.39698C20.6263 8.8081 22.6018 9.00776 23.8415 10.3097C24.4629 10.9623 24.7708 11.8 24.9045 12.627C25.0383 13.4537 24.9957 14.2564 24.9274 14.8216C24.6197 17.3646 23.2671 20.0677 21.208 22.2302C19.5459 23.9757 17.3262 25.3321 15.2084 25.9134Z" fill="#BC6626" stroke="#BC6626" stroke-width="0.4"/>
<path d="M4.28193 28.9451L4.28159 28.9454C3.78035 29.4731 3.78011 30.3253 4.28176 30.8521L13.3095 40.3329C16.1593 43.3257 20.1211 44.3833 24.1946 43.8386C28.3931 43.2775 32.5275 41.0462 35.8402 37.5672L55.9651 16.4325C55.9651 16.4324 55.9651 16.4324 55.9651 16.4324C57.6115 14.7045 57.6115 11.9101 55.9651 10.1812L51.0752 5.0459C49.4246 3.31127 46.7473 3.31134 45.0956 5.04584L24.9697 26.1785L24.9695 26.1787C24.4683 26.7063 24.4681 27.5585 24.9697 28.0854L24.9699 28.0855C25.4776 28.6175 26.3056 28.6177 26.8125 28.0854L46.9374 6.95055C47.5733 6.28272 48.5975 6.28272 49.2334 6.95055L54.1234 12.0859C54.7646 12.7592 54.7646 13.8522 54.1234 14.5255L33.9985 35.6603C31.0807 38.7246 27.4795 40.6714 23.8643 41.1543C20.3539 41.624 17.2663 40.6472 15.1512 38.426L6.1235 28.9452C5.61658 28.4129 4.78967 28.4131 4.28193 28.9451Z" fill="#BC6626" stroke="#BC6626" stroke-width="0.4"/>
<path d="M27.6034 4.45433L27.6032 4.45451C27.1017 4.98124 27.1017 5.83357 27.6032 6.3603L36.5758 15.7831V15.7844L36.6311 15.8423C37.139 16.3744 37.9657 16.3744 38.4736 15.8423L38.4739 15.842C38.9752 15.3143 38.9754 14.4621 38.4737 13.9353L29.446 4.45451L29.4458 4.45433C28.938 3.9223 28.1112 3.9223 27.6034 4.45433Z" fill="#BC6626" stroke="#BC6626" stroke-width="0.4"/>
<path d="M47.6056 16.8325L47.6056 16.8327C47.4519 17.3143 47.5707 17.848 47.9162 18.2108L50.1601 20.5673L50.1622 20.5706L50.1757 20.5848C50.6826 21.1171 51.5095 21.1169 52.0173 20.5849L52.0176 20.5846C52.5189 20.0569 52.5191 19.2047 52.0174 18.6779L50.2958 16.8699C50.9881 13.4001 48.0417 10.2727 44.7042 10.9976L42.9887 9.19603L42.9885 9.19585C42.4808 8.66392 41.6528 8.66366 41.1459 9.19603C40.6443 9.72276 40.6443 10.5751 41.1459 11.1018L43.4033 13.4726C43.7501 13.8367 44.2664 13.9669 44.7374 13.8016L44.7378 13.8014L44.9753 13.7175C44.9754 13.7175 44.9754 13.7175 44.9755 13.7175C45.748 13.4465 46.5852 13.6524 47.1651 14.2613C47.7451 14.8705 47.9465 15.7605 47.6855 16.5829C47.6855 16.583 47.6855 16.583 47.6855 16.5831L47.6056 16.8325Z" fill="#BC6626" stroke="#BC6626" stroke-width="0.4"/>
</svg>
