<svg width="52" height="51" viewBox="0 0 52 51" fill="none" xmlns="http://www.w3.org/2000/svg">
<path d="M24.5 48.9491C12.0736 48.9491 2 38.4392 2 25.4745C2 12.5099 12.0736 2 24.5 2C36.9264 2 47 12.5099 47 25.4745C47 38.4392 36.9264 48.9491 24.5 48.9491Z" stroke="#BC6626" stroke-width="4" stroke-linecap="round" stroke-linejoin="round"/>
<path fill-rule="evenodd" clip-rule="evenodd" d="M24.329 42.6892C24.5297 42.6892 24.7397 42.651 24.9538 42.5759C25.4735 42.393 25.829 42.1036 26.0094 41.7186C26.206 41.3023 26.1938 40.7985 25.9744 40.176C25.8249 39.7528 25.6041 39.3419 25.4102 38.9802C25.3065 38.7863 25.2083 38.6034 25.1423 38.4546C24.5175 37.0608 24.0988 35.7694 23.8605 34.5094C23.4633 32.403 23.6195 30.3402 24.3223 28.3772C24.9484 26.6284 26.0107 24.9411 26.9479 23.4531C27.8284 22.0539 28.9244 20.3133 29.5047 18.5223C30.1416 16.5578 30.1645 14.5047 29.5721 12.4215C29.3014 11.4686 28.9136 10.5062 28.3845 9.47827C28.0721 8.87078 27.6803 8.28651 27.3006 7.72134C26.9613 7.21624 26.6112 6.69476 26.3312 6.17328L25.7401 6.49955C27.1283 9.08647 27.8513 11.3485 27.9496 13.4167C28.0304 15.1053 27.6601 16.7776 26.8509 18.3885C26.1481 19.7864 25.1329 21.1338 24.15 22.4361L24.0449 22.5754C22.9974 23.9651 21.9122 25.4544 21.173 27.0284C20.314 28.8563 19.9235 30.7962 20.0124 32.7934C20.1201 35.1987 20.8795 37.8171 22.3336 40.7985C22.3579 40.8477 22.3834 40.9023 22.4104 40.9623C22.6904 41.5657 23.2128 42.6892 24.3277 42.6892H24.329Z" fill="#BC6626"/>
<path fill-rule="evenodd" clip-rule="evenodd" d="M17.041 38.5146C17.1881 38.5146 17.3417 38.4863 17.4965 38.4282C17.8739 38.289 18.1336 38.0674 18.2692 37.7702C18.4138 37.45 18.4074 37.069 18.2487 36.6015C18.1438 36.2934 17.9916 35.9989 17.8585 35.7381C17.7882 35.6017 17.7229 35.4733 17.6781 35.372C17.2547 34.3884 16.9719 33.4791 16.8107 32.5915C16.5433 31.112 16.6482 29.6636 17.1216 28.2855C17.5451 27.0533 18.2666 25.859 18.9038 24.8065C19.5076 23.808 20.2586 22.565 20.6578 21.2815C21.0979 19.8669 21.1133 18.3901 20.7051 16.8904C20.5184 16.2068 20.2522 15.5177 19.8889 14.7827C19.674 14.3463 19.404 13.9288 19.1443 13.5248C18.9038 13.1519 18.6761 12.7993 18.488 12.4332L17.9263 12.7561C18.8667 14.5814 19.3567 16.1757 19.4232 17.6295C19.4769 18.8117 19.2287 19.9844 18.6837 21.1139C18.2078 22.1002 17.5169 23.0541 16.8491 23.9755L16.7774 24.0742C16.0597 25.0659 15.3164 26.1292 14.8085 27.2546C14.2161 28.5679 13.9462 29.9609 14.0089 31.3957C14.0831 33.1184 14.6038 34.991 15.6004 37.1203C15.6158 37.1541 15.6337 37.1933 15.6516 37.2352C15.8512 37.6824 16.2222 38.516 17.041 38.516V38.5146Z" fill="#BC6626"/>
<path fill-rule="evenodd" clip-rule="evenodd" d="M31.0408 38.5147C31.1879 38.5147 31.3414 38.4874 31.4962 38.4316C31.8736 38.298 32.1333 38.0853 32.2689 37.8C32.4135 37.4939 32.4071 37.1268 32.2484 36.678C32.1435 36.3823 31.9926 36.0996 31.8583 35.8492C31.7879 35.7182 31.7226 35.595 31.6779 35.4977C31.2544 34.5535 30.9704 33.6793 30.8105 32.8284C30.5431 31.4081 30.648 30.0177 31.1214 28.6947C31.5448 27.5118 32.2663 26.3652 32.9034 25.3548C33.5073 24.3976 34.2569 23.2043 34.6573 21.9708C35.0974 20.6128 35.114 19.1951 34.7047 17.7554C34.5179 17.0991 34.2518 16.4376 33.8885 15.732C33.6736 15.3131 33.4036 14.9123 33.1439 14.5245C32.9034 14.1665 32.677 13.8279 32.4877 13.4764L31.9261 13.7864C32.8663 15.5387 33.3563 17.0693 33.4228 18.4649C33.4766 19.5998 33.2284 20.7256 32.6821 21.81C32.2062 22.7568 31.5167 23.6712 30.8489 24.5558L30.7773 24.6518C30.0596 25.6038 29.3163 26.6233 28.8084 27.7051C28.2161 28.9658 27.9462 30.303 28.0089 31.6805C28.0831 33.3342 28.6037 35.132 29.6016 37.1774C29.6169 37.2098 29.6348 37.2474 29.6528 37.2864C29.8523 37.7157 30.2233 38.516 31.0421 38.516L31.0408 38.5147Z" fill="#BC6626"/>
<circle cx="44.5" cy="32.5" r="7.5" fill="#BC6626"/>
<path d="M47.8231 29.941L41.941 35.8231" stroke="white" stroke-width="2"/>
<path d="M41.941 29.941L47.8231 35.8231" stroke="white" stroke-width="2"/>
</svg>
