<svg width="195" height="195" viewBox="0 0 195 195" fill="none" xmlns="http://www.w3.org/2000/svg">
<path d="M180.811 97.4055C180.811 143.469 143.469 180.811 97.4055 180.811C51.3419 180.811 14 143.469 14 97.4055C14 51.3419 51.3419 14 97.4055 14C143.469 14 180.811 51.3419 180.811 97.4055Z" fill="#EDEDED"/>
<path d="M195 97.5C195 151.348 151.348 195 97.5 195C43.6522 195 0 151.348 0 97.5C0 43.6522 43.6522 0 97.5 0C151.348 0 195 43.6522 195 97.5Z" fill="#EDEDED" fill-opacity="0.4"/>
<path d="M122.194 97.4231V98.4906C122.191 99.5068 121.678 100.447 120.842 100.969L88.1386 120.83C86.1655 122.05 85.1424 122.05 84.2655 121.516L83.352 120.983C82.5378 120.475 82.0281 119.57 82 118.581V77.3327C82.003 76.3166 82.516 75.3763 83.352 74.8548L84.2655 74.3211C85.1424 73.7874 86.1655 73.7874 88.7233 75.3504L120.842 94.9452C121.678 95.4667 122.191 96.407 122.194 97.4231Z" fill="#333333"/>
</svg>
