<svg width="18" height="18" viewBox="0 0 18 18" fill="none" xmlns="http://www.w3.org/2000/svg">
<path d="M14.6895 4.29923C14.6895 4.87385 14.2255 5.33769 13.6506 5.33769C13.0758 5.33769 12.6118 4.87385 12.6118 4.29923C12.6118 3.72462 13.0758 3.26077 13.6506 3.26077C14.2255 3.26077 14.6895 3.72462 14.6895 4.29923ZM18 9V9.01385L17.9446 12.7869C17.91 15.6185 15.6245 17.91 12.7918 17.9377L9.00346 18H8.98961L5.21508 17.9446C2.38245 17.91 0.0969604 15.6254 0.0623317 12.7938L0 9.00692V8.99308L0.0484802 5.21308C0.0831089 2.38154 2.37553 0.09 5.20816 0.0623077L8.99654 0H9.01039L12.7849 0.0553846C15.6175 0.09 17.903 2.37462 17.9377 5.20615L18 8.99308V9ZM16.324 9L16.2686 5.23385C16.2478 3.30923 14.6895 1.75154 12.7641 1.73077L8.99654 1.67538L5.22893 1.73077C3.30358 1.75154 1.74529 3.30923 1.72451 5.23385L1.6691 8.99308L1.72451 12.7523C1.74529 14.6769 3.30358 16.2346 5.22893 16.2554L8.98961 16.3177L12.7503 16.2623C14.6756 16.2415 16.2339 14.6838 16.2547 12.7592L16.317 8.99308L16.324 9ZM13.6229 9C13.6229 11.5546 11.5521 13.6246 8.99654 13.6246C6.44094 13.6246 4.37014 11.5546 4.37014 9C4.37014 6.44538 6.44094 4.38231 8.98961 4.37538C11.5452 4.37538 13.616 6.44538 13.616 9H13.6229ZM11.9469 9C11.9469 7.37308 10.6241 6.05077 8.99654 6.05769C7.36899 6.05769 6.04617 7.38 6.04617 9.00692C6.04617 10.6338 7.36206 11.9492 8.98961 11.9492C10.6172 11.9492 11.94 10.6269 11.94 9H11.9469Z" fill="#FCF3EC"/>
</svg>
