<svg width="18" height="18" viewBox="0 0 18 18" fill="none" xmlns="http://www.w3.org/2000/svg">
<path d="M18 2V16C18 17.1046 17.1046 18 16 18H12.25C11.9739 18 11.75 17.7761 11.75 17.5V11.5H14.09C14.3276 11.5 14.5325 11.3328 14.58 11.1L14.94 9.3C14.9549 9.22729 14.9366 9.15173 14.8903 9.09378C14.8439 9.03582 14.7742 9.00147 14.7 9H11.75V5.75C11.75 5.61193 11.8619 5.5 12 5.5H14.5C14.7761 5.5 15 5.27614 15 5V3.5C15 3.22386 14.7761 3 14.5 3H12C10.3431 3 9 4.34315 9 6V9H7.77C7.49386 9 7.27 9.22386 7.27 9.5V11C7.27 11.2761 7.49386 11.5 7.77 11.5H9V17.5C9 17.7761 8.77614 18 8.5 18H2C0.89543 18 0 17.1046 0 16V2C0 0.89543 0.89543 0 2 0H16C17.1046 0 18 0.89543 18 2Z" fill="white"/>
</svg>
