<svg width="117" height="119" viewBox="0 0 117 119" fill="none" xmlns="http://www.w3.org/2000/svg">
<g clip-path="url(#clip0_564_873)">
<path d="M84.9012 79.724V56.6665C84.9012 50.0194 82.1253 44.029 77.6848 39.7862C76.9657 38.9579 76.1511 38.2457 75.2459 37.7507C75.1151 37.6547 74.9793 37.5588 74.8436 37.4628L74.4212 35.1596C74.3558 34.8161 74.2351 34.4878 74.0641 34.1847L72.9226 32.2098C72.7918 31.9825 72.5102 31.9017 72.2789 32.0229L68.7587 33.8413C68.5073 33.912 68.2408 33.9019 67.9944 33.816L64.8664 32.7149C64.258 32.4977 63.5942 32.5028 62.9857 32.725L60.1142 33.7807C59.9533 33.8413 59.7823 33.8564 59.6113 33.8261L54.2506 32.8564L52.2743 37.6143C51.9072 38.4982 52.043 39.5135 52.6314 40.2711L61.7033 47.2111V47.2465L73.9937 56.2876L58.3944 48.7011C57.63 48.3324 56.7952 48.1354 55.9454 48.1354H47.859C47.3109 48.1354 46.7728 48.1657 46.2398 48.2162C46.2398 48.2162 41.7139 48.3526 34.8143 52.6409C33.9393 53.1864 33.009 53.646 32.0032 53.8783C30.0722 54.3228 29.524 54.4339 29.524 54.4339L29.695 54.8936C30.2331 56.3432 31.3193 57.5201 32.7173 58.1767C31.8675 60.1718 31.3998 62.3639 31.3998 64.6722V81.9767L43.0364 81.9868L41.8647 79.8401L41.8044 79.729C45.229 76.2388 48.5681 75.1529 50.7355 74.8549C52.2542 74.6427 53.2047 74.8145 53.2047 74.8145V81.9817L64.8413 81.9918L63.6444 79.7997L63.6042 79.729C65.1129 78.1935 66.6014 77.1227 67.9843 76.3802C71.9369 74.2589 75.0045 74.8145 75.0045 74.8145V81.9817L86.4903 81.9918L84.9163 79.729L84.9012 79.724ZM64.8363 36.7607C64.8363 37.2709 64.3988 37.68 63.8808 37.6244C63.4282 37.579 63.1064 37.1648 63.1064 36.7102V35.4121C63.1064 34.9575 63.4332 34.5434 63.8808 34.4979C64.3988 34.4474 64.8363 34.8515 64.8363 35.3616V36.7557V36.7607Z" fill="#BC6626"/>
<path d="M8.21708 51.0245C8.14668 51.4235 8.02599 51.8276 7.85501 52.2266C7.68403 52.6307 7.49796 52.954 7.29681 53.2015L5.52667 52.9641L5.57193 52.368L6.84925 52.1963C7.03028 52.0044 7.18618 51.7771 7.30687 51.5245C7.42756 51.2669 7.51808 50.9942 7.56837 50.7012C7.6438 50.2568 7.59854 49.8779 7.42756 49.5648C7.25658 49.2516 6.98502 49.0647 6.61289 48.9991C6.29608 48.9435 6.01447 48.9991 5.76806 49.1506C5.52164 49.3021 5.29535 49.5193 5.08414 49.8022C4.87293 50.08 4.66172 50.378 4.45554 50.6911C4.24936 51.0043 4.01803 51.2972 3.77162 51.5649C3.52521 51.8326 3.2436 52.0397 2.92176 52.1862C2.59991 52.3327 2.22778 52.368 1.80033 52.2973C1.36283 52.2216 0.995727 52.0296 0.699028 51.7215C0.402329 51.4134 0.196148 51.0245 0.0855144 50.5548C-0.0251191 50.085 -0.0351767 49.5698 0.0653992 49.0041C0.10563 48.7667 0.155918 48.5394 0.216263 48.3172C0.276609 48.1 0.347012 47.898 0.432501 47.7161C0.517991 47.5343 0.603481 47.3676 0.693999 47.2262L2.41385 47.4131L2.36859 48.0091L1.15665 48.196C0.925324 48.4586 0.769431 48.8122 0.693999 49.2718C0.613538 49.7365 0.663826 50.1305 0.844863 50.4487C1.0259 50.7669 1.29745 50.9538 1.65953 51.0194C1.9864 51.075 2.27807 51.0245 2.53454 50.8679C2.79101 50.7113 3.02736 50.4941 3.2436 50.2163C3.45984 49.9385 3.67105 49.6405 3.88226 49.3274C4.08844 49.0092 4.31473 48.7162 4.56114 48.4435C4.80253 48.1707 5.07911 47.9636 5.3909 47.8121C5.70268 47.6656 6.05973 47.6252 6.46706 47.6959C6.90456 47.7717 7.26664 47.9636 7.56334 48.2818C7.86003 48.595 8.06622 48.989 8.18691 49.4688C8.3076 49.9436 8.31766 50.4689 8.21708 51.0447V51.0245Z" fill="#28282B"/>
<path d="M1.79028 41.9025L2.83627 39.1548L3.33915 39.3064L3.22852 40.1852C3.26372 40.1953 3.33915 40.2307 3.45482 40.2863C3.57048 40.3418 3.75654 40.4176 4.01301 40.5236C4.26948 40.6297 4.63658 40.7711 5.10929 40.953L7.09566 41.7157C7.6438 41.9126 8.11148 41.9935 8.50876 41.9531C8.90603 41.9126 9.23793 41.7712 9.50949 41.5288C9.78104 41.2863 9.98722 40.9732 10.1381 40.5792C10.2839 40.2004 10.3292 39.8367 10.2839 39.4983C10.2336 39.1599 10.0677 38.8417 9.77601 38.5538C9.48937 38.2659 9.0569 38.0083 8.48864 37.7911L6.82411 37.1496C6.43689 37.0031 6.09493 36.8718 5.79321 36.7708C5.49148 36.6647 5.24507 36.5789 5.04894 36.5132C4.85282 36.4475 4.72207 36.4122 4.66676 36.4122L4.12867 37.2456L3.65094 37.0183L4.60641 34.5029L5.10929 34.6545L5.00368 35.5182C5.02883 35.5283 5.10929 35.5636 5.24004 35.6242C5.37079 35.6848 5.58702 35.7758 5.88372 35.8919C6.18545 36.0132 6.59781 36.1697 7.12081 36.3718L8.85072 37.0334C9.57486 37.3112 10.123 37.6598 10.4951 38.079C10.8673 38.4982 11.0835 38.9629 11.1489 39.4731C11.2142 39.9832 11.1438 40.4984 10.9427 41.0287C10.5857 41.9682 10.0476 42.6097 9.32845 42.943C8.60933 43.2764 7.77958 43.2612 6.82914 42.8976L4.68687 42.0743C4.21416 41.8924 3.84203 41.7561 3.58054 41.6652C3.31401 41.5742 3.12291 41.5086 2.99719 41.4631C2.8765 41.4227 2.80107 41.3975 2.7709 41.3975L2.27808 42.1147L1.79531 41.9025H1.79028Z" fill="#28282B"/>
<path d="M13.3465 35.0888L12.8888 34.8262L13.095 34.1494L8.61938 27.8509L8.64453 26.9114L16.7007 28.5226L17.2387 28.0428L17.6561 28.361L16.1475 30.7198L15.6899 30.4571L15.9815 29.6389L13.8192 29.2146L13.3766 29.1085L9.39885 28.3357L9.41896 27.9721L11.9535 31.3259L12.22 31.6795L13.5526 33.417L14.1712 32.8109L14.5986 33.119L13.3414 35.0787L13.3465 35.0888ZM12.2451 32.0633L11.6316 31.6643C11.7322 31.5229 11.873 31.3259 12.044 31.0733C12.215 30.8208 12.4212 30.5076 12.6625 30.1339C12.8989 29.7702 13.095 29.452 13.2509 29.1893C13.4068 28.9267 13.5325 28.7196 13.613 28.5731L14.2265 28.9722C14.0505 29.2298 13.8745 29.4924 13.7035 29.75C13.5325 30.0076 13.3716 30.2551 13.2157 30.4975C13.0648 30.7299 12.914 30.9774 12.7531 31.2299C12.5921 31.4825 12.4262 31.7653 12.2451 32.0633Z" fill="#28282B"/>
<path d="M22.9816 22.4817L22.6095 22.1079L23.0923 21.4361C23.0822 21.3957 23.037 21.325 22.9615 21.229C22.8861 21.1331 22.7553 20.9765 22.5793 20.7644C22.4033 20.5522 22.1619 20.2643 21.8552 19.9057L20.0398 17.7591C19.7481 17.4156 19.5067 17.1428 19.3257 16.9459C19.1447 16.7489 19.0089 16.6024 18.9234 16.5064C18.8379 16.4105 18.7826 16.3599 18.7625 16.3498L17.978 16.7539L17.6662 16.3246L19.899 14.3951C20.5879 13.7991 21.2568 13.486 21.9055 13.4607C22.5492 13.4355 23.1224 13.7082 23.6102 14.284C23.9472 14.678 24.1383 15.1023 24.1835 15.5619C24.2288 16.0215 24.1533 16.4761 23.9522 16.9206C23.751 17.3651 23.4443 17.7692 23.0319 18.1278C22.871 18.2641 22.7151 18.3854 22.5693 18.4813C22.4234 18.5773 22.2776 18.6682 22.1418 18.749L21.654 18.1783C21.8502 18.0924 22.0161 18.0116 22.1569 17.9257C22.2977 17.8399 22.4285 17.7439 22.5542 17.6378C22.9665 17.2792 23.1979 16.9004 23.2532 16.4963C23.3085 16.0922 23.1476 15.668 22.7755 15.2336C22.348 14.7335 21.9055 14.481 21.4479 14.4709C20.9902 14.4608 20.5628 14.6224 20.1705 14.9608L19.6174 15.4407C19.6526 15.4811 19.733 15.5821 19.8588 15.7336C19.9845 15.8902 20.1404 16.0771 20.3214 16.2943C20.5024 16.5115 20.6986 16.7489 20.9098 16.9913L22.7503 19.1178C23.0571 19.4764 23.2985 19.7542 23.4795 19.9613C23.6605 20.1684 23.7963 20.3098 23.8818 20.3906C23.9723 20.4714 24.0276 20.532 24.0578 20.5674L25.0434 19.9512L25.3703 20.4007L22.9716 22.4716L22.9816 22.4817Z" fill="#28282B"/>
<path d="M30.2432 16.7236L29.9415 16.2892L30.555 15.6781C30.545 15.6276 30.4997 15.5316 30.4142 15.3902C30.3287 15.2437 30.2131 15.0517 30.0672 14.8043C29.9214 14.5568 29.7404 14.2638 29.5241 13.9153L28.1513 11.6979C27.935 11.3444 27.7439 11.0464 27.588 10.7989C27.4321 10.5514 27.3064 10.3594 27.2109 10.218C27.1153 10.0766 27.055 9.99576 27.0248 9.98061L26.2051 10.2635L25.9537 9.79878L28.453 8.23804L28.7547 8.67242L28.1412 9.28358C28.1412 9.31894 28.1714 9.4048 28.2418 9.54118C28.3122 9.67755 28.4178 9.86949 28.5636 10.117C28.7095 10.3645 28.9056 10.6827 29.147 11.0767L30.5198 13.294C30.7511 13.6728 30.9473 13.9809 31.1032 14.2234C31.2591 14.4658 31.3797 14.6477 31.4753 14.7689C31.5658 14.8901 31.6312 14.9659 31.6664 14.9861L32.4861 14.7032L32.7375 15.1679L30.2382 16.7287L30.2432 16.7236Z" fill="#28282B"/>
<path d="M35.2268 13.6476L35.0005 13.1728L35.5537 12.7334L35.438 5.00044L35.9912 4.2428L41.7039 10.1726L42.4129 10.0867L42.5739 10.5918L39.9941 11.6677L39.7678 11.1929L40.4718 10.6878L38.938 9.1018L38.6313 8.76338L35.8001 5.85405L36.0264 5.56614L36.2074 9.77357L36.2275 10.2181L36.3382 12.4102L37.193 12.2637L37.3691 12.7637L35.2268 13.6577V13.6476ZM36.0314 10.5312L35.7498 9.84933C35.9157 9.78872 36.142 9.70791 36.4236 9.59679C36.7103 9.49072 37.0522 9.34929 37.4646 9.17756C37.8619 9.01088 38.2038 8.8644 38.4854 8.73813C38.7671 8.61186 38.9833 8.51084 39.1342 8.44012L39.4158 9.122C39.1241 9.23312 38.8324 9.34929 38.5458 9.46041C38.2592 9.57658 37.9826 9.6877 37.7211 9.79882C37.4646 9.90489 37.1981 10.016 36.9265 10.1372C36.6499 10.2585 36.3532 10.3898 36.0364 10.5312H36.0314Z" fill="#28282B"/>
<path d="M52.6716 8.66739C52.2693 8.71285 51.8519 8.7078 51.4194 8.65224C50.987 8.59668 50.6249 8.50576 50.3332 8.37949L50.0717 6.60661L50.6551 6.48539L51.173 7.67236C51.4094 7.79358 51.6659 7.87945 51.9424 7.92996C52.219 7.98046 52.5057 7.98552 52.8024 7.95521C53.2499 7.9047 53.6019 7.75317 53.8534 7.50568C54.1048 7.25313 54.2104 6.93997 54.1702 6.5662C54.135 6.24294 54.0093 5.98535 53.793 5.79341C53.5768 5.60148 53.3052 5.43479 52.9834 5.30852C52.6565 5.18225 52.3196 5.06103 51.9575 4.94485C51.5955 4.83373 51.2535 4.69231 50.9317 4.52563C50.6098 4.35895 50.3332 4.14681 50.1019 3.87911C49.8756 3.61141 49.7348 3.26289 49.6895 2.82851C49.6393 2.38908 49.7247 1.97996 49.941 1.60619C50.1572 1.23242 50.474 0.929361 50.8914 0.691967C51.3088 0.454573 51.8016 0.308096 52.3699 0.242434C52.6062 0.217179 52.8426 0.202026 53.0689 0.202026C53.2952 0.202026 53.5064 0.212128 53.7076 0.242434C53.9037 0.272739 54.0847 0.308096 54.2456 0.358605L54.5423 2.07087L53.959 2.19209L53.4511 1.07584C53.1393 0.92431 52.7521 0.873801 52.2945 0.92431C51.8268 0.974819 51.4647 1.1314 51.2133 1.39405C50.9568 1.6567 50.8512 1.96985 50.8914 2.33857C50.9266 2.67193 51.0574 2.93458 51.2786 3.14167C51.4999 3.34876 51.7715 3.51544 52.0983 3.64676C52.4252 3.77809 52.7672 3.89931 53.1242 4.01548C53.4863 4.1266 53.8282 4.26803 54.1551 4.42461C54.482 4.58624 54.7586 4.79333 54.9899 5.05092C55.2162 5.30852 55.352 5.64693 55.3972 6.06111C55.4475 6.50054 55.362 6.90967 55.1408 7.28344C54.9245 7.65721 54.6027 7.96531 54.1803 8.21281C53.7578 8.4603 53.255 8.61688 52.6817 8.67749L52.6716 8.66739Z" fill="#28282B"/>
<path d="M64.9922 8.64213C64.7257 8.59667 64.4944 8.55627 64.2882 8.53101C64.082 8.50576 63.8859 8.48555 63.7049 8.47545L58.9778 8.12189V7.59154L59.8427 7.46021C59.8528 7.41476 59.8729 7.30869 59.893 7.14201C59.9131 6.97533 59.9383 6.75308 59.9634 6.46518C59.9886 6.17728 60.0187 5.83381 60.0489 5.42974L60.24 2.82851C60.2702 2.41433 60.2953 2.06077 60.3104 1.76781C60.3255 1.47991 60.3356 1.24757 60.3406 1.08088C60.3456 0.914204 60.3406 0.813185 60.3406 0.772778L59.5008 0.51518L59.5812 -0.00506592L64.0066 0.323245C64.1373 0.333347 64.2731 0.343449 64.4189 0.35355C64.5648 0.363652 64.7207 0.368703 64.8816 0.368703C65.0425 0.368703 65.2135 0.368703 65.3895 0.368703L65.5303 2.21734L64.9017 2.26785L64.5346 1.07078C64.4642 1.04553 64.3787 1.03038 64.2882 1.02027C64.1977 1.01017 64.1021 1.00007 64.0016 0.989968L62.4426 0.873797C62.2666 0.858644 62.1158 0.853593 61.98 0.848542C61.8442 0.843491 61.7134 0.848542 61.5827 0.853593C61.5827 0.888949 61.5676 0.995019 61.5525 1.16675C61.5374 1.33848 61.5173 1.53042 61.4972 1.75266C61.4771 1.9749 61.457 2.19714 61.4419 2.41938L61.1653 6.15707C61.1502 6.34396 61.1402 6.53084 61.1301 6.71773C61.1201 6.90966 61.115 7.07634 61.105 7.21777C61.0999 7.3592 61.0949 7.46527 61.0899 7.53093C61.2257 7.55113 61.3665 7.57133 61.5022 7.59154C61.638 7.61174 61.7939 7.6269 61.9699 7.64205L63.3076 7.74307C63.5087 7.75822 63.6747 7.76832 63.8054 7.77337C63.9362 7.77842 64.0368 7.77842 64.1122 7.77337C64.1876 7.77337 64.248 7.76327 64.2932 7.75822L65.1079 6.49549L65.7164 6.66722L65.0023 8.64718L64.9922 8.64213ZM63.6797 5.62167L63.5842 4.66705C63.5389 4.64684 63.4635 4.62664 63.3528 4.60644C63.2422 4.58623 63.1115 4.57613 62.9556 4.56098L61.9096 4.48016C61.7889 4.47006 61.6581 4.46501 61.5173 4.46501C61.3765 4.46501 61.2307 4.46501 61.0798 4.46501L61.1351 3.70232C61.281 3.72252 61.4268 3.74273 61.5676 3.75283C61.7084 3.76798 61.8392 3.77808 61.9599 3.78819L63.0059 3.86395C63.1617 3.87405 63.2975 3.88415 63.4031 3.8892C63.5138 3.8892 63.5942 3.8892 63.6395 3.87405L63.8758 2.92953L64.4692 2.97499L64.2681 5.66208L63.6747 5.61662L63.6797 5.62167Z" fill="#28282B"/>
<path d="M71.2078 1.26273L73.4909 1.97491L74.2905 9.18764L74.0541 9.11188L78.741 3.61646L80.8782 4.28824L80.7626 4.80343L79.8926 4.71756C79.8473 4.83879 79.7719 5.07113 79.6713 5.40954C79.5707 5.75301 79.4651 6.11667 79.3495 6.51065L78.6505 8.95025C78.5247 9.39473 78.4141 9.7685 78.3337 10.0665C78.2482 10.3645 78.1878 10.6019 78.1426 10.7736C78.0973 10.9504 78.0621 11.0868 78.042 11.1878L78.7913 11.6121L78.6102 12.1071L75.8142 11.2333L75.9299 10.7181L76.7898 10.7989C76.83 10.6928 76.8753 10.5716 76.9206 10.4302C76.9658 10.2887 77.0262 10.0918 77.1066 9.83416C77.1871 9.57656 77.2877 9.22805 77.4184 8.78357L78.8516 4.07105L79.1936 4.17712L73.6921 10.612L73.2294 10.4655L72.2689 1.99511L72.6109 2.10118L71.2229 6.61167C70.9966 7.34405 70.8307 7.87945 70.7351 8.21281C70.6346 8.54617 70.5792 8.75326 70.5642 8.83408L71.404 9.29876L71.2078 9.7887L68.623 8.98055L68.7387 8.46536L69.6942 8.56133C69.7243 8.50071 69.7646 8.38959 69.8199 8.22291C69.8752 8.05623 69.9506 7.83399 70.0462 7.56124C70.1417 7.28849 70.2473 6.96018 70.368 6.57631L71.2229 3.96498C71.3537 3.5811 71.4643 3.22249 71.5599 2.89923C71.6554 2.57597 71.7258 2.33858 71.7711 2.18705L71.0218 1.74762L71.2028 1.25262L71.2078 1.26273Z" fill="#28282B"/>
<path d="M86.0277 16.2791L86.2993 15.8245L87.0636 16.1377C87.0988 16.1175 87.1542 16.0619 87.2346 15.9609C87.3101 15.8649 87.4307 15.7033 87.5967 15.4811C87.7626 15.2588 87.9839 14.9558 88.2605 14.577L89.915 12.304C90.1815 11.9353 90.3877 11.6424 90.5335 11.4201C90.6793 11.1979 90.795 11.0312 90.8654 10.9251C90.9358 10.8191 90.976 10.7534 90.976 10.7332L90.4028 10.0614L90.7447 9.65735L93.1284 11.3898C93.8676 11.9252 94.3252 12.5061 94.5012 13.1324C94.6772 13.7587 94.5415 14.3749 94.0989 14.9911C93.7972 15.4104 93.4301 15.6983 92.9926 15.8498C92.5601 16.0013 92.1025 16.0316 91.6197 15.9407C91.142 15.8498 90.6793 15.6427 90.2418 15.3245C90.0709 15.1982 89.92 15.077 89.7943 14.9558C89.6635 14.8346 89.5479 14.7133 89.4372 14.6022L89.8747 13.9961C90.0005 14.1678 90.1211 14.3143 90.2368 14.4305C90.3525 14.5467 90.4732 14.6578 90.6089 14.7537C91.0515 15.077 91.4739 15.2134 91.8762 15.173C92.2835 15.1326 92.6506 14.875 92.9876 14.4153C93.3698 13.885 93.5156 13.39 93.42 12.9405C93.3245 12.4859 93.068 12.1121 92.6506 11.809L92.0572 11.3797C92.0271 11.4252 91.9466 11.5262 91.8309 11.6828C91.7102 11.8394 91.5644 12.0363 91.3934 12.2636C91.2225 12.496 91.0414 12.7384 90.8554 13.0011L89.221 15.2891C88.9444 15.673 88.7282 15.9761 88.5773 16.1983C88.4264 16.4205 88.3158 16.5872 88.2555 16.6933C88.1951 16.7994 88.1549 16.8701 88.1247 16.9054L88.9494 17.7287L88.5924 18.153L86.0277 16.2892V16.2791Z" fill="#28282B"/>
<path d="M97.3928 26.3911C97.2268 26.179 97.081 25.9921 96.9452 25.8355C96.8094 25.679 96.6787 25.5325 96.5529 25.3961L93.2993 21.9362L93.6513 21.5422L94.3805 22.0372C94.4207 22.012 94.5062 21.9463 94.6319 21.8352C94.7577 21.7291 94.9286 21.5776 95.1399 21.3857C95.3511 21.1937 95.6025 20.9563 95.8992 20.6735L97.79 18.8804C98.0918 18.5925 98.3432 18.3501 98.5544 18.148C98.7606 17.9409 98.9215 17.7793 99.0372 17.6631C99.1528 17.5419 99.2182 17.4661 99.2383 17.4308L98.7908 16.6731L99.1981 16.3398L102.246 19.5774C102.336 19.6734 102.427 19.7694 102.532 19.8805C102.633 19.9866 102.743 20.0977 102.864 20.2037C102.985 20.3149 103.11 20.426 103.236 20.5472L102.1 22.0069L101.602 21.6231L102.135 20.4917C102.1 20.426 102.049 20.3553 101.989 20.2846C101.929 20.2138 101.863 20.1431 101.793 20.0674L100.722 18.9259C100.601 18.7996 100.496 18.6885 100.4 18.5925C100.304 18.4965 100.204 18.4107 100.103 18.3299C100.078 18.3551 99.9977 18.4258 99.872 18.5369C99.7462 18.6531 99.6004 18.7844 99.4344 18.9309C99.2685 19.0774 99.1076 19.2289 98.9467 19.3855L96.2361 21.9564C96.1004 22.0827 95.9696 22.214 95.8338 22.3453C95.6981 22.4767 95.5824 22.5979 95.4818 22.6989C95.3812 22.7999 95.3058 22.8706 95.2605 22.9161C95.3511 23.0222 95.4366 23.1282 95.5271 23.2394C95.6126 23.3454 95.7182 23.4667 95.8389 23.5929L96.7591 24.5728C96.8999 24.7193 97.0156 24.8405 97.1061 24.9314C97.1966 25.0223 97.2721 25.0931 97.3274 25.1385C97.3827 25.184 97.433 25.2244 97.4732 25.2496L98.9215 24.8708L99.2584 25.4113L97.4028 26.3861L97.3928 26.3911ZM98.4488 23.2697L99.0171 22.5019C98.9969 22.4565 98.9567 22.3908 98.8863 22.2999C98.8159 22.214 98.7304 22.113 98.6198 21.9968L97.9007 21.2291C97.8202 21.1432 97.7247 21.0473 97.6191 20.9513C97.5134 20.8553 97.4078 20.7543 97.3022 20.6533L97.8554 20.128C97.951 20.2391 98.0465 20.3502 98.137 20.4613C98.2326 20.5674 98.3181 20.6684 98.4035 20.7543L99.1227 21.522C99.2283 21.6382 99.3238 21.7342 99.4043 21.8099C99.4847 21.8857 99.5451 21.9362 99.5903 21.9564L100.395 21.421L100.802 21.8554L98.8561 23.704L98.4488 23.2697Z" fill="#28282B"/>
<path d="M102.849 34.2655C102.794 34.1494 102.728 34.018 102.648 33.8766C102.567 33.7352 102.487 33.5988 102.406 33.4624C102.326 33.3261 102.251 33.2048 102.18 33.0988L99.7915 29.3611L100.219 29.053L100.837 29.6591C100.883 29.6439 100.973 29.5934 101.114 29.5126C101.255 29.4318 101.451 29.3156 101.702 29.159C101.954 29.0025 102.246 28.8156 102.577 28.6034L104.765 27.1942C105.112 26.9669 105.409 26.7801 105.65 26.6235C105.891 26.4669 106.078 26.3406 106.213 26.2447C106.349 26.1487 106.424 26.078 106.445 26.0426L106.163 25.2193L106.621 24.9567L108.376 27.6993L107.933 28.0327L107.164 27.1589C107.129 27.1589 107.048 27.1942 106.917 27.27C106.787 27.3458 106.595 27.4569 106.344 27.6084C106.093 27.7599 105.786 27.9519 105.414 28.1943L103.226 29.6035C102.824 29.8611 102.477 30.0935 102.18 30.2955C101.889 30.4975 101.702 30.6289 101.622 30.6895C101.677 30.8107 101.738 30.9269 101.808 31.038C101.878 31.1542 101.959 31.2905 102.059 31.4471L102.618 32.3209C102.733 32.5028 102.834 32.6492 102.919 32.7705C103.005 32.8917 103.095 33.0079 103.191 33.119L104.72 32.9927L104.941 33.5938L102.854 34.2655H102.849Z" fill="#28282B"/>
<path d="M105.906 41.0944C105.615 40.3468 105.524 39.6144 105.625 38.9023C105.725 38.1951 106.007 37.5587 106.465 37.0031C106.922 36.4475 107.526 36.0232 108.285 35.7303C109.039 35.4323 109.779 35.3363 110.498 35.4373C111.217 35.5383 111.861 35.8161 112.429 36.2758C112.997 36.7354 113.425 37.3365 113.711 38.079C113.993 38.8012 114.073 39.5033 113.963 40.1852C113.852 40.862 113.565 41.4732 113.113 42.0136C112.66 42.5541 112.052 42.9733 111.297 43.2663C110.719 43.4885 110.156 43.5996 109.598 43.5845C109.039 43.5744 108.516 43.4633 108.029 43.2612C107.541 43.0541 107.113 42.7662 106.746 42.3975C106.379 42.0288 106.103 41.5944 105.911 41.0944H105.906ZM106.646 40.9378C106.827 41.4126 107.108 41.7712 107.48 42.0187C107.853 42.2662 108.295 42.3975 108.808 42.4076C109.321 42.4228 109.879 42.3116 110.483 42.0743C111.177 41.8015 111.745 41.458 112.187 41.0388C112.63 40.6196 112.922 40.165 113.073 39.6751C113.223 39.1851 113.203 38.6851 113.002 38.1749C112.72 37.4425 112.223 36.9678 111.514 36.7556C110.805 36.5435 109.98 36.6142 109.044 36.9829C108.376 37.2456 107.827 37.584 107.405 38.0083C106.983 38.4325 106.701 38.8972 106.56 39.4074C106.419 39.9175 106.45 40.4277 106.646 40.9378Z" fill="#28282B"/>
<path d="M108.547 50.6103C108.476 50.2113 108.456 49.7921 108.486 49.3527C108.516 48.9132 108.582 48.5445 108.692 48.2465L110.437 47.8727L110.593 48.4536L109.447 49.0446C109.336 49.287 109.271 49.5497 109.241 49.8325C109.21 50.1154 109.22 50.4033 109.271 50.6962C109.346 51.1407 109.517 51.4842 109.784 51.7216C110.05 51.959 110.367 52.0448 110.739 51.9792C111.056 51.9236 111.307 51.7822 111.488 51.5549C111.669 51.3276 111.81 51.0447 111.916 50.7114C112.021 50.378 112.122 50.0295 112.213 49.6608C112.303 49.2921 112.419 48.9435 112.565 48.6051C112.705 48.2718 112.907 47.9788 113.158 47.7364C113.409 47.4939 113.751 47.3323 114.179 47.2565C114.616 47.1808 115.024 47.2414 115.406 47.4333C115.788 47.6253 116.11 47.9233 116.371 48.3273C116.633 48.7314 116.809 49.2163 116.909 49.782C116.95 50.0194 116.98 50.2517 116.995 50.479C117.01 50.7063 117.01 50.9185 116.995 51.1205C116.98 51.3225 116.95 51.5044 116.915 51.671L115.23 52.0751L115.074 51.4943L116.15 50.9134C116.281 50.5901 116.306 50.2012 116.231 49.7466C116.15 49.282 115.974 48.9284 115.698 48.691C115.426 48.4536 115.104 48.3627 114.742 48.4283C114.415 48.4839 114.159 48.6304 113.968 48.8627C113.777 49.1001 113.631 49.383 113.515 49.7163C113.404 50.0497 113.304 50.4033 113.213 50.772C113.123 51.1407 113.007 51.4943 112.871 51.8327C112.731 52.1711 112.539 52.464 112.298 52.7065C112.057 52.9489 111.73 53.1055 111.317 53.1762C110.88 53.252 110.473 53.1914 110.09 52.9944C109.708 52.7974 109.376 52.4944 109.105 52.0852C108.833 51.6761 108.647 51.1862 108.552 50.6103H108.547Z" fill="#28282B"/>
<path d="M1.35779 75.769C1.24716 75.3751 1.18179 74.9609 1.15664 74.5265C1.1315 74.0921 1.16167 73.7133 1.2371 73.4052L2.93181 72.8395L3.14805 73.3951L2.07188 74.1123C1.99142 74.3649 1.95119 74.6376 1.95119 74.9205C1.95119 75.2033 1.99142 75.4912 2.07188 75.7741C2.1976 76.2085 2.40378 76.5317 2.69545 76.7338C2.98713 76.9408 3.30897 76.9914 3.67607 76.8853C3.98786 76.7944 4.21918 76.6277 4.37004 76.3802C4.52594 76.1327 4.63657 75.8397 4.70697 75.4963C4.77738 75.1528 4.83772 74.7942 4.88801 74.4204C4.9383 74.0467 5.01373 73.683 5.12436 73.3345C5.22997 72.986 5.39592 72.6779 5.61719 72.4051C5.83845 72.1324 6.1603 71.9354 6.57769 71.8141C7.00011 71.6929 7.4175 71.703 7.8198 71.8495C8.2221 71.996 8.57412 72.2586 8.88088 72.6324C9.1826 73.0062 9.41393 73.4709 9.57485 74.0214C9.64022 74.2538 9.69554 74.481 9.73577 74.7033C9.776 74.9255 9.80115 75.1377 9.80617 75.3397C9.80617 75.5417 9.80617 75.7236 9.78606 75.8953L8.15673 76.4863L7.94049 75.9307L8.94625 75.2336C9.0418 74.9003 9.02671 74.5063 8.89596 74.0618C8.76521 73.6072 8.54897 73.2789 8.25228 73.0718C7.95055 72.8647 7.62368 72.8142 7.27166 72.9153C6.95485 73.0062 6.71346 73.183 6.55254 73.4355C6.39162 73.688 6.27093 73.986 6.20053 74.3346C6.12509 74.678 6.06475 75.0366 6.01446 75.4155C5.96417 75.7892 5.88874 76.1529 5.78817 76.5065C5.68759 76.855 5.5317 77.1681 5.31546 77.4358C5.09922 77.7035 4.79246 77.8955 4.39519 78.0116C3.97277 78.1329 3.55538 78.1177 3.15308 77.9662C2.75077 77.8147 2.3887 77.547 2.07691 77.1732C1.7601 76.7944 1.52375 76.3297 1.36282 75.769H1.35779Z" fill="#28282B"/>
<path d="M11.0131 78.9915L12.3306 81.618L11.878 81.8908L11.3098 81.219C11.2746 81.2341 11.1991 81.2695 11.0835 81.32C10.9628 81.3705 10.7818 81.4564 10.5303 81.5776C10.2839 81.6988 9.93189 81.8756 9.4793 82.1029L7.57841 83.0676C7.06547 83.3353 6.68831 83.6333 6.45196 83.9566C6.21561 84.2798 6.09492 84.6183 6.09492 84.987C6.09492 85.3506 6.18543 85.7194 6.3715 86.0931C6.55254 86.4568 6.78889 86.7346 7.0705 86.9265C7.35212 87.1185 7.6991 87.2043 8.10644 87.1892C8.51377 87.174 8.9915 87.0225 9.53461 86.7447L11.1237 85.9365C11.4958 85.7497 11.8177 85.5779 12.0993 85.4264C12.3759 85.2749 12.6072 85.1486 12.7882 85.0476C12.9693 84.9466 13.0799 84.8759 13.1201 84.8304L12.8687 83.8707L13.3565 83.6737L14.5634 86.078L14.1108 86.3507L13.5476 85.6891C13.5476 85.6891 13.447 85.7345 13.3112 85.7901C13.1805 85.8456 12.9693 85.9467 12.6776 86.0881C12.3859 86.2295 11.9937 86.4265 11.4908 86.679L9.83634 87.5175C9.1474 87.866 8.5188 88.0377 7.9606 88.0327C7.4024 88.0276 6.90958 87.8761 6.49722 87.5781C6.07983 87.2801 5.7429 86.8811 5.49146 86.376C5.03887 85.4769 4.93326 84.6486 5.16962 83.8859C5.40597 83.1282 5.97925 82.5221 6.88444 82.0625L8.93116 81.027C9.38375 80.7997 9.73074 80.6179 9.98218 80.4815C10.2286 80.3452 10.4096 80.2492 10.5203 80.1835C10.6309 80.1229 10.7013 80.0775 10.7214 80.0573L10.5253 79.2087L11.0081 78.9966L11.0131 78.9915Z" fill="#28282B"/>
<path d="M9.3385 92.9321L9.73578 92.5835L10.304 93.0028L17.6964 90.8309L18.5714 91.1642L14.4025 98.2709L14.6741 98.9376L14.2365 99.2306L12.5167 97.0233L12.914 96.6748L13.5878 97.2254L14.6992 95.3161L14.9406 94.9322L16.9772 91.4168L17.3142 91.5582L13.3263 92.8563L12.9039 92.9927L10.8321 93.6846L11.1992 94.4726L10.7667 94.7756L9.3385 92.9371V92.9321ZM12.5418 92.8815L13.1202 92.427C13.2207 92.5734 13.3615 92.7654 13.5426 93.0129C13.7236 93.2604 13.9499 93.5584 14.2215 93.9069C14.488 94.2504 14.7193 94.5383 14.9154 94.7807C15.1116 95.0181 15.2675 95.1999 15.3731 95.3262L14.7947 95.7808C14.6087 95.5282 14.4226 95.2757 14.2365 95.0282C14.0505 94.7807 13.8694 94.5433 13.6934 94.316C13.5225 94.0988 13.3465 93.8715 13.1554 93.6392C12.9693 93.4018 12.7631 93.1492 12.5418 92.8815Z" fill="#28282B"/>
<path d="M20.0197 104.807L20.3063 104.362L21.0606 104.701C21.0958 104.686 21.1562 104.625 21.2366 104.529C21.3171 104.433 21.4428 104.276 21.6138 104.059C21.7848 103.842 22.0161 103.549 22.3027 103.175L24.0276 100.953C24.3042 100.594 24.5204 100.306 24.6763 100.089C24.8322 99.8721 24.9479 99.7104 25.0233 99.6044C25.0987 99.4983 25.139 99.4377 25.144 99.4175L24.5908 98.7255L24.9428 98.3315L27.2712 100.14C27.9953 100.7 28.4328 101.296 28.5887 101.923C28.7446 102.554 28.5887 103.17 28.1311 103.766C27.8143 104.175 27.4371 104.453 26.9996 104.59C26.5621 104.731 26.1045 104.746 25.6268 104.64C25.149 104.534 24.6964 104.312 24.269 103.978C24.103 103.847 23.9572 103.721 23.8315 103.595C23.7058 103.468 23.5901 103.347 23.4845 103.231L23.9421 102.64C24.0628 102.817 24.1785 102.963 24.2891 103.084C24.3997 103.206 24.5204 103.317 24.6512 103.418C25.0786 103.751 25.501 103.903 25.9084 103.872C26.3157 103.842 26.6929 103.605 27.0449 103.15C27.4422 102.63 27.6031 102.145 27.5226 101.685C27.4422 101.231 27.1957 100.847 26.7884 100.529L26.2101 100.079C26.1749 100.125 26.0944 100.221 25.9737 100.377C25.848 100.529 25.6972 100.721 25.5212 100.943C25.3451 101.165 25.1541 101.408 24.9579 101.665L23.2532 103.903C22.9665 104.276 22.7402 104.569 22.5793 104.792C22.4184 105.009 22.3027 105.171 22.2424 105.277C22.182 105.383 22.1368 105.448 22.1066 105.484L22.9062 106.332L22.5341 106.746L20.0297 104.802L20.0197 104.807Z" fill="#28282B"/>
<path d="M27.7489 110.353L27.9853 109.883L28.8151 110.136C28.8553 110.105 28.9156 110.019 29.0011 109.873C29.0866 109.732 29.2023 109.535 29.3481 109.287C29.4939 109.04 29.6649 108.742 29.8661 108.388L31.1534 106.125C31.3596 105.761 31.5306 105.453 31.6714 105.201C31.8122 104.948 31.9229 104.741 32.0033 104.59C32.0838 104.438 32.124 104.347 32.119 104.312L31.4853 103.721L31.772 103.276L34.3266 104.741L34.0903 105.211L33.2655 104.958C33.2354 104.974 33.175 105.044 33.0895 105.171C33.004 105.297 32.8834 105.484 32.7375 105.731C32.5917 105.979 32.4056 106.302 32.1743 106.706L30.8869 108.969C30.6657 109.353 30.4896 109.671 30.3488 109.923C30.2131 110.176 30.1125 110.368 30.0471 110.509C29.9817 110.651 29.9516 110.737 29.9465 110.782L30.5802 111.373L30.2935 111.818L27.7389 110.353H27.7489Z" fill="#28282B"/>
<path d="M33.2404 113.429L33.4063 112.929L34.1053 112.994L39.3453 107.327L40.2656 107.166L40.3109 115.414L40.8842 115.848L40.6528 116.323L38.0529 115.308L38.2189 114.808L39.0738 114.934L39.0537 112.722L39.0688 112.262L39.0235 108.196L39.3856 108.146L36.6197 111.312L36.3281 111.646L34.8999 113.308L35.614 113.798L35.3977 114.277L33.2354 113.434L33.2404 113.429ZM35.966 111.737L36.2325 111.05C36.3934 111.121 36.6147 111.216 36.8913 111.338C37.1729 111.459 37.5199 111.595 37.9323 111.757C38.3346 111.914 38.6815 112.045 38.9732 112.146C39.2649 112.252 39.4861 112.328 39.6471 112.378L39.3805 113.065C39.0939 112.944 38.8022 112.823 38.5206 112.707C38.234 112.59 37.9574 112.479 37.6909 112.373C37.4344 112.272 37.1628 112.171 36.8812 112.065C36.5996 111.959 36.2979 111.848 35.966 111.732V111.737Z" fill="#28282B"/>
<path d="M50.635 118.525C50.2327 118.475 49.8304 118.369 49.423 118.212C49.0157 118.055 48.6838 117.884 48.4324 117.692L48.5933 115.909L49.1917 115.929L49.418 117.202C49.6192 117.379 49.8455 117.52 50.107 117.636C50.3685 117.747 50.64 117.823 50.9367 117.864C51.3843 117.924 51.7614 117.863 52.0632 117.677C52.3649 117.49 52.5409 117.212 52.5912 116.838C52.6314 116.515 52.5711 116.237 52.4102 115.995C52.2442 115.752 52.0229 115.535 51.7363 115.333C51.4497 115.131 51.1479 114.934 50.8261 114.737C50.5042 114.54 50.2025 114.323 49.9259 114.085C49.6493 113.848 49.4331 113.57 49.2722 113.257C49.1113 112.944 49.061 112.57 49.1163 112.141C49.1716 111.701 49.3476 111.323 49.6443 111.014C49.941 110.701 50.3182 110.484 50.7808 110.353C51.2435 110.221 51.7564 110.191 52.3247 110.267C52.561 110.297 52.7923 110.338 53.0136 110.393C53.2349 110.449 53.436 110.509 53.6221 110.585C53.8082 110.661 53.9741 110.742 54.1199 110.828L54.0093 112.56L53.4109 112.54L53.1745 111.333C52.908 111.11 52.5409 110.969 52.0883 110.908C51.6206 110.848 51.2334 110.913 50.9267 111.105C50.6199 111.297 50.4389 111.58 50.3936 111.944C50.3534 112.272 50.4137 112.565 50.5797 112.813C50.7456 113.06 50.9719 113.292 51.2586 113.494C51.5452 113.702 51.8469 113.899 52.1688 114.096C52.4906 114.292 52.7923 114.505 53.074 114.737C53.3556 114.969 53.5768 115.237 53.7378 115.545C53.8987 115.848 53.949 116.212 53.8987 116.621C53.8434 117.06 53.6623 117.434 53.3606 117.747C53.0589 118.06 52.6767 118.283 52.209 118.424C51.7413 118.566 51.2183 118.596 50.645 118.52L50.635 118.525Z" fill="#28282B"/>
<path d="M63.7702 118.823C63.5037 118.808 63.2623 118.798 63.0561 118.798C62.85 118.798 62.6538 118.798 62.4678 118.808L57.7307 119.005L57.6703 118.48L58.5202 118.252C58.5252 118.207 58.5302 118.096 58.5353 117.934C58.5353 117.768 58.5353 117.54 58.5302 117.252C58.5252 116.964 58.5101 116.621 58.495 116.212L58.3894 113.606C58.3743 113.191 58.3542 112.838 58.3391 112.545C58.3241 112.252 58.3039 112.025 58.2889 111.858C58.2738 111.691 58.2587 111.59 58.2486 111.555L57.3837 111.398L57.4038 110.868L61.8342 110.686C61.9649 110.681 62.1007 110.676 62.2465 110.671C62.3923 110.666 62.5482 110.651 62.7092 110.631C62.8701 110.61 63.036 110.59 63.212 110.575L63.5641 112.393L62.9455 112.515L62.4426 111.368C62.3672 111.353 62.2867 111.343 62.1912 111.343C62.1007 111.343 62.0001 111.343 61.8995 111.343L60.3406 111.408C60.1646 111.419 60.0137 111.424 59.8779 111.434C59.7422 111.444 59.6114 111.459 59.4857 111.484C59.4857 111.52 59.4857 111.626 59.4907 111.797C59.4907 111.969 59.4958 112.166 59.5008 112.388C59.5008 112.611 59.5108 112.833 59.5209 113.055L59.6768 116.798C59.6869 116.985 59.6919 117.172 59.707 117.358C59.717 117.545 59.7321 117.712 59.7422 117.858C59.7522 118 59.7573 118.106 59.7623 118.172C59.9031 118.172 60.0389 118.182 60.1797 118.182C60.3155 118.182 60.4764 118.182 60.6474 118.177L61.985 118.121C62.1862 118.111 62.3521 118.106 62.4829 118.096C62.6136 118.086 62.7142 118.076 62.7846 118.061C62.855 118.045 62.9153 118.035 62.9606 118.025L63.6244 116.677L64.253 116.778L63.7702 118.823ZM62.1158 115.974L61.9096 115.04C61.8643 115.025 61.7839 115.015 61.6732 115.01C61.5626 115.005 61.4268 115.01 61.2709 115.01L60.2199 115.055C60.0992 115.06 59.9685 115.07 59.8277 115.086C59.6869 115.101 59.541 115.116 59.3952 115.131L59.365 114.368C59.5108 114.368 59.6567 114.368 59.8025 114.368C59.9484 114.368 60.0741 114.368 60.1948 114.358L61.2458 114.313C61.4017 114.308 61.5375 114.298 61.6481 114.287C61.7587 114.277 61.8342 114.262 61.8794 114.242L62.0051 113.277L62.5985 113.252L62.7092 115.944L62.1158 115.969V115.974Z" fill="#28282B"/>
<path d="M67.0338 110.302L69.337 109.666L73.8931 115.298L73.6517 115.363L74.6374 108.196L76.7947 107.6L76.9758 108.095L76.1963 108.499C76.2215 108.625 76.2818 108.863 76.3824 109.206C76.483 109.55 76.5886 109.913 76.7042 110.302L77.4284 112.737C77.5591 113.181 77.6697 113.55 77.7603 113.848C77.8508 114.146 77.9262 114.378 77.9815 114.55C78.0369 114.722 78.0871 114.853 78.1223 114.949L78.9823 114.899L79.0929 115.414L76.2667 116.197L76.0857 115.702L76.8501 115.303C76.8299 115.192 76.7998 115.065 76.7595 114.924C76.7193 114.782 76.664 114.58 76.5936 114.323C76.5232 114.065 76.4226 113.712 76.2919 113.267L74.9592 108.524L75.3062 108.428L74.1446 116.828L73.6769 116.959L68.3112 110.358L68.6581 110.262L69.9204 114.808C70.1265 115.55 70.2724 116.086 70.373 116.419C70.4685 116.752 70.5339 116.959 70.5641 117.035L71.5195 116.969L71.6201 117.49L69.0102 118.212L68.8291 117.712L69.684 117.273C69.674 117.207 69.6488 117.091 69.6086 116.919C69.5684 116.747 69.513 116.52 69.4426 116.237C69.3722 115.954 69.2867 115.621 69.1811 115.237L68.4922 112.58C68.3916 112.186 68.2961 111.828 68.2056 111.499C68.11 111.176 68.0446 110.939 68.0044 110.787L67.1394 110.822L67.0288 110.307L67.0338 110.302Z" fill="#28282B"/>
<path d="M87.4055 111.368L87.0937 110.944L87.672 110.353C87.672 110.312 87.6368 110.237 87.5714 110.131C87.5061 110.024 87.4055 109.848 87.2647 109.61C87.1239 109.373 86.9277 109.055 86.6763 108.656L85.2029 106.262C84.9615 105.878 84.7704 105.575 84.6195 105.352C84.4687 105.13 84.358 104.963 84.2876 104.857C84.2122 104.751 84.172 104.691 84.1518 104.681L83.3171 104.958L83.0757 104.489L85.57 102.923C86.3444 102.438 87.0484 102.231 87.6921 102.302C88.3358 102.372 88.8538 102.731 89.2561 103.372C89.5276 103.812 89.6534 104.261 89.6332 104.721C89.6131 105.181 89.4673 105.62 89.2008 106.029C88.9342 106.443 88.5722 106.792 88.1145 107.08C87.9335 107.191 87.7625 107.287 87.6066 107.358C87.4457 107.433 87.2898 107.499 87.144 107.56L86.7467 106.923C86.9529 106.868 87.1339 106.812 87.2848 106.751C87.4357 106.691 87.5815 106.615 87.7223 106.524C88.1849 106.236 88.4716 105.893 88.5822 105.499C88.6928 105.105 88.6023 104.665 88.2956 104.181C87.9486 103.625 87.5463 103.307 87.0937 103.221C86.6411 103.14 86.1986 103.236 85.7611 103.514L85.1425 103.903C85.1727 103.948 85.2381 104.059 85.3386 104.231C85.4392 104.403 85.5649 104.61 85.7108 104.857C85.8566 105.105 86.0175 105.362 86.1885 105.64L87.6871 108.019C87.9385 108.418 88.1347 108.731 88.2805 108.964C88.4263 109.191 88.542 109.353 88.6174 109.449C88.6929 109.545 88.7431 109.61 88.7683 109.651L89.8344 109.191L90.0909 109.686L87.4105 111.373L87.4055 111.368Z" fill="#28282B"/>
<path d="M100.239 101.726C100.023 101.882 99.8317 102.029 99.6758 102.165C99.5149 102.297 99.369 102.428 99.2282 102.549L95.7081 105.736L95.3259 105.373L95.8338 104.65C95.8087 104.61 95.7483 104.524 95.6427 104.393C95.5371 104.261 95.3913 104.09 95.2052 103.872C95.0191 103.655 94.7878 103.398 94.5163 103.095L92.7763 101.155C92.4997 100.847 92.2634 100.584 92.0622 100.372C91.8661 100.16 91.7052 99.9933 91.5895 99.8771C91.4738 99.7609 91.3984 99.6902 91.3632 99.67L90.5988 100.099L90.277 99.6801L93.5708 96.7001C93.6664 96.6142 93.772 96.5182 93.8776 96.4223C93.9882 96.3212 94.0989 96.2152 94.2095 96.094C94.3201 95.9778 94.4358 95.8515 94.5615 95.7303L95.9897 96.9072L95.5924 97.3971L94.476 96.8364C94.4106 96.8718 94.3402 96.9173 94.2698 96.9779C94.1994 97.0334 94.124 97.0991 94.0486 97.1698L92.8869 98.2204C92.7562 98.3366 92.6455 98.4426 92.55 98.5386C92.4544 98.6295 92.3639 98.7305 92.2835 98.8265C92.3086 98.8518 92.374 98.9326 92.4846 99.0639C92.5953 99.1952 92.721 99.3417 92.8668 99.5134C93.0126 99.6852 93.1585 99.8468 93.3043 100.013L95.8036 102.797C95.9243 102.933 96.0551 103.074 96.1808 103.211C96.3115 103.347 96.4272 103.468 96.5227 103.574C96.6233 103.675 96.6937 103.751 96.734 103.802C96.8446 103.716 96.9502 103.63 97.0608 103.544C97.1715 103.458 97.2871 103.357 97.4179 103.241L98.4136 102.342C98.5644 102.206 98.6851 102.094 98.7807 102.004C98.8712 101.913 98.9416 101.842 98.9919 101.781C99.0422 101.726 99.0774 101.68 99.1075 101.64L98.7606 100.175L99.3037 99.8518L100.234 101.736L100.239 101.726ZM97.1564 100.594L96.402 100.003C96.3568 100.019 96.2864 100.064 96.2009 100.13C96.1104 100.195 96.0098 100.281 95.8941 100.387L95.1147 101.094C95.0242 101.175 94.9336 101.266 94.8331 101.367C94.7325 101.468 94.6319 101.574 94.5263 101.68L94.0184 101.115C94.1341 101.024 94.2447 100.933 94.3553 100.837C94.466 100.746 94.5615 100.66 94.652 100.579L95.4315 99.872C95.5472 99.766 95.6477 99.6751 95.7232 99.5993C95.8036 99.5235 95.8539 99.4579 95.874 99.4175L95.3611 98.5942L95.8036 98.1951L97.5989 100.195L97.1564 100.594Z" fill="#28282B"/>
<path d="M106.947 93.7554C106.852 93.8463 106.751 93.9524 106.646 94.0736C106.54 94.1949 106.435 94.3161 106.334 94.4373C106.233 94.5585 106.143 94.6696 106.067 94.7707L103.347 98.271L102.914 97.9679L103.281 97.1799C103.251 97.1446 103.176 97.0739 103.055 96.9678C102.934 96.8617 102.758 96.7153 102.527 96.5284C102.296 96.3415 102.029 96.1294 101.712 95.8819L99.6658 94.2757C99.3389 94.0181 99.0623 93.8059 98.836 93.6291C98.6097 93.4524 98.4287 93.316 98.2929 93.22C98.1571 93.1241 98.0666 93.0735 98.0264 93.0634L97.3425 93.6039L96.9452 93.2554L98.9416 90.6844L99.4043 90.9926L98.841 92.0128C98.8511 92.0432 98.9114 92.1088 99.0271 92.2098C99.1428 92.3109 99.3087 92.4573 99.53 92.6442C99.7513 92.8311 100.038 93.0584 100.39 93.3311L102.437 94.9373C102.814 95.2303 103.146 95.4879 103.432 95.7C103.719 95.9122 103.905 96.0485 103.991 96.099C104.086 96.0081 104.172 95.9122 104.257 95.8112C104.343 95.7101 104.443 95.5839 104.554 95.4374L105.192 94.6191C105.323 94.4524 105.429 94.306 105.514 94.1847C105.6 94.0635 105.675 93.9373 105.756 93.811L105.132 92.4068L105.625 91.9977L106.942 93.7504L106.947 93.7554Z" fill="#28282B"/>
<path d="M111.358 86.3305C110.996 87.0478 110.518 87.6084 109.924 88.0075C109.331 88.4065 108.677 88.6186 107.958 88.6489C107.239 88.6792 106.52 88.5075 105.801 88.1438C105.077 87.7751 104.513 87.2902 104.106 86.6841C103.699 86.078 103.478 85.4113 103.437 84.6789C103.397 83.9465 103.558 83.2293 103.915 82.5171C104.267 81.8251 104.73 81.2897 105.308 80.921C105.886 80.5523 106.525 80.3553 107.229 80.3351C107.933 80.3149 108.642 80.4866 109.366 80.8553C109.919 81.1382 110.372 81.4867 110.739 81.911C111.101 82.3353 111.373 82.7999 111.549 83.3C111.725 83.8051 111.795 84.3152 111.765 84.8355C111.735 85.3557 111.599 85.8558 111.358 86.3305ZM110.749 85.881C110.981 85.4264 111.061 84.9769 110.996 84.5375C110.93 84.093 110.729 83.6788 110.397 83.2848C110.065 82.8909 109.608 82.5474 109.034 82.2595C108.371 81.9211 107.732 81.7291 107.128 81.6786C106.525 81.6281 105.987 81.714 105.524 81.9261C105.062 82.1433 104.705 82.4918 104.458 82.9818C104.106 83.6839 104.086 84.3708 104.403 85.0426C104.72 85.7143 105.323 86.28 106.218 86.7346C106.862 87.0629 107.48 87.2397 108.074 87.2751C108.672 87.3104 109.205 87.2094 109.678 86.972C110.151 86.7346 110.508 86.371 110.754 85.8861L110.749 85.881Z" fill="#28282B"/>
<path d="M115.371 76.0721C115.26 76.466 115.099 76.8499 114.883 77.2287C114.667 77.6126 114.45 77.9106 114.224 78.1379L112.489 77.7136L112.6 77.1227L113.887 77.0873C114.088 76.9156 114.264 76.7085 114.415 76.466C114.566 76.2236 114.682 75.961 114.762 75.6781C114.888 75.2437 114.878 74.8598 114.742 74.5315C114.606 74.2032 114.355 73.986 113.993 73.885C113.681 73.7941 113.399 73.8143 113.138 73.9406C112.876 74.0668 112.625 74.2588 112.389 74.5113C112.147 74.7639 111.906 75.0366 111.669 75.3296C111.428 75.6225 111.172 75.8852 110.895 76.1276C110.624 76.365 110.317 76.5418 109.985 76.6529C109.653 76.764 109.276 76.759 108.858 76.6428C108.431 76.5216 108.089 76.2893 107.827 75.9508C107.566 75.6124 107.405 75.2033 107.345 74.7235C107.284 74.2436 107.335 73.7284 107.491 73.1779C107.556 72.9455 107.631 72.7233 107.717 72.5162C107.802 72.3091 107.893 72.1121 107.993 71.9404C108.094 71.7687 108.2 71.6121 108.305 71.4808L109.995 71.8495L109.884 72.4354L108.662 72.491C108.406 72.7233 108.21 73.0668 108.084 73.5112C107.953 73.9658 107.963 74.3598 108.104 74.6932C108.25 75.0265 108.496 75.2437 108.853 75.3447C109.17 75.4357 109.467 75.4205 109.738 75.2892C110.01 75.1579 110.266 74.971 110.513 74.7184C110.754 74.4659 111.001 74.1931 111.242 73.9002C111.483 73.6072 111.74 73.3395 112.011 73.0971C112.283 72.8546 112.58 72.6728 112.907 72.5617C113.233 72.4506 113.59 72.4506 113.993 72.5617C114.42 72.6829 114.762 72.9152 115.024 73.2587C115.285 73.6022 115.451 74.0163 115.517 74.5063C115.582 74.9912 115.537 75.5165 115.381 76.0771L115.371 76.0721Z" fill="#28282B"/>
</g>
<defs>
<clipPath id="clip0_564_873">
<rect width="117" height="119" fill="white"/>
</clipPath>
</defs>
</svg>
