<?xml version="1.0" encoding="UTF-8"?>
<svg id="Camada_2" data-name="Camada 2" xmlns="http://www.w3.org/2000/svg" viewBox="0 0 712.52 99.02">
  <defs>
    <style>
      .cls-1 {
        fill: #28282b;
        isolation: isolate;
      }

      .cls-2 {
        fill: #bc6626;
      }
    </style>
  </defs>
  <g id="Camada_1-2" data-name="Camada 1">
    <g>
      <path class="cls-2" d="m90.43,99s22.84.02,22.84.02l-3.13-4.48v-45.65c0-13.16-5.52-25.02-14.35-33.42-1.59-1.81-3.4-3.35-5.45-4.33-.07-.09-.13-.17-.21-.27l-.84-4.56c-.12-.68-.37-1.33-.71-1.93l-2.27-3.91c-.26-.45-.82-.61-1.28-.38l-7,3.6c-.5.14-1.03.12-1.52-.05l-6.22-2.18c-1.21-.43-2.53-.42-3.74.02l-5.71,2.09c-.32.12-.66.15-1,.09l-10.66-1.92-3.93,9.42c-.66,1.58-.5,3.38.4,4.82.19.3.46.55.74.77l17.61,13.42v.07l24.44,17.9-31.02-15.02c-1.52-.73-3.18-1.12-4.86-1.12h-16.08c-1.09,0-2.16.06-3.22.16h0s-9.11.27-22.97,8.92c-1.76,1.1-3.68,1.92-5.71,2.38-3.55.81-4.57,1.02-4.57,1.02l.34.91c1.07,2.87,3.23,5.2,6.01,6.5-1.69,3.95-2.62,8.29-2.62,12.86v34.26s23.14.02,23.14.02l-2.45-4.48c6.81-6.91,13.45-9.06,17.76-9.65,3.02-.42,4.91-.08,4.91-.08v14.19s23.14.02,23.14.02l-2.45-4.48c3-3.04,5.96-5.16,8.71-6.63,7.86-4.2,13.96-3.1,13.96-3.1v14.19ZM70.24,9.49c0,1.01-.87,1.82-1.9,1.71-.9-.09-1.54-.91-1.54-1.81v-2.57c0-.9.65-1.72,1.54-1.81,1.03-.1,1.9.7,1.9,1.71v2.76Z"/>
      <g>
        <polygon class="cls-1" points="190.37 64.94 219.71 43.76 178.65 43.76 186.69 58.01 170.87 68.48 170.87 66.29 170.87 16.27 142.96 22.2 149.58 31.86 149.58 89.44 142.93 98.93 170.87 98.93 170.87 73.49 170.87 71.91 171.58 71.4 187.76 98.93 213.73 98.93 207.21 92.69 190.37 64.94"/>
        <path class="cls-1" d="m386.21,58.32c0-15.86-21.99-14.67-21.99-14.67h-28.05v19.13l23.91-16.3c.07,0,.13,0,.2,0,4.99-.25,4.63,3.92,4.63,3.92v17.24h-.1c-1.93,0-4.11.06-6.56.18-2.45.12-4.91.38-7.4.78-2.49.4-4.91.98-7.28,1.74-2.37.76-4.47,1.79-6.31,3.07-1.85,1.28-3.33,2.89-4.45,4.81-1.12,1.92-1.69,4.25-1.69,6.98,0,2.4.54,4.49,1.62,6.25,1.08,1.76,2.51,3.21,4.27,4.33,1.76,1.12,3.77,1.95,6.01,2.47,2.25.52,4.49.78,6.74.78,2.97,0,5.49-.48,7.58-1.45,2.09-.96,3.81-2.28,5.17-3.97.96-1.18,1.75-2.53,2.39-4.03v6.19l-.1,3.23,25.18.02-3.77-7.27v-33.44Zm-21.67,18.32c-.17,2.33-.53,4.61-1.07,6.83-.55,2.22-1.34,4.16-2.4,5.81-1.06,1.65-2.47,2.47-4.24,2.47-1.16,0-2.13-.59-2.91-1.78-.78-1.18-1.17-2.6-1.17-4.25,0-2.22.36-4.25,1.07-6.08.71-1.83,1.65-3.39,2.81-4.68,1.16-1.29,2.45-2.28,3.88-2.96,1.43-.68,2.86-1.02,4.29-1.02,0,1.44-.09,3.32-.25,5.65Z"/>
        <path class="cls-1" d="m522.37,58.32c0-15.86-21.81-14.67-21.81-14.67h-28.24v19.13l23.91-16.3c.07,0,.13,0,.2,0,4.99-.25,4.63,3.92,4.63,3.92l-.1,17.24c-1.93,0-4.11.06-6.56.18-2.45.12-4.91.38-7.4.78-2.49.4-4.91.98-7.28,1.74-2.37.76-4.47,1.79-6.31,3.07-1.85,1.28-3.33,2.89-4.45,4.81-1.12,1.92-1.69,4.25-1.69,6.98,0,2.4.54,4.49,1.62,6.25,1.08,1.76,2.51,3.21,4.27,4.33,1.76,1.12,3.77,1.95,6.01,2.47,2.25.52,4.49.78,6.74.78,2.97,0,5.49-.48,7.58-1.45,2.09-.96,3.81-2.28,5.17-3.97.96-1.18,1.75-2.53,2.39-4.03v6.19l-.1,3.23,25.18.02-3.77-7.27v-33.44Zm-21.67,18.32c-.17,2.33-.53,4.61-1.07,6.83-.55,2.22-1.34,4.16-2.4,5.81-1.06,1.65-2.47,2.47-4.24,2.47-1.16,0-2.13-.59-2.91-1.78-.78-1.18-1.17-2.6-1.17-4.25,0-2.22.36-4.25,1.07-6.08.71-1.83,1.65-3.39,2.81-4.68,1.16-1.29,2.45-2.28,3.88-2.96,1.43-.68,2.86-1.02,4.29-1.02,0,1.44-.09,3.32-.25,5.65Z"/>
        <path class="cls-1" d="m310.47,55.45l13.33-9.69v-2.13h-13.33v-13.76l-30.19,18.8v3.17h8.82v24.04c0,5,.85,10.26,3.32,14.67,2.19,3.9,6.93,6.75,11.13,7.84,4.89,1.27,11.34.71,15.35-2.64,3.71-3.09,4.85-8.08,4.87-12.71,0-.05,0-.1,0-.14,0-.03,0-.06.01-.1-1.98,1.46-3.72,2.68-6.21,2.98-1.24.15-2.54-.02-3.61-.67-1.32-.81-2.11-2.26-2.58-3.73-.4-1.24-.63-2.53-.76-3.84-.18-1.79-.17-19.63-.17-19.63v-2.47Z"/>
        <polygon class="cls-1" points="555.78 60.25 554.65 58.4 551.68 43.65 529.68 43.64 529.68 46.83 539.17 56.44 539.07 99 570.07 99.02 560.48 91.75 560.48 52.39 560.48 52.39 578.68 62.78 578.68 43.65 558.04 43.65 555.78 60.25"/>
        <path class="cls-1" d="m641.11,49.35c-2.01-1.98-4.3-3.42-6.87-4.34-2.56-.92-5.13-1.38-7.69-1.38-3.39,0-6.28.85-8.66,2.54-2.38,1.69-4.58,3.91-5.91,6.98-1.63,3.77-2.79,10.18-2.79,10.18l-.13.64-1.45-2.13h0s1.4-9.29,1.4-9.29c.09-1.22.13-2.44.13-3.65V16.26l-27.91,5.93,6.5,9.46v60.09l-3.77,7.27,25.18-.02s4.92-.23,7.71-.44c2.8-.21,5.61-.67,8.45-1.38,2.84-.71,5.61-1.73,8.31-3.07,2.7-1.34,5.11-3.14,7.21-5.39,2.11-2.26,3.8-5.08,5.08-8.47,1.28-3.38,1.93-7.48,1.93-12.27,0-4.23-.62-7.9-1.86-11-1.24-3.1-2.86-5.64-4.88-7.62Zm-13.21,28.87c-1.21,3.48-2.78,6.46-4.74,8.91-1.95,2.46-4.14,4.33-6.55,5.64-2.42,1.3-4.83,1.95-7.24,1.95,0-2.73.15-6.32.43-10.76.29-4.44.89-8.78,1.81-13.01.92-4.23,2.27-7.93,4.05-11.07,1.78-3.14,4.17-4.71,7.15-4.71,1.96,0,3.6,1.13,4.92,3.38,1.32,2.25,1.98,4.95,1.98,8.1,0,4.23-.6,8.09-1.81,11.58Z"/>
        <path class="cls-1" d="m274.66,58.32c0-15.86-21.81-14.67-21.81-14.67h-27.95v19.13l23.92-16.31c4.88-.19,4.53,3.92,4.53,3.92v17.24h0s-.21,0-.21,0h0c-1.9,0-4.05.06-6.45.18-2.45.12-4.91.38-7.4.78-2.49.4-4.91.98-7.28,1.74-2.37.76-4.47,1.79-6.31,3.07-1.85,1.28-3.33,2.89-4.45,4.81-1.12,1.92-1.69,4.25-1.69,6.98,0,2.4.54,4.49,1.62,6.26,1.08,1.76,2.51,3.21,4.27,4.33,1.76,1.12,3.77,1.95,6.01,2.47,2.25.52,4.49.78,6.74.78,2.97,0,5.5-.48,7.58-1.45,2.09-.96,3.81-2.28,5.17-3.97.96-1.18,1.75-2.53,2.39-4.03v6.19l-.1,3.23,25.18.02-3.77-7.27v-33.44Zm-21.67,18.32c-.17,2.33-.53,4.61-1.07,6.83-.55,2.22-1.34,4.16-2.4,5.81-1.06,1.65-2.47,2.47-4.24,2.47-1.16,0-2.13-.59-2.91-1.77-.78-1.18-1.17-2.6-1.17-4.25,0-2.22.36-4.25,1.07-6.08.71-1.83,1.65-3.39,2.81-4.68,1.16-1.29,2.45-2.28,3.88-2.96,1.43-.68,2.86-1.02,4.29-1.02,0,1.44-.09,3.32-.25,5.65Z"/>
        <path class="cls-1" d="m708.75,58.32c0-15.86-21.81-14.67-21.81-14.67h-28.24v19.13l23.91-16.3c.07,0,.13,0,.2,0,4.99-.25,4.63,3.92,4.63,3.92v17.24h-.1c-1.93,0-4.11.06-6.56.18-2.45.12-4.91.38-7.4.78-2.49.4-4.91.98-7.28,1.74-2.37.76-4.47,1.79-6.31,3.07-1.85,1.28-3.33,2.89-4.45,4.81-1.12,1.92-1.69,4.25-1.69,6.98,0,2.4.54,4.49,1.62,6.26,1.08,1.76,2.51,3.21,4.27,4.33,1.76,1.12,3.77,1.95,6.01,2.47,2.25.52,4.49.78,6.74.78,2.97,0,5.49-.48,7.58-1.45,2.09-.96,3.81-2.28,5.17-3.97.96-1.18,1.75-2.53,2.39-4.03v6.19l-.1,3.23,25.18.02-3.77-7.27v-33.44Zm-21.67,18.32c-.17,2.33-.53,4.61-1.07,6.83-.55,2.22-1.34,4.16-2.4,5.81-1.06,1.65-2.47,2.47-4.24,2.47-1.16,0-2.13-.59-2.91-1.77-.78-1.18-1.17-2.6-1.17-4.25,0-2.22.36-4.25,1.07-6.08.71-1.83,1.65-3.39,2.81-4.68,1.16-1.29,2.45-2.28,3.88-2.96,1.43-.68,2.86-1.02,4.29-1.02,0,1.44-.09,3.32-.25,5.65Z"/>
        <path class="cls-1" d="m455.19,49.35c-2.01-1.98-4.3-3.42-6.87-4.34-2.56-.92-5.13-1.38-7.69-1.38-3.39,0-6.28.85-8.66,2.54-2.38,1.69-4.58,3.91-5.91,6.98-1.63,3.77-2.79,10.18-2.79,10.18l-.13.64-1.45-2.13h0s1.4-9.29,1.4-9.29c.09-1.22.13-2.44.13-3.65V16.26l-27.91,5.93,6.5,9.46v60.09l-3.77,7.27,25.18-.02s4.92-.23,7.71-.44c2.8-.21,5.61-.67,8.45-1.38,2.84-.71,5.61-1.73,8.31-3.07,2.7-1.34,5.11-3.14,7.21-5.39,2.11-2.26,3.8-5.08,5.08-8.47,1.28-3.38,1.93-7.48,1.93-12.27,0-4.23-.62-7.9-1.86-11-1.24-3.1-2.86-5.64-4.88-7.62Zm-13.21,28.87c-1.21,3.48-2.78,6.46-4.74,8.91-1.95,2.46-4.14,4.33-6.55,5.64-2.42,1.3-4.83,1.95-7.24,1.95,0-2.73.15-6.32.43-10.76.29-4.44.89-8.78,1.81-13.01.92-4.23,2.27-7.93,4.05-11.07,1.78-3.14,4.17-4.71,7.15-4.71,1.96,0,3.6,1.13,4.92,3.38,1.32,2.25,1.98,4.95,1.98,8.1,0,4.23-.6,8.09-1.81,11.58Z"/>
      </g>
    </g>
  </g>
</svg>