<svg width="158" height="23" viewBox="0 0 158 23" fill="none" xmlns="http://www.w3.org/2000/svg">
<path d="M13.1582 13.5014L21.299 7.6248H9.90927L12.1374 11.5782L7.74946 14.4833V13.8761V0.00213623L0.00738395 1.64664L1.84599 4.32472V20.2954L0 22.9292H7.74946V15.8731V15.4339L7.94698 15.2918L12.4346 22.9292H19.6395L17.8322 21.1961L13.1582 13.5014Z" fill="#28282B"/>
<path d="M67.4838 11.6629C67.4838 7.26461 61.3828 7.59499 61.3828 7.59499H53.6019V12.9013L60.2327 8.37941C60.2512 8.37941 60.2678 8.37941 60.2881 8.37756C61.6707 8.30742 61.5729 9.46467 61.5729 9.46467V14.245H61.5434C61.0099 14.245 60.4026 14.2616 59.7251 14.2948C59.0457 14.328 58.3627 14.4 57.6723 14.5126C56.9819 14.6233 56.31 14.7858 55.6528 14.9962C54.9975 15.2084 54.4123 15.4908 53.901 15.847C53.3878 16.2032 52.978 16.6481 52.666 17.1815C52.354 17.7149 52.199 18.3609 52.199 19.1176C52.199 19.7839 52.3485 20.3634 52.6494 20.8525C52.9503 21.3416 53.3453 21.7421 53.8345 22.0541C54.3237 22.366 54.8794 22.593 55.5033 22.7388C56.1254 22.8828 56.7493 22.9566 57.3714 22.9566C58.1947 22.9566 58.8962 22.8237 59.474 22.5561C60.0518 22.2903 60.5299 21.923 60.9084 21.4561C61.1742 21.1275 61.3938 20.7529 61.5711 20.3376V22.0559L61.5415 22.9529L68.5267 22.9584L67.4819 20.943V11.6629H67.4838ZM61.4732 16.744C61.4252 17.39 61.3274 18.0231 61.176 18.6395C61.0246 19.256 60.8031 19.7931 60.5096 20.2508C60.2161 20.7086 59.8248 20.9374 59.3337 20.9374C59.0125 20.9374 58.743 20.7732 58.5252 20.4446C58.3074 20.1161 58.2003 19.7248 58.2003 19.2652C58.2003 18.6488 58.3 18.0877 58.4975 17.5801C58.695 17.0726 58.9553 16.6407 59.2765 16.2826C59.5977 15.9246 59.9558 15.6514 60.3527 15.4613C60.7496 15.273 61.1465 15.1789 61.5434 15.1789C61.5434 15.5776 61.5194 16.0999 61.4732 16.7459V16.744Z" fill="#28282B"/>
<path d="M105.253 11.6629C105.253 7.26461 99.2034 7.59499 99.2034 7.59499H91.3708V12.9013L98.0016 8.37941C98.0201 8.37941 98.0367 8.37941 98.057 8.37756C99.4397 8.30742 99.3418 9.46467 99.3418 9.46467L99.3123 14.245C98.7788 14.245 98.1715 14.2616 97.494 14.2948C96.8147 14.328 96.1317 14.4 95.4413 14.5126C94.7509 14.6233 94.0789 14.7858 93.4217 14.9962C92.7664 15.2084 92.1812 15.4908 91.6699 15.847C91.1567 16.2032 90.7469 16.6481 90.4349 17.1815C90.123 17.7149 89.9679 18.3609 89.9679 19.1176C89.9679 19.7839 90.1174 20.3634 90.4183 20.8525C90.7192 21.3416 91.1143 21.7421 91.6034 22.0541C92.0926 22.366 92.6483 22.593 93.2722 22.7388C93.8943 22.8828 94.5183 22.9566 95.1404 22.9566C95.9637 22.9566 96.6651 22.8237 97.2429 22.5561C97.8207 22.2903 98.2988 21.923 98.6773 21.4561C98.9431 21.1275 99.1628 20.7529 99.34 20.3376V22.0559L99.3104 22.9529L106.296 22.9584L105.251 20.943V11.6629H105.253ZM99.2421 16.744C99.1941 17.39 99.0963 18.0231 98.9449 18.6395C98.7936 19.256 98.5721 19.7931 98.2785 20.2508C97.985 20.7086 97.5937 20.9374 97.1026 20.9374C96.7814 20.9374 96.5119 20.7732 96.2941 20.4446C96.0763 20.1161 95.9692 19.7248 95.9692 19.2652C95.9692 18.6488 96.0689 18.0877 96.2664 17.5801C96.4639 17.0726 96.7242 16.6407 97.0454 16.2826C97.3666 15.9246 97.7247 15.6514 98.1216 15.4613C98.5185 15.273 98.9154 15.1789 99.3123 15.1789C99.3123 15.5776 99.2883 16.0999 99.2421 16.7459V16.744Z" fill="#28282B"/>
<path d="M46.4728 10.8674L50.1703 8.18007L50.1666 7.58761H46.4728V3.77258L38.0994 8.98663V9.86518H40.5471V16.5336C40.5471 17.9216 40.7816 19.3797 41.4701 20.6015C42.0775 21.6831 43.3918 22.4749 44.5585 22.7776C45.9153 23.1282 47.704 22.9732 48.8172 22.0448C49.8454 21.1866 50.1629 19.8042 50.1684 18.5196C50.1684 18.5067 50.1684 18.4937 50.1684 18.4808C50.1684 18.4716 50.1703 18.4624 50.1721 18.455C49.6239 18.861 49.1402 19.1988 48.448 19.28C48.1046 19.3206 47.7428 19.2745 47.4474 19.0936C47.0819 18.8703 46.8623 18.4679 46.7312 18.06C46.6204 17.7149 46.5577 17.3586 46.5208 16.995C46.4709 16.4967 46.4728 11.5521 46.4728 11.5521V10.8674Z" fill="#28282B"/>
<path d="M114.521 12.1999L114.206 11.6868L113.384 7.59497H107.281V8.47721L109.914 11.1442L109.886 22.9473L118.487 22.9529L115.827 20.9374V10.0183L120.872 12.8995V7.59497H115.147L114.521 12.1999Z" fill="#28282B"/>
<path d="M138.193 9.17673C137.633 8.62856 136.998 8.22805 136.288 7.97334C135.577 7.71864 134.864 7.59129 134.154 7.59129C133.214 7.59129 132.413 7.82753 131.752 8.29634C131.091 8.76514 130.48 9.37975 130.113 10.2325C129.66 11.279 129.339 13.0563 129.339 13.0563L129.302 13.2354L128.902 12.6448L129.291 10.07C129.315 9.73228 129.326 9.39452 129.326 9.05676V0L121.584 1.6445L123.386 4.26721V20.9337L122.341 22.9492L129.326 22.9437C129.326 22.9437 130.69 22.8809 131.466 22.8218C132.241 22.7628 133.022 22.6354 133.81 22.4398C134.598 22.2441 135.366 21.9599 136.116 21.5889C136.865 21.2179 137.532 20.7178 138.117 20.0939C138.702 19.4682 139.171 18.6857 139.527 17.7462C139.884 16.8068 140.061 15.6717 140.061 14.3428C140.061 13.1689 139.889 12.152 139.546 11.2919C139.202 10.4318 138.752 9.72674 138.193 9.17857V9.17673ZM134.528 17.1851C134.194 18.1504 133.757 18.9754 133.212 19.6583C132.669 20.3412 132.064 20.8599 131.396 21.2216C130.726 21.5815 130.055 21.7606 129.387 21.7606C129.387 21.002 129.428 20.0072 129.505 18.7761C129.587 17.5432 129.753 16.3417 130.007 15.166C130.262 13.9921 130.637 12.9678 131.132 12.0966C131.626 11.2254 132.287 10.7898 133.116 10.7898C133.659 10.7898 134.113 11.1018 134.48 11.7275C134.848 12.3531 135.03 13.1006 135.03 13.9736C135.03 15.1475 134.862 16.218 134.528 17.1851Z" fill="#28282B"/>
<path d="M36.5413 11.6629C36.5413 7.26461 30.492 7.59499 30.492 7.59499H22.7389V12.9013L29.3733 8.37756C30.7264 8.32404 30.6305 9.46467 30.6305 9.46467V14.245H30.5714C30.0434 14.245 29.4472 14.2634 28.7826 14.2948C28.1033 14.328 27.4203 14.4 26.7299 14.5126C26.0395 14.6233 25.3675 14.7858 24.7104 14.9962C24.055 15.2084 23.4699 15.4908 22.9585 15.847C22.4453 16.2032 22.0355 16.6481 21.7236 17.1815C21.4116 17.7149 21.2565 18.3609 21.2565 19.1176C21.2565 19.7839 21.4061 20.3634 21.707 20.8525C22.0078 21.3416 22.4029 21.7421 22.8921 22.0541C23.3813 22.366 23.9369 22.593 24.5608 22.7388C25.1829 22.8828 25.8069 22.9566 26.429 22.9566C27.2523 22.9566 27.9538 22.8237 28.5316 22.5561C29.1094 22.2903 29.5875 21.923 29.9659 21.4561C30.2317 21.1275 30.4514 20.7529 30.6286 20.3376V22.0559L30.5991 22.9529L37.5843 22.9584L36.5395 20.943V11.6629H36.5413ZM30.5308 16.744C30.4828 17.39 30.3849 18.0231 30.2336 18.6395C30.0822 19.256 29.8607 19.7931 29.5672 20.2508C29.2737 20.7086 28.8823 20.9374 28.3913 20.9374C28.0701 20.9374 27.8006 20.7732 27.5827 20.4446C27.3649 20.1161 27.2578 19.7248 27.2578 19.2652C27.2578 18.6488 27.3575 18.0877 27.555 17.5801C27.7526 17.0726 28.0128 16.6407 28.3341 16.2826C28.6553 15.9246 29.0134 15.6514 29.4103 15.4613C29.8071 15.273 30.204 15.1789 30.6009 15.1789C30.6009 15.5776 30.5769 16.0999 30.5308 16.7459V16.744Z" fill="#28282B"/>
<path d="M156.955 11.6629C156.955 7.26461 150.906 7.59499 150.906 7.59499H143.073V12.9013L149.704 8.37941C149.723 8.37941 149.739 8.37941 149.76 8.37756C151.142 8.30742 151.044 9.46467 151.044 9.46467V14.245H151.015C150.481 14.245 149.874 14.2616 149.196 14.2948C148.517 14.328 147.834 14.4 147.144 14.5126C146.453 14.6233 145.781 14.7858 145.124 14.9962C144.469 15.2084 143.884 15.4908 143.372 15.847C142.859 16.2032 142.449 16.6481 142.137 17.1815C141.825 17.7149 141.67 18.3609 141.67 19.1176C141.67 19.7839 141.82 20.3634 142.121 20.8525C142.422 21.3416 142.817 21.7421 143.306 22.0541C143.795 22.366 144.351 22.593 144.975 22.7388C145.597 22.8828 146.221 22.9566 146.843 22.9566C147.666 22.9566 148.368 22.8237 148.945 22.5561C149.523 22.2903 150.001 21.923 150.38 21.4561C150.646 21.1275 150.865 20.7529 151.042 20.3376V22.0559L151.013 22.9529L157.998 22.9584L156.953 20.943V11.6629H156.955ZM150.945 16.744C150.897 17.39 150.799 18.0231 150.647 18.6395C150.496 19.256 150.275 19.7931 149.981 20.2508C149.688 20.7086 149.296 20.9374 148.805 20.9374C148.484 20.9374 148.214 20.7732 147.997 20.4446C147.779 20.1161 147.672 19.7248 147.672 19.2652C147.672 18.6488 147.771 18.0877 147.969 17.5801C148.166 17.0726 148.427 16.6407 148.748 16.2826C149.069 15.9246 149.427 15.6514 149.824 15.4613C150.221 15.273 150.618 15.1789 151.015 15.1789C151.015 15.5776 150.991 16.0999 150.945 16.7459V16.744Z" fill="#28282B"/>
<path d="M86.6193 9.17673C86.06 8.62856 85.425 8.22805 84.7143 7.97334C84.0036 7.71864 83.291 7.59129 82.5803 7.59129C81.6407 7.59129 80.8396 7.82753 80.1787 8.29634C79.5178 8.76514 78.9068 9.37975 78.5395 10.2325C78.0872 11.279 77.766 13.0563 77.766 13.0563L77.7291 13.2354L77.3285 12.6448L77.718 10.07C77.742 9.73228 77.7531 9.39452 77.7531 9.05676V0L70.011 1.6445L71.8127 4.26721V20.9337L70.7678 22.9492L77.7531 22.9437C77.7531 22.9437 79.1172 22.8809 79.8926 22.8218C80.6679 22.7628 81.4487 22.6354 82.237 22.4398C83.0252 22.2441 83.7931 21.9599 84.5426 21.5889C85.2921 21.2179 85.9585 20.7178 86.5437 20.0939C87.1288 19.4682 87.5977 18.6857 87.954 17.7462C88.3103 16.8068 88.4875 15.6717 88.4875 14.3428C88.4875 13.1689 88.3158 12.152 87.9725 11.2919C87.6291 10.4318 87.1787 9.72674 86.6193 9.17857V9.17673ZM82.9551 17.1851C82.6209 18.1504 82.1834 18.9754 81.6389 19.6583C81.0961 20.3412 80.4907 20.8599 79.8224 21.2216C79.1523 21.5815 78.4822 21.7606 77.814 21.7606C77.814 21.002 77.8546 20.0072 77.9321 18.7761C78.0133 17.5432 78.1795 16.3417 78.4342 15.166C78.689 13.9921 79.0637 12.9678 79.5584 12.0966C80.0532 11.2254 80.714 10.7898 81.5429 10.7898C82.0856 10.7898 82.5397 11.1018 82.9071 11.7275C83.2744 12.3531 83.4572 13.1006 83.4572 13.9736C83.4572 15.1475 83.2892 16.218 82.9551 17.1851Z" fill="#28282B"/>
</svg>
