<svg xmlns="http://www.w3.org/2000/svg" width="20" height="20" viewBox="0 0 20 20">
  <path id="_" data-name="+" d="M19.8,29.8a1.137,1.137,0,0,1-.863-.352A1.184,1.184,0,0,1,18.6,28.6V21H11a1.2,1.2,0,0,1-1.2-1.2,1.137,1.137,0,0,1,.352-.863A1.184,1.184,0,0,1,11,18.6H18.6V11a1.2,1.2,0,0,1,1.2-1.2,1.137,1.137,0,0,1,.863.352A1.184,1.184,0,0,1,21,11V18.6H28.6a1.2,1.2,0,0,1,1.2,1.2,1.137,1.137,0,0,1-.352.863A1.184,1.184,0,0,1,28.6,21H21V28.6a1.2,1.2,0,0,1-1.2,1.2Z" transform="translate(-9.8 -9.8)" fill="#ffffff"/>
</svg>
