<svg width="27" height="27" viewBox="0 0 27 27" fill="none" xmlns="http://www.w3.org/2000/svg">
<g clip-path="url(#clip0_246_8)">
<path d="M13.5 0C6.05571 0 0 6.05571 0 13.5C0 20.9443 6.05571 27 13.5 27C20.9443 27 27 20.9443 27 13.5C27 6.05571 20.9443 0 13.5 0ZM13.5 25.0714C7.11643 25.0714 1.92857 19.8836 1.92857 13.5C1.92857 7.11643 7.11643 1.92857 13.5 1.92857C19.8836 1.92857 25.0714 7.11643 25.0714 13.5C25.0714 19.8836 19.8836 25.0714 13.5 25.0714Z" fill="#84B085"/>
<path d="M19.932 8.91926C19.5171 8.56275 18.9099 8.61068 18.5627 9.00632L12.1307 16.3542L12.0706 16.4225L11.9764 16.3542L8.43718 12.372C8.08011 11.9763 7.47289 11.9377 7.07726 12.2948C6.68163 12.6519 6.64305 13.2591 7.00012 13.6547L10.5393 17.6369C10.9157 18.0706 11.475 18.3213 12.0535 18.3213C12.6321 18.3213 13.2007 18.0706 13.5865 17.627L20.0185 10.2792C20.3657 9.87418 20.3271 9.2664 19.932 8.91926Z" fill="#84B085"/>
</g>
<defs>
<clipPath id="clip0_246_8">
<rect width="27" height="27" fill="white"/>
</clipPath>
</defs>
</svg>
