<svg width="89" height="20" viewBox="0 0 89 20" fill="none" xmlns="http://www.w3.org/2000/svg">
<path d="M25.4982 7.13324C25.4982 7.51367 25.4012 7.86693 25.2072 8.18849C25.0221 8.51005 24.7444 8.76367 24.3696 8.95842C24.0037 9.14864 23.5585 9.24375 23.0339 9.24375C22.2448 9.24375 21.5923 9.04447 21.081 8.65045C20.5696 8.25643 20.2919 7.70389 20.2434 6.99284H22.0552C22.0817 7.26458 22.1743 7.48197 22.333 7.63596C22.5005 7.79447 22.7077 7.87146 22.959 7.87146C23.1794 7.87146 23.3513 7.80806 23.4791 7.68578C23.607 7.56349 23.6687 7.40045 23.6687 7.19665C23.6687 7.01096 23.607 6.85697 23.488 6.73469C23.3733 6.61241 23.2323 6.51277 23.0603 6.43578C22.8884 6.35425 22.6504 6.25915 22.3418 6.15045C21.8965 5.99193 21.5306 5.84248 21.2441 5.70208C20.9663 5.55262 20.7239 5.33523 20.5167 5.04538C20.3183 4.75099 20.2169 4.37509 20.2169 3.9086C20.2169 3.47835 20.3227 3.10697 20.5343 2.79447C20.7459 2.48197 21.0413 2.24194 21.4116 2.07889C21.7907 1.90679 22.2227 1.82074 22.7077 1.82074C23.4924 1.82074 24.114 2.01096 24.5724 2.39592C25.0353 2.77636 25.2998 3.30172 25.3615 3.97201H23.5188C23.4835 3.73197 23.3998 3.54628 23.2587 3.41041C23.1265 3.26549 22.9413 3.19755 22.7121 3.19755C22.5137 3.19755 22.3506 3.2519 22.2227 3.36059C22.1037 3.46929 22.042 3.63233 22.042 3.84067C22.042 4.01277 22.0949 4.1577 22.2007 4.27998C22.3153 4.39773 22.452 4.49284 22.6195 4.5653C22.787 4.6423 23.0251 4.73741 23.3381 4.85063C23.7877 5.00915 24.158 5.16313 24.4446 5.32165C24.7311 5.4711 24.978 5.69302 25.1808 5.98741C25.388 6.28179 25.4894 6.66222 25.4894 7.13324H25.4982ZM28.1432 3.32436V4.83704H30.5238V6.15951H28.1432V7.7673H30.8236V9.17128H26.4416V1.93396H30.8236V3.32436H28.1432ZM35.0909 1.8615C35.9726 1.8615 36.7 2.08342 37.2731 2.52726C37.8461 2.9711 38.1988 3.57346 38.3399 4.3298H36.5368C36.4178 4.07165 36.2327 3.86784 35.9902 3.71386C35.7433 3.55534 35.448 3.47835 35.1041 3.47835C34.5663 3.47835 34.1343 3.66404 33.808 4.03994C33.4818 4.40679 33.3187 4.90951 33.3187 5.54357C33.3187 6.23197 33.4862 6.76186 33.8257 7.12871C34.1695 7.49556 34.6589 7.68125 35.2893 7.68125C35.6948 7.68125 36.0519 7.56802 36.3561 7.34157C36.6603 7.11059 36.8763 6.77998 37.0041 6.35878H34.8528V5.09973H38.4281V6.8298C38.2958 7.25099 38.0842 7.64501 37.7888 8.00733C37.4935 8.36965 37.1232 8.66404 36.6647 8.88596C36.215 9.11241 35.6948 9.22563 35.1085 9.22563C34.3988 9.22563 33.7772 9.07165 33.2438 8.76367C32.7104 8.45117 32.3004 8.01186 32.0094 7.4548C31.7229 6.8932 31.5818 6.25914 31.5818 5.53904C31.5818 4.81893 31.7229 4.18487 32.0094 3.62328C32.3004 3.06168 32.7104 2.63143 33.235 2.32346C33.7684 2.01096 34.3855 1.85244 35.0865 1.85244L35.0909 1.8615ZM41.0378 1.93396V6.10969C41.0378 6.58523 41.1392 6.95208 41.3464 7.2057C41.558 7.45933 41.8666 7.58614 42.2634 7.58614C42.6601 7.58614 42.9643 7.45933 43.1715 7.2057C43.3831 6.95208 43.4889 6.58976 43.4889 6.10969V1.93396H45.1906V6.10969C45.1906 6.79357 45.0627 7.36875 44.8026 7.83976C44.5425 8.30172 44.1898 8.65498 43.7358 8.89501C43.2905 9.12599 42.788 9.24375 42.2193 9.24375C41.6506 9.24375 41.1569 9.12599 40.7248 8.89501C40.2928 8.66404 39.9534 8.31078 39.7065 7.83976C39.4596 7.36875 39.3362 6.79357 39.3362 6.10969V1.93396H41.029H41.0378ZM49.9472 9.17128L48.4219 6.44031H48.034V9.17128H46.3323V1.93396H49.2419C49.8018 1.93396 50.2735 2.0336 50.657 2.23288C51.0405 2.43215 51.3315 2.70389 51.5254 3.05262C51.7194 3.3923 51.8164 3.78632 51.8164 4.23016C51.8164 4.75552 51.6753 5.20389 51.3888 5.57074C51.1111 5.93759 50.7011 6.19121 50.1632 6.32708L51.8384 9.17128H49.956H49.9472ZM48.034 5.24012H49.092C49.4314 5.24012 49.6783 5.16313 49.8414 5.01367C50.0001 4.85516 50.0795 4.62871 50.0795 4.3298C50.0795 4.03088 49.9957 3.81802 49.8282 3.65498C49.6695 3.49194 49.4226 3.41041 49.092 3.41041H48.034V5.24465V5.24012ZM56.0132 1.82074C56.6789 1.82074 57.2784 1.97925 57.8162 2.30081C58.3629 2.61331 58.7905 3.05262 59.1035 3.62328C59.4165 4.18487 59.5708 4.81893 59.5708 5.52545C59.5708 6.23197 59.4121 6.87509 59.0947 7.44121C58.7817 8.00733 58.3541 8.45117 57.8074 8.77273C57.2696 9.08523 56.6701 9.24375 56.0132 9.24375C55.3563 9.24375 54.7524 9.08523 54.2102 8.77273C53.6723 8.45117 53.2447 8.00733 52.9229 7.44121C52.6099 6.87509 52.4556 6.2365 52.4556 5.52545C52.4556 4.8144 52.6099 4.18034 52.9229 3.62328C53.2403 3.05715 53.6723 2.61784 54.2102 2.30081C54.7568 1.97925 55.3563 1.82074 56.0132 1.82074ZM56.0132 3.44665C55.4533 3.44665 55.0081 3.63233 54.6775 4.00824C54.3512 4.37509 54.1881 4.88233 54.1881 5.52092C54.1881 6.15951 54.3512 6.66223 54.6775 7.0336C55.0081 7.40951 55.4533 7.5952 56.0132 7.5952C56.5731 7.5952 57.0051 7.40951 57.3401 7.0336C57.6708 6.6577 57.8383 6.15498 57.8383 5.52092C57.8383 4.88686 57.6708 4.37962 57.3401 4.00824C57.0139 3.63233 56.5731 3.44665 56.0132 3.44665Z" fill="#ACACAB"/>
<path d="M23.2896 13.2652C24.6121 13.2652 25.6128 14.0306 25.9302 15.267H24.4402C24.2109 14.7779 23.7921 14.5333 23.2763 14.5333C22.4432 14.5333 21.8745 15.1674 21.8745 16.1774C21.8745 17.1873 22.4432 17.8214 23.2763 17.8214C23.7921 17.8214 24.2109 17.5768 24.4402 17.0877H25.9302C25.6128 18.3241 24.6165 19.0804 23.2896 19.0804C21.6496 19.0804 20.4902 17.8848 20.4902 16.1728C20.4902 14.4609 21.6452 13.2562 23.2896 13.2562V13.2652Z" fill="#ACACAB"/>
<path d="M30.1666 14.4475H28.1123V15.6024H29.9286V16.6757H28.1123V17.9303H30.1666V19.0444H26.7589V13.3288H30.1666V14.443V14.4475Z" fill="#ACACAB"/>
<path d="M33.3232 13.3288C34.6854 13.3288 35.3687 14.135 35.3687 15.1268C35.3687 15.8424 34.9896 16.5172 34.1343 16.7799L35.4172 19.0444H33.8875L32.7325 16.8886H32.4062V19.0444H31.0529V13.3288H33.3276H33.3232ZM33.2438 14.4837H32.4018V15.9013H33.2438C33.7508 15.9013 33.9889 15.6341 33.9889 15.1857C33.9889 14.7645 33.7508 14.4837 33.2438 14.4837Z" fill="#ACACAB"/>
<path d="M35.9153 13.3288H40.2179V14.443H38.7455V19.0444H37.3921V14.443H35.9197V13.3288H35.9153Z" fill="#ACACAB"/>
<path d="M40.9012 13.3288H42.2546V19.0444H40.9012V13.3288Z" fill="#ACACAB"/>
<path d="M43.2423 13.3287H46.8616V14.4429H44.5957V15.6476H46.2929V16.73H44.5957V19.0398H43.2423V13.3242V13.3287Z" fill="#ACACAB"/>
<path d="M47.5757 13.3288H48.9291V19.0444H47.5757V13.3288Z" fill="#ACACAB"/>
<path d="M52.4822 13.2655C53.8047 13.2655 54.8054 14.0309 55.1228 15.2673H53.6328C53.4036 14.7781 52.9848 14.5336 52.469 14.5336C51.6358 14.5336 51.0671 15.1676 51.0671 16.1776C51.0671 17.1876 51.6358 17.8216 52.469 17.8216C52.9848 17.8216 53.4036 17.5771 53.6328 17.0879H55.1228C54.8054 18.3243 53.8091 19.0807 52.4822 19.0807C50.8423 19.0807 49.6829 17.885 49.6829 16.1731C49.6829 14.4611 50.8379 13.2564 52.4822 13.2564V13.2655Z" fill="#ACACAB"/>
<path d="M59.4209 18.0344H57.3445L57.0095 19.0444H55.59L57.6046 13.3288H59.174L61.1886 19.0444H59.7559L59.4209 18.0344ZM58.3849 14.8687L57.7016 16.9611H59.0726L58.3849 14.8687Z" fill="#ACACAB"/>
<path d="M66.8006 16.1866C66.8006 17.8805 65.6589 19.0444 63.8867 19.0444H61.8015V13.3288H63.8867C65.6633 13.3288 66.8006 14.4837 66.8006 16.1866ZM63.7985 17.8397C64.8213 17.8397 65.4252 17.2373 65.4252 16.1866C65.4252 15.1359 64.8213 14.5154 63.7985 14.5154H63.1549V17.8352H63.7985V17.8397Z" fill="#ACACAB"/>
<path d="M70.1908 19.1033C68.6126 19.1033 67.3297 17.8895 67.3297 16.173C67.3297 14.4565 68.6126 13.2518 70.1908 13.2518C71.769 13.2518 73.0342 14.4565 73.0342 16.173C73.0342 17.8895 71.7646 19.1033 70.1908 19.1033ZM70.1908 17.8352C71.0769 17.8352 71.6588 17.1739 71.6588 16.173C71.6588 15.1721 71.0813 14.5109 70.1908 14.5109C69.3003 14.5109 68.7184 15.154 68.7184 16.173C68.7184 17.192 69.287 17.8352 70.1908 17.8352Z" fill="#ACACAB"/>
<path d="M77.4867 19.1033C76.292 19.1033 75.353 18.4919 75.3134 17.337H76.7549C76.7946 17.7763 77.0635 17.9892 77.4426 17.9892C77.8217 17.9892 78.0907 17.7853 78.0907 17.4502C78.0907 16.3904 75.3089 16.9611 75.3266 14.9366C75.3266 13.8542 76.1906 13.2518 77.3544 13.2518C78.5183 13.2518 79.3823 13.8723 79.4396 14.9593H77.9716C77.9496 14.5924 77.6939 14.375 77.328 14.366C77.0018 14.3569 76.7593 14.529 76.7593 14.8868C76.7593 15.8786 79.5102 15.4303 79.5102 17.346C79.5102 18.3062 78.7828 19.1033 77.4823 19.1033H77.4867Z" fill="#ACACAB"/>
<path d="M82.3624 19.1033C81.1678 19.1033 80.2288 18.4919 80.1891 17.337H81.6306C81.6703 17.7763 81.9392 17.9892 82.3183 17.9892C82.6975 17.9892 82.9664 17.7853 82.9664 17.4502C82.9664 16.3904 80.1847 16.9611 80.2023 14.9366C80.2023 13.8542 81.0664 13.2518 82.2302 13.2518C83.394 13.2518 84.258 13.8723 84.3154 14.9593H82.8474C82.8253 14.5924 82.5696 14.375 82.2037 14.366C81.8775 14.3569 81.635 14.529 81.635 14.8868C81.635 15.8786 84.3859 15.4303 84.3859 17.346C84.3859 18.3062 83.6585 19.1033 82.358 19.1033H82.3624Z" fill="#ACACAB"/>
<path d="M86.5768 13.3288V17.971H88.3534V19.0444H85.2234V13.3288H86.5768Z" fill="#ACACAB"/>
<path d="M12.78 7.5H12.1716V5C12.1716 2.24185 9.98945 0 7.30473 0C4.62001 0 2.43344 2.24185 2.43344 5V7.5H1.82508C0.819964 7.5 0 8.34239 0 9.375V18.125C0 19.1576 0.819964 20 1.82508 20H12.78C13.7851 20 14.6051 19.1576 14.6051 18.125V9.375C14.6051 8.34239 13.7851 7.5 12.78 7.5ZM4.06014 5C4.06014 3.16123 5.51492 1.66667 7.30473 1.66667C9.09455 1.66667 10.5493 3.16123 10.5493 5V7.5H4.06014V5ZM8.11588 13.9357V15.8333C8.11588 16.2953 7.75439 16.6667 7.30473 16.6667C6.85507 16.6667 6.49359 16.2953 6.49359 15.8333V13.9357C6.00866 13.6458 5.68244 13.1159 5.68244 12.5C5.68244 11.5806 6.40983 10.8333 7.30473 10.8333C8.19964 10.8333 8.92703 11.5806 8.92703 12.5C8.92703 13.1159 8.5964 13.6458 8.11588 13.9357Z" fill="#ACACAB"/>
</svg>
