<svg width="71" height="18" viewBox="0 0 71 18" fill="none" xmlns="http://www.w3.org/2000/svg">
<g clip-path="url(#clip0_898_417)">
<path d="M24.3467 5.00253C24.4388 5.1267 24.5267 5.25225 24.609 5.38055C24.5267 5.25363 24.4388 5.1267 24.3467 5.00253Z" fill="#9C9C9C"/>
<path d="M24.809 5.71582C24.8359 5.76273 24.8614 5.81101 24.8869 5.8593C24.8614 5.81101 24.8359 5.76411 24.809 5.71582Z" fill="#9C9C9C"/>
<path d="M24.609 5.38055C24.6175 5.39435 24.6274 5.40815 24.6374 5.42332C24.6289 5.40953 24.6189 5.39435 24.609 5.38055Z" fill="#9C9C9C"/>
<path d="M24.2928 4.93219C24.3113 4.95564 24.3283 4.9791 24.3453 5.00255C24.3283 4.9791 24.3099 4.95564 24.2928 4.93219Z" fill="#9C9C9C"/>
<path d="M23.5216 4.06992C23.5216 4.06992 23.5273 4.07543 23.5301 4.07819C23.5273 4.07543 23.5244 4.07268 23.5216 4.06992Z" fill="#9C9C9C"/>
<path d="M23.53 4.07681C23.7384 4.27824 23.9313 4.48656 24.1085 4.7004C23.9313 4.48656 23.737 4.27824 23.53 4.07681Z" fill="#9C9C9C"/>
<path d="M24.1085 4.70178C24.1199 4.71558 24.1312 4.72799 24.1411 4.74041C24.1298 4.72662 24.1199 4.7142 24.1085 4.70178Z" fill="#9C9C9C"/>
<path d="M24.7295 5.57785C24.7564 5.62338 24.7834 5.66891 24.8089 5.71581C24.7834 5.67029 24.7564 5.62338 24.7295 5.57785Z" fill="#9C9C9C"/>
<path d="M25.2626 6.75467C25.2725 6.78778 25.2838 6.82089 25.2938 6.854C25.2838 6.82089 25.2739 6.78778 25.2626 6.75467Z" fill="#9C9C9C"/>
<path d="M25.4327 7.45415C25.4171 7.36447 25.4001 7.27342 25.3802 7.18512C25.4001 7.2748 25.4185 7.36447 25.4327 7.45415Z" fill="#9C9C9C"/>
<path d="M25.2924 6.85263C25.3236 6.9561 25.3519 7.05957 25.376 7.16581C25.3519 7.06095 25.3236 6.95748 25.2924 6.85263Z" fill="#9C9C9C"/>
<path d="M25.4328 7.45414C22.5418 8.07222 20.4165 8.96483 19.9359 9.17454C19.3432 8.66959 15.9036 5.74892 15.0487 5.12257C14.595 4.79008 14.31 4.63694 14.0675 4.5652C13.8464 4.50174 13.5132 4.43276 12.9914 4.59417C12.4994 4.74593 12.0089 5.12809 11.5155 5.51025C11.0604 5.86205 10.5911 6.22489 10.2238 6.30491C9.6071 6.43874 8.99743 6.29939 8.80036 6.05382C8.71954 5.95449 8.84431 5.82756 8.8514 5.81515L9.9417 4.67143C10.8037 3.834 11.6176 3.04209 13.4962 3.0007C14.7609 2.97035 16.0426 3.56221 16.0539 3.56497C18.4217 4.69075 20.8419 4.26858 22.8226 3.45874C23.0707 3.65465 23.3032 3.85883 23.5215 4.06854C21.2998 1.91632 17.4207 0.488403 13.0028 0.488403C6.09942 0.488403 0.503296 3.97196 0.503296 8.2695C0.503296 12.567 6.09942 16.0506 13.0013 16.0506C19.9033 16.0506 25.5008 12.5657 25.5008 8.2695C25.5008 7.99358 25.4767 7.72179 25.4328 7.45414ZM12.0401 13.61C11.4517 13.61 10.9668 13.1589 10.9455 12.5905C10.9413 12.4856 10.9186 12.4732 10.8406 12.5422C10.662 12.7036 10.3897 12.8899 9.93036 12.7064C9.32495 12.4677 9.28667 12.0483 9.31644 11.8524C9.32637 11.7889 9.31644 11.7696 9.24697 11.8165C9.01445 11.9752 8.73514 12.0676 8.40621 11.9434C7.58529 11.633 7.65193 10.8701 7.68879 10.6604C7.69163 10.6438 7.68879 10.6369 7.68454 10.6314C7.52858 10.7777 7.3159 10.8687 7.08196 10.8673C6.59991 10.8673 6.21001 10.4879 6.21001 10.0189C6.21001 9.5498 6.60133 9.1704 7.08338 9.1704C7.52716 9.1704 7.8887 9.49461 7.94258 9.91126C8.06593 9.72777 8.54799 9.21731 9.30085 9.44081C9.82686 9.5967 9.90625 10.063 9.9176 10.2355C9.92185 10.2782 9.93603 10.281 9.97006 10.2479C10.0977 10.1182 10.4691 9.83124 11.0788 10.0865C11.8742 10.419 11.5481 11.375 11.5254 11.4302C11.5013 11.4868 11.4659 11.5834 11.4857 11.5958C11.5226 11.6165 11.792 11.473 12.0401 11.4758C12.6455 11.4827 13.136 11.9545 13.136 12.545C13.136 13.1354 12.6441 13.6114 12.0387 13.6114L12.0401 13.61ZM19.709 10.6839C19.1221 11.0495 18.6443 10.7197 18.6258 10.7059C18.6258 10.7059 17.2463 9.4753 16.7373 9.06141C16.665 9.00208 16.5558 8.91655 16.5062 8.97587C16.4466 9.04623 16.6168 9.18695 16.6168 9.18695L18.2161 10.7501C18.2161 10.7501 18.4387 10.9487 18.4642 11.226C18.4727 11.4371 18.4018 11.7144 18.0488 11.9407C17.4646 12.3146 17.0237 12.0483 16.9244 11.9793C16.4225 11.5006 15.8994 10.9874 15.5279 10.688C15.4556 10.6287 15.3464 10.5486 15.2954 10.6011C15.2387 10.6618 15.406 10.8135 15.406 10.8135L16.5757 12.0925C16.5757 12.0925 16.8606 12.4153 16.604 12.7354C16.6083 12.734 16.6125 12.7298 16.6154 12.7271C16.5643 12.7892 16.5019 12.8512 16.441 12.9009C16.1971 13.0954 15.8455 13.1148 15.647 13.0803C15.4173 13.0403 15.3762 12.9616 15.3663 12.9533C15.3663 12.9533 14.7424 12.3284 14.2334 11.9131C14.1611 11.8552 14.059 11.7682 14.0009 11.8276C13.947 11.8869 14.1129 12.0386 14.1129 12.0386L15.1139 13.123C15.1493 13.1644 15.1125 13.221 15.077 13.2693C15.026 13.3396 14.8828 13.4652 14.5042 13.5121C14.0321 13.57 13.4933 13.3079 13.2821 13.1934C13.3884 12.9989 13.4508 12.7795 13.4508 12.545C13.4508 11.7876 12.8185 11.175 12.0429 11.1736C11.9933 11.1736 11.9479 11.175 11.9011 11.1819C11.9607 10.7101 11.8572 10.0823 11.2036 9.80917C11.0036 9.72501 10.8037 9.68224 10.6123 9.68224C10.4181 9.68224 10.2522 9.72501 10.1175 9.78571C10.0098 9.5498 9.80417 9.28905 9.40293 9.1566C9.22996 9.09866 9.0584 9.07107 8.89393 9.07107C8.53097 9.07107 8.25025 9.20351 8.0475 9.35941C7.83199 9.06279 7.47754 8.87102 7.08338 8.86964C6.73318 8.86964 6.41984 9.01864 6.20292 9.25456C6.00159 9.089 4.89427 8.29709 1.33981 7.52726C1.18668 7.49415 0.82514 7.39068 0.599707 7.33274C0.90312 5.76686 1.9523 4.34308 3.52325 3.20489C4.83331 3.80089 5.71094 4.05888 6.7105 4.32653C6.87638 4.37067 7.74692 4.50864 7.90997 4.50864C8.29987 4.50864 8.68552 4.40517 9.08534 4.2948C9.40718 4.20926 9.73612 4.11958 10.092 4.07406C9.95871 4.19684 9.82969 4.32239 9.70209 4.44793L8.59619 5.60958C8.56217 5.64545 8.34666 5.85515 8.46292 6.12004C8.50687 6.218 8.59619 6.31595 8.7238 6.39873C9.03997 6.60705 9.73328 6.75329 10.299 6.62912C10.7428 6.53117 11.2206 6.16281 11.7281 5.76824C12.2173 5.3916 12.7702 5.0329 13.1899 4.92115C13.3459 4.87838 13.5642 4.85079 13.7244 4.8701C14.0307 4.90873 14.3228 5.0053 14.8473 5.38884C15.7547 6.05244 19.7572 9.4615 19.7984 9.49599C19.7984 9.49599 20.0876 9.73191 20.0663 10.1306C20.055 10.3596 19.9203 10.5569 19.709 10.688V10.6839Z" fill="#9C9C9C"/>
<path d="M25.0302 6.14764C25.0727 6.24146 25.1124 6.33665 25.1492 6.43323C25.1124 6.33803 25.0727 6.24284 25.0302 6.14764Z" fill="#9C9C9C"/>
<path d="M24.887 5.85928C24.9182 5.91999 24.9493 5.98069 24.9777 6.04277C24.9479 5.98207 24.9182 5.91999 24.887 5.85928Z" fill="#9C9C9C"/>
<path d="M25.1492 6.43323C25.1619 6.46772 25.1747 6.50221 25.1874 6.5367C25.1747 6.50221 25.1633 6.46772 25.1492 6.43323Z" fill="#9C9C9C"/>
<path d="M25.1875 6.53668C25.2144 6.60842 25.2385 6.68154 25.2626 6.75466C25.24 6.68154 25.2144 6.60842 25.1875 6.53668Z" fill="#9C9C9C"/>
<path d="M13 0C5.82014 0 0 3.71534 0 8.27363C0 8.39089 0 8.71787 0 8.75925C0 13.5935 5.08571 17.5102 12.9985 17.5102C20.9114 17.5102 26.0013 13.5948 26.0013 8.75925V8.27363C25.9999 3.71534 20.1798 0 13 0ZM25.4158 7.35617C22.5901 7.96735 20.4818 8.85445 19.9529 9.08485C18.7208 8.03633 15.871 5.62612 15.0983 5.06185C14.6574 4.73902 14.3568 4.56795 14.0931 4.49207C13.974 4.45758 13.8095 4.41757 13.5983 4.41757C13.4026 4.41757 13.1928 4.45206 12.9702 4.51966C12.4711 4.6728 11.9749 5.05771 11.4928 5.42883L11.4687 5.44815C11.0207 5.79444 10.5585 6.15314 10.2083 6.22902C10.0552 6.26213 9.89778 6.28006 9.74182 6.28006C9.34908 6.28006 8.99746 6.16969 8.86561 6.00552C8.84292 5.97931 8.8571 5.93516 8.90814 5.87169L8.91523 5.86342L9.99986 4.72522C10.8491 3.89883 11.6516 3.11796 13.5004 3.07657C13.5316 3.07657 13.5628 3.07519 13.5926 3.07519C14.7425 3.07657 15.8923 3.57737 16.0213 3.63532C17.1003 4.14854 18.2119 4.40791 19.3319 4.40929C20.496 4.40929 21.6968 4.12922 22.9587 3.56496C24.2759 4.64383 25.1521 5.94206 25.4172 7.35755L25.4158 7.35617ZM13.0028 0.488388C16.8139 0.488388 20.2266 1.5507 22.5192 3.22419C21.4104 3.69188 20.3542 3.9278 19.3348 3.9278C18.2913 3.92642 17.2492 3.68223 16.2383 3.20212C16.1844 3.17866 14.9154 2.59508 13.594 2.59508C13.56 2.59508 13.5246 2.59508 13.4905 2.59508C11.938 2.63095 11.0646 3.16762 10.4762 3.6367C9.90345 3.65049 9.41147 3.7857 8.97194 3.90435C8.57921 4.0092 8.24177 4.10163 7.91283 4.10163C7.77672 4.10163 7.53286 4.0906 7.51017 4.08922C7.13162 4.07818 5.23033 3.62428 3.71184 3.06553C5.99878 1.4831 9.31364 0.488388 13.0028 0.488388ZM3.25956 3.39526C4.8461 4.02575 6.77007 4.51414 7.37973 4.55139C7.54846 4.56381 7.72994 4.58174 7.91142 4.58174C8.31408 4.58174 8.71674 4.47137 9.10664 4.36652C9.33632 4.30306 9.59011 4.23408 9.85666 4.18441C9.78577 4.25339 9.71488 4.32237 9.64257 4.39273L8.53951 5.553C8.45444 5.63854 8.26445 5.86618 8.38922 6.14624C8.43884 6.25937 8.53809 6.36698 8.67987 6.45942C8.94217 6.63187 9.41288 6.74776 9.84957 6.74776C10.0155 6.74776 10.1728 6.73258 10.316 6.69947C10.7782 6.60014 11.2617 6.2235 11.775 5.82617C12.1847 5.50885 12.7646 5.10876 13.2098 4.99011C13.3346 4.957 13.4877 4.93769 13.611 4.93769C13.6479 4.93769 13.6819 4.93769 13.7131 4.94183C14.0066 4.97908 14.293 5.07565 14.7992 5.44677C15.7037 6.10761 19.7077 9.51667 19.7473 9.54978C19.7502 9.55116 20.0054 9.765 19.987 10.1223C19.977 10.321 19.8636 10.4962 19.668 10.619C19.4964 10.7238 19.3192 10.7776 19.1434 10.7776C18.8754 10.7776 18.6911 10.6549 18.6797 10.6466C18.6641 10.6355 17.2931 9.41182 16.7869 9.00069C16.7076 8.93585 16.6296 8.8779 16.5516 8.8779C16.5076 8.8779 16.4708 8.89446 16.4453 8.92619C16.3659 9.02138 16.4552 9.15383 16.5601 9.24074L18.1636 10.8066C18.1636 10.8066 18.3636 10.9887 18.3834 11.2302C18.3962 11.4895 18.2686 11.7061 18.0034 11.8758C17.8149 11.9972 17.6235 12.0579 17.4363 12.0579C17.1896 12.0579 17.0181 11.949 16.9784 11.9227L16.7487 11.7034C16.3276 11.3005 15.8937 10.8839 15.5776 10.6273C15.4996 10.5638 15.4173 10.5072 15.3379 10.5072C15.2982 10.5072 15.2628 10.5224 15.2373 10.55C15.2004 10.5886 15.1749 10.659 15.2656 10.7763C15.3025 10.8246 15.3464 10.8646 15.3464 10.8646L16.5161 12.1421C16.5261 12.1545 16.7558 12.4222 16.5417 12.6871L16.5005 12.7381C16.4651 12.7754 16.4282 12.8085 16.3928 12.8402C16.1929 13.0002 15.9263 13.0168 15.8214 13.0168C15.7647 13.0168 15.7094 13.0126 15.6626 13.003C15.5464 12.9837 15.4684 12.9519 15.4329 12.9092L15.4188 12.894C15.3535 12.8305 14.7651 12.2442 14.2774 11.8496C14.2136 11.7986 14.1328 11.731 14.0506 11.731C14.0094 11.731 13.9726 11.7475 13.9456 11.7765C13.8478 11.88 13.9924 12.0345 14.0548 12.0897L15.053 13.1589C15.053 13.1685 15.0388 13.192 15.0133 13.2251C14.9778 13.2734 14.8573 13.392 14.4958 13.4362C14.4518 13.4403 14.4079 13.4431 14.3625 13.4431C13.9882 13.4431 13.5912 13.2665 13.3856 13.1603C13.4806 12.9685 13.5288 12.7588 13.5288 12.5463C13.5288 11.7475 12.8624 11.0977 12.0415 11.0977C12.0245 11.0977 12.0061 11.0977 11.9876 11.0977C12.016 10.7335 11.9635 10.0423 11.2348 9.73879C11.0249 9.64911 10.8165 9.60635 10.6124 9.60635C10.4536 9.60635 10.3004 9.63256 10.1558 9.68636C10.0069 9.40078 9.756 9.19246 9.42848 9.08485C9.247 9.02414 9.06835 8.99241 8.89396 8.99241C8.59055 8.99241 8.31124 9.07795 8.06312 9.2504C7.82351 8.96206 7.46339 8.79099 7.08341 8.79099C6.75164 8.79099 6.43263 8.92067 6.19586 9.14831C5.88677 8.91653 4.65327 8.15636 1.35827 7.42791C1.20089 7.39342 0.842183 7.29409 0.615332 7.22925C0.924416 5.78892 1.86585 4.47413 3.25956 3.39526ZM9.37602 11.7448L9.33916 11.7144H9.30371C9.27394 11.7144 9.24275 11.7255 9.20305 11.753C9.03433 11.8676 8.87411 11.9227 8.70965 11.9227C8.61891 11.9227 8.52817 11.9062 8.43459 11.8717C7.67181 11.5834 7.73135 10.8811 7.76822 10.67C7.77247 10.6273 7.76255 10.5942 7.73419 10.5721L7.68031 10.5279L7.63069 10.5762C7.48182 10.7169 7.28616 10.7928 7.08199 10.7928C6.64531 10.7928 6.28802 10.4465 6.28802 10.0202C6.28802 9.59393 6.64531 9.24902 7.08199 9.24902C7.47756 9.24902 7.81501 9.53736 7.86463 9.92366L7.89157 10.1306L8.00783 9.95539C8.02201 9.9347 8.34243 9.46286 8.93224 9.46286C9.04283 9.46286 9.15909 9.48218 9.27536 9.51667C9.74607 9.65601 9.82547 10.0699 9.83823 10.2437C9.84674 10.3444 9.92046 10.3486 9.93464 10.3486C9.97434 10.3486 10.0055 10.3238 10.0268 10.3017C10.1147 10.2106 10.3075 10.0616 10.6109 10.0616C10.7499 10.0616 10.8959 10.0934 11.0476 10.1568C11.7948 10.4686 11.456 11.393 11.4517 11.4012C11.3879 11.5544 11.3865 11.622 11.446 11.6606L11.4758 11.6744H11.4971C11.5311 11.6744 11.5722 11.6606 11.6417 11.6372C11.7424 11.6027 11.8969 11.5516 12.0401 11.5516C12.6016 11.5585 13.0595 12.0028 13.0595 12.5436C13.0595 13.0885 12.6016 13.5328 12.0401 13.5328C11.4786 13.5328 11.0434 13.1161 11.0235 12.5877C11.0221 12.5422 11.0164 12.4208 10.9129 12.4208C10.869 12.4208 10.8307 12.4456 10.7896 12.4829C10.6677 12.5932 10.5145 12.7036 10.2905 12.7036C10.1884 12.7036 10.0778 12.6802 9.96158 12.6346C9.38169 12.4056 9.37319 12.0179 9.39729 11.862C9.40296 11.8206 9.4058 11.7779 9.37602 11.7448ZM13.0028 16.0506C6.09945 16.0506 0.503325 12.567 0.503325 8.26949C0.503325 8.09565 0.51325 7.92458 0.531681 7.75351C0.60399 7.77006 1.13851 7.89561 1.25051 7.92044C4.61641 8.64888 5.73081 9.40492 5.91797 9.54702C5.85417 9.69602 5.82155 9.85744 5.82014 10.0189C5.82014 10.6963 6.38585 11.2467 7.08199 11.2481C7.15997 11.2481 7.23654 11.2412 7.3131 11.2274C7.41802 11.7255 7.75262 12.1035 8.26445 12.2966C8.41332 12.3532 8.56503 12.3822 8.7139 12.3822C8.81031 12.3822 8.90531 12.3711 9.00172 12.3477C9.09671 12.5808 9.30938 12.8719 9.78435 13.0596C9.95165 13.1244 10.1175 13.1575 10.2806 13.1575C10.4139 13.1575 10.5429 13.1354 10.6662 13.0913C10.8945 13.6321 11.4361 13.9894 12.0415 13.9894C12.4413 13.9894 12.827 13.8321 13.1077 13.5507C13.3473 13.6804 13.8549 13.9149 14.3667 13.9149C14.4334 13.9149 14.4958 13.9122 14.5581 13.9039C15.0671 13.8404 15.3025 13.6473 15.4117 13.4969C15.4315 13.4707 15.4485 13.4417 15.4641 13.4141C15.5846 13.4472 15.7165 13.4748 15.8682 13.4748C16.1461 13.4748 16.4126 13.3838 16.682 13.192C16.9457 13.0057 17.1343 12.7395 17.1613 12.5132C17.1613 12.5105 17.1627 12.5063 17.1627 12.5022C17.252 12.5201 17.3442 12.5284 17.4335 12.5284C17.7213 12.5284 18.002 12.4429 18.27 12.2704C18.7889 11.9393 18.8782 11.5075 18.8711 11.2246C18.9619 11.2412 19.054 11.2522 19.1462 11.2522C19.4142 11.2522 19.6779 11.1736 19.9288 11.0177C20.2521 10.8177 20.4435 10.5114 20.4733 10.1554C20.4945 9.914 20.4322 9.66981 20.3003 9.45872C21.168 9.0945 23.1501 8.39227 25.4853 7.87905C25.4952 8.00736 25.5008 8.13704 25.5008 8.26673C25.5008 12.5629 19.9061 16.0478 13.0014 16.0478L13.0028 16.0506Z" fill="#353535"/>
<path d="M69.1342 6.28421C68.9059 6.57807 68.5812 6.72569 68.1545 6.72569C67.7277 6.72569 67.4016 6.57807 67.1733 6.28421C66.9437 5.99035 66.8288 5.57232 66.8288 5.03013C66.8288 4.48793 66.9422 4.07128 67.1733 3.7788C67.403 3.48632 67.7306 3.34008 68.1545 3.34008C68.5812 3.34008 68.9059 3.48632 69.1342 3.7788C69.361 4.07128 69.4759 4.48793 69.4759 5.03013C69.4759 5.57232 69.361 5.99035 69.1342 6.28421ZM70.2968 3.00207C69.8261 2.43091 69.1143 2.14532 68.1601 2.14532C67.206 2.14532 66.4928 2.43091 66.0235 3.00207C65.5528 3.57462 65.3188 4.25064 65.3188 5.03013C65.3188 5.80962 65.5528 6.50357 66.0235 7.06646C66.4928 7.62934 67.206 7.91079 68.1601 7.91079C69.1143 7.91079 69.8275 7.62796 70.2968 7.06646C70.7661 6.50219 71 5.82479 71 5.03013C71 4.23546 70.7661 3.57462 70.2968 3.00207Z" fill="#777777"/>
<path d="M57.5648 5.61647C57.5549 6.09106 57.4159 6.41803 57.1465 6.59738C56.8786 6.77674 56.5851 6.86779 56.2675 6.86779C56.0662 6.86779 55.896 6.81261 55.7557 6.705C55.6153 6.596 55.5458 6.42217 55.5458 6.17936C55.5458 5.90895 55.6607 5.70752 55.8904 5.57784C56.0265 5.50196 56.2491 5.43712 56.561 5.38607L56.8927 5.32537C57.0572 5.29502 57.1876 5.2619 57.2826 5.22741C57.3791 5.1943 57.4712 5.14878 57.5648 5.09083V5.61923V5.61647ZM58.3049 2.52472C57.8299 2.28881 57.2855 2.17154 56.673 2.17154C55.7301 2.17154 55.0652 2.41021 54.6781 2.88757C54.4343 3.19384 54.2981 3.58428 54.2669 4.05887H55.6748C55.7089 3.84779 55.7798 3.68223 55.8818 3.56082C56.0279 3.39389 56.2746 3.31111 56.6234 3.31111C56.9339 3.31111 57.1706 3.35388 57.3323 3.43942C57.4911 3.52219 57.5719 3.67671 57.5719 3.89883C57.5719 4.08094 57.467 4.21477 57.2585 4.30168C57.1409 4.35273 56.9466 4.39412 56.6758 4.42723L56.1767 4.48517C55.6096 4.55554 55.18 4.6728 54.888 4.8356C54.3549 5.1336 54.0897 5.61647 54.0897 6.28283C54.0897 6.79605 54.2542 7.19338 54.586 7.47483C54.9163 7.75489 55.336 7.87354 55.8436 7.89561C59.0266 8.03496 58.9911 6.26351 59.0195 5.89515V3.85744C59.0195 3.2035 58.7799 2.75926 58.3049 2.52334" fill="#777777"/>
<path d="M51.047 3.38422C51.4114 3.38422 51.678 3.49321 51.8509 3.71257C51.9686 3.87399 52.0438 4.0561 52.0721 4.25753H53.6431C53.5566 3.48632 53.2801 2.94964 52.8108 2.64474C52.3401 2.33985 51.7403 2.18671 51.0045 2.18671C50.1396 2.18671 49.4619 2.44608 48.9699 2.96206C48.478 3.47942 48.2327 4.20096 48.2327 5.12807C48.2327 5.95033 48.4553 6.61945 48.899 7.13681C49.3442 7.65279 50.039 7.9094 50.9818 7.9094C51.9247 7.9094 52.6392 7.60036 53.1185 6.98229C53.4205 6.59738 53.5892 6.19176 53.6246 5.75994H52.0594C52.0282 6.04552 51.936 6.2773 51.7843 6.45527C51.634 6.63187 51.3788 6.72292 51.0187 6.72292C50.5125 6.72292 50.1666 6.49804 49.9837 6.0469C49.883 5.80685 49.832 5.48815 49.832 5.0922C49.832 4.69625 49.8816 4.34444 49.9837 4.09059C50.1737 3.61876 50.5281 3.38146 51.0442 3.38146" fill="#777777"/>
<path d="M47.8117 2.18808C44.5875 2.18808 44.7761 4.96665 44.7761 4.96665V7.78937H46.2393V5.14186C46.2393 4.70866 46.2974 4.38721 46.408 4.1775C46.6094 3.80776 47.0021 3.62151 47.5876 3.62151C47.6316 3.62151 47.6897 3.62427 47.7606 3.62841C47.8329 3.63117 47.9137 3.63807 48.0059 3.64773V2.2005C47.9407 2.19636 47.8981 2.1936 47.8797 2.19222C47.8627 2.19222 47.8386 2.18946 47.8102 2.18946" fill="#777777"/>
<path d="M40.4673 3.6629C40.6729 3.45734 40.9621 3.35524 41.335 3.35524C41.6767 3.35524 41.9645 3.45044 42.197 3.64635C42.4267 3.84225 42.5571 4.12646 42.5826 4.50034H40.0788C40.1312 4.14853 40.2617 3.86985 40.4658 3.6629M42.4324 6.31455C42.37 6.40008 42.3062 6.4732 42.2324 6.52977C42.0254 6.69532 41.7447 6.74637 41.4144 6.74637C41.084 6.74637 40.8557 6.70084 40.636 6.56426C40.2716 6.34628 40.0646 5.97654 40.0419 5.43434H44.0926C44.0969 4.96665 44.0827 4.60795 44.043 4.36099C43.9764 3.93745 43.8275 3.56357 43.6006 3.24212C43.3483 2.87789 43.0264 2.61025 42.6394 2.44055C42.2509 2.27224 41.8156 2.18808 41.3336 2.18808C40.5183 2.18808 39.8548 2.43779 39.3444 2.93722C38.8354 3.43802 38.5787 4.15681 38.5787 5.09357C38.5787 6.0938 38.8623 6.81673 39.428 7.25959C39.9937 7.70383 40.6473 7.92595 41.3874 7.92595C42.2835 7.92595 42.9811 7.66244 43.4787 7.1368C43.7481 6.86088 43.9154 6.58633 43.9877 6.31592H42.4352L42.4324 6.31455Z" fill="#777777"/>
<path d="M37.9932 7.78939H36.6562V4.51415C36.6562 4.21615 36.5541 3.50427 35.6722 3.50427C35.0838 3.50427 34.6585 3.91677 34.6585 4.51415V7.78939H33.3215V4.51415C33.3215 4.21615 33.2293 3.50427 32.3489 3.50427C31.7505 3.50427 31.3337 3.91677 31.3337 4.51415V7.78939H29.9967V4.54588C29.9967 3.19247 30.9197 2.17017 32.3489 2.17017C33.0578 2.17017 33.6348 2.45989 34.0105 2.92482C34.4061 2.46127 34.9931 2.17017 35.6722 2.17017C37.1312 2.17017 37.9918 3.1497 37.9918 4.54588V7.78939H37.9932Z" fill="#777777"/>
<path d="M63.1268 6.29525C62.9128 6.59325 62.5994 6.74225 62.1883 6.74225C61.7771 6.74225 61.4694 6.59187 61.2667 6.29387C61.0653 5.99449 60.9647 5.55853 60.9647 5.0591C60.9647 4.59555 61.0625 4.20787 61.261 3.8947C61.4609 3.5829 61.7714 3.42562 62.1968 3.42562C62.4761 3.42562 62.7199 3.51116 62.9312 3.68361C63.2729 3.96644 63.4459 4.47828 63.4459 5.1405C63.4459 5.61371 63.3381 5.99863 63.124 6.29663M64.8778 0.47874C64.8778 0.47874 63.4047 0.325601 63.4047 1.47759V3.00346C63.2389 2.74685 63.0276 2.54818 62.7667 2.4047C62.5044 2.25984 62.2067 2.1881 61.8692 2.1881C61.1362 2.1881 60.5549 2.45299 60.1182 2.98138C59.6801 3.51254 59.4618 4.27547 59.4618 5.19845C59.4618 5.99863 59.6844 6.65533 60.1282 7.16717C60.5734 7.67764 61.4425 7.90251 62.2152 7.90251C64.9105 7.90251 64.8778 5.65372 64.8778 5.65372V0.47874Z" fill="#777777"/>
<path d="M33.9114 12.974C33.9114 12.436 33.8036 12.0248 33.5881 11.7351C33.3726 11.4468 33.0649 11.3005 32.6623 11.3005C32.2596 11.3005 31.9732 11.4454 31.7591 11.7351C31.5578 11.9972 31.4585 12.4111 31.4585 12.974C31.4585 13.4997 31.5649 13.8901 31.7818 14.1508C31.9959 14.4419 32.305 14.5868 32.7062 14.5868C33.0791 14.5868 33.3726 14.4419 33.5881 14.1508C33.805 13.8625 33.9114 13.4721 33.9114 12.974ZM31.4585 16.8273C31.4585 17.0287 31.3806 17.2012 31.2232 17.3405C31.0842 17.4675 30.8943 17.5309 30.7029 17.5309H29.9954V12.5822C29.9954 11.6192 30.3285 11.0177 30.8772 10.6093C31.2742 10.3155 31.8825 10.0368 33.0876 10.0906C33.7086 10.1182 34.3084 10.3817 34.7039 10.848C35.1917 11.4275 35.3958 12.0704 35.3958 12.9133C35.3958 13.7563 35.1803 14.4806 34.7507 15.02C34.3211 15.5429 33.7682 15.805 33.0933 15.805C32.7346 15.805 32.4184 15.7429 32.1476 15.6188C31.8598 15.4808 31.6329 15.267 31.4585 14.9772V16.8259V16.8273Z" fill="#ACACAB"/>
<path d="M42.6819 12.9754C42.6819 13.9232 42.964 14.4502 43.5283 14.5537C44.0912 14.6558 44.5066 14.5289 44.776 14.1715C44.9022 14.0225 44.9944 13.7825 45.0511 13.461C45.1078 13.1382 45.1106 12.8181 45.0624 12.5008C45.0128 12.1835 44.8965 11.9021 44.7136 11.6537C44.5307 11.4054 44.2628 11.2812 43.9111 11.2812C43.4319 11.2812 43.1087 11.4551 42.9399 11.7986C42.7684 12.1421 42.6847 12.5339 42.6847 12.9754M45.0936 15.3484V14.9993C44.8398 15.3856 44.4981 15.6257 44.0685 15.7222C43.6389 15.8174 43.2122 15.7843 42.7897 15.6174C42.3671 15.4532 42.0042 15.1469 41.7008 14.6999C41.3974 14.2502 41.2471 13.6625 41.2471 12.934C41.2471 12.0814 41.4484 11.3888 41.8482 10.8604C42.2509 10.3307 42.896 10.0892 43.7821 10.0658C44.6569 10.0437 45.1645 10.2355 45.6621 10.6024C46.2066 11.0039 46.5284 11.6206 46.5284 12.5836V15.496C46.5299 16.4217 45.8663 18.1407 43.7821 17.9931C42.4905 17.9007 41.7731 17.3861 41.3733 16.2175H42.9158C43.0293 16.4093 43.2008 16.5569 43.4348 16.6604C43.6673 16.7652 43.8998 16.7901 44.1309 16.7432C44.3634 16.6949 44.5747 16.5597 44.7661 16.3403C44.9561 16.1196 45.0638 15.7885 45.0922 15.3484" fill="#ACACAB"/>
<path d="M39.2551 13.5493C39.2466 14.0253 39.1063 14.3509 38.8383 14.5302C38.5703 14.7096 38.2768 14.8007 37.9592 14.8007C37.7579 14.8007 37.5864 14.7455 37.446 14.6379C37.307 14.5302 37.2362 14.355 37.2362 14.1122C37.2362 13.8418 37.351 13.6404 37.5807 13.5107C37.7168 13.4348 37.9394 13.37 38.2499 13.3189L38.5817 13.2582C38.7475 13.2279 38.878 13.1961 38.9716 13.1603C39.068 13.1272 39.1601 13.0816 39.2537 13.0237V13.5521L39.2551 13.5493ZM39.9952 10.4576C39.5203 10.223 38.9744 10.1044 38.3619 10.1044C37.4191 10.1044 36.7555 10.3431 36.367 10.8218C36.1246 11.1267 35.9885 11.5171 35.9573 11.9917H37.3652C37.3992 11.7806 37.4701 11.6151 37.5722 11.4937C37.7182 11.3281 37.9649 11.244 38.3123 11.244C38.6256 11.244 38.861 11.2867 39.0212 11.3723C39.18 11.4551 39.2622 11.6096 39.2622 11.8317C39.2622 12.0138 39.1573 12.149 38.9489 12.2359C38.8312 12.2856 38.637 12.327 38.3647 12.3601L37.8657 12.418C37.2985 12.4884 36.8675 12.6057 36.5769 12.7685C36.0424 13.0665 35.7772 13.5493 35.7772 14.2157C35.7772 14.7289 35.9431 15.1262 36.2735 15.4077C36.6038 15.6891 37.0235 15.8064 37.5325 15.8299C40.7141 15.9692 40.6786 14.1978 40.7084 13.8294V11.7917C40.7084 11.1377 40.4702 10.6935 39.9938 10.4576" fill="#ACACAB"/>
<path d="M50.901 14.1867C50.6742 14.4819 50.3481 14.6282 49.9227 14.6282C49.4974 14.6282 49.1699 14.4806 48.9416 14.1867C48.7105 13.8928 48.5971 13.4762 48.5971 12.9326C48.5971 12.389 48.7105 11.9738 48.9416 11.6827C49.1713 11.3888 49.4988 11.244 49.9227 11.244C50.3481 11.244 50.6742 11.3888 50.901 11.6827C51.1279 11.9738 51.2427 12.3918 51.2427 12.9326C51.2427 13.4734 51.1279 13.8928 50.901 14.1867ZM52.0651 10.9059C51.5943 10.3334 50.8826 10.0478 49.927 10.0478C48.9714 10.0478 48.2596 10.3334 47.7903 10.9059C47.3196 11.4785 47.0857 12.1545 47.0857 12.9326C47.0857 13.7107 47.3196 14.4061 47.7903 14.969C48.2596 15.5318 48.9728 15.8133 49.927 15.8133C50.8812 15.8133 51.5943 15.5305 52.0651 14.969C52.5329 14.4047 52.7669 13.7273 52.7669 12.9326C52.7669 12.138 52.5329 11.4785 52.0651 10.9059Z" fill="#ACACAB"/>
</g>
<defs>
<clipPath id="clip0_898_417">
<rect width="71" height="18" fill="white"/>
</clipPath>
</defs>
</svg>
