<svg width="82" height="19" viewBox="0 0 82 19" fill="none" xmlns="http://www.w3.org/2000/svg">
<path d="M11.8687 6.52592H10.5658V4.51174C10.5658 2.02338 8.54239 0 6.05633 0C3.57026 0 1.54458 2.02338 1.54458 4.51174V6.52592H0.244002C0.110492 6.52592 0 6.63411 0 6.76992V12.8654C0 16.2101 2.71165 18.9217 6.05633 18.9217C9.401 18.9217 12.1127 16.2101 12.1127 12.8654V6.76992C12.1127 6.63641 12.0045 6.52592 11.8687 6.52592ZM3.15592 4.51174C3.15592 2.91192 4.4565 1.61134 6.05633 1.61134C7.65615 1.61134 8.95673 2.91192 8.95673 4.51174V6.52592H3.15592V4.51174ZM9.29742 10.7016L6.23818 14.5158C6.13919 14.6402 5.99187 14.7184 5.83304 14.7299C5.81923 14.7299 5.80542 14.7299 5.7893 14.7299C5.64428 14.7299 5.50617 14.6747 5.39798 14.578L3.33317 12.672C3.10067 12.4556 3.08456 12.0919 3.30094 11.8594C3.51732 11.6246 3.88102 11.6108 4.11351 11.8272L5.72485 13.3143L8.39967 9.98108C8.59764 9.73248 8.96134 9.69335 9.20764 9.89131C9.45625 10.0893 9.49538 10.453 9.29742 10.6993V10.7016Z" fill="#ACACAB"/>
<path d="M18.6155 5.83538V8.1465H17.0226V1.55843H19.6031C20.3857 1.55843 20.9819 1.7541 21.3916 2.14542C21.8014 2.52984 22.0063 3.05237 22.0063 3.71072C22.0063 4.12046 21.9142 4.48646 21.7277 4.81103C21.5482 5.1287 21.2765 5.3796 20.9175 5.56606C20.5561 5.74561 20.1187 5.83538 19.6031 5.83538H18.6155ZM19.4258 4.55782C20.0657 4.55782 20.3857 4.27469 20.3857 3.71072C20.3857 3.14675 20.0657 2.8452 19.4258 2.8452H18.6155V4.56012H19.4258V4.55782ZM26.8725 6.9426H24.4025L23.9928 8.1442H22.3147L24.7271 1.60217H26.5617L28.9741 8.1442H27.2776L26.8679 6.9426H26.8725ZM26.4628 5.7318L25.6433 3.31019L24.8146 5.7318H26.4651H26.4628ZM32.6825 1.49168C33.5089 1.49168 34.188 1.69425 34.7243 2.09708C35.2607 2.49991 35.5898 3.04777 35.721 3.73604H34.0337C33.9209 3.49894 33.7506 3.31249 33.5204 3.17668C33.2902 3.03396 33.014 2.9626 32.6917 2.9626C32.1876 2.9626 31.7848 3.13294 31.4809 3.47592C31.1771 3.812 31.0251 4.26778 31.0251 4.84556C31.0251 5.47398 31.184 5.95508 31.4993 6.28886C31.8216 6.62494 32.2797 6.79298 32.869 6.79298C33.2488 6.79298 33.5803 6.68939 33.8657 6.48452C34.1511 6.27275 34.3537 5.9758 34.4711 5.58908H32.4592V4.44273H35.8039V6.01723C35.6796 6.40165 35.4816 6.75845 35.2077 7.08992C34.9338 7.4191 34.5839 7.68612 34.1557 7.89099C33.7322 8.09586 33.2488 8.19944 32.7032 8.19944C32.038 8.19944 31.4579 8.05903 30.9607 7.7805C30.4635 7.49506 30.0791 7.09683 29.8051 6.58811C29.5381 6.07938 29.4046 5.497 29.4046 4.84556C29.4046 4.19412 29.5381 3.61174 29.8051 3.10301C30.0791 2.59429 30.4612 2.19836 30.9515 1.91983C31.4487 1.6344 32.0265 1.49168 32.6848 1.49168H32.6825ZM40.7783 6.9426H38.3084L37.8986 8.1442H36.2206L38.633 1.60217H40.4676L42.88 8.1442H41.1835L40.7737 6.9426H40.7783ZM40.3686 5.7318L39.5491 3.31019L38.7204 5.7318H40.3709H40.3686ZM50.9113 1.60447V8.1465H49.3184V4.05601L47.9027 8.1465H46.5239L45.099 4.0468V8.1465H43.5061V1.60447H45.4535L47.2329 6.15995L48.9754 1.60447H50.9136H50.9113ZM53.6046 2.82448V4.20333H55.8305V5.40493H53.6046V6.86894H56.1114V8.1465H52.0117V1.55843H56.1114V2.82679H53.6046V2.82448ZM62.8675 8.1442H61.2745L58.6089 4.09974V8.1442H57.016V1.55843H58.6089L61.2745 5.63972V1.55843H62.8675V8.1465V8.1442ZM68.7005 1.55613V2.82448H66.9119V8.1442H65.3098V2.82679H63.5396V1.55843H68.7028L68.7005 1.55613ZM72.5033 1.45255C73.1248 1.45255 73.6864 1.59757 74.1906 1.88991C74.6993 2.17535 75.0998 2.57588 75.3922 3.09151C75.6845 3.60023 75.8295 4.17801 75.8295 4.82484C75.8295 5.47168 75.6799 6.05176 75.383 6.56739C75.0906 7.08302 74.6901 7.48585 74.1814 7.77819C73.6772 8.06363 73.1202 8.20635 72.5033 8.20635C71.8863 8.20635 71.327 8.06363 70.816 7.77819C70.3118 7.48585 69.9113 7.08302 69.6144 6.56739C69.322 6.05176 69.177 5.47168 69.177 4.82484C69.177 4.17801 69.322 3.60023 69.6144 3.09151C69.9136 2.57588 70.3141 2.17535 70.816 1.88991C71.3247 1.59757 71.8887 1.45255 72.5033 1.45255ZM72.5033 2.93498C71.9807 2.93498 71.5641 3.10532 71.2556 3.4483C70.9518 3.78438 70.7999 4.24246 70.7999 4.82715C70.7999 5.41183 70.9518 5.86531 71.2556 6.20599C71.5664 6.54667 71.983 6.71932 72.5033 6.71932C73.0235 6.71932 73.4309 6.54897 73.7417 6.20599C74.0524 5.86531 74.2067 5.40492 74.2067 4.82715C74.2067 4.24937 74.0524 3.78898 73.7417 3.4483C73.4378 3.10762 73.0235 2.93498 72.5033 2.93498ZM81.4577 6.28886C81.4577 6.63645 81.3679 6.95641 81.1884 7.24875C81.0134 7.5411 80.7533 7.77359 80.4057 7.94854C80.065 8.12348 79.6484 8.20865 79.1581 8.20865C78.4192 8.20865 77.8092 8.0291 77.3327 7.6677C76.8539 7.3063 76.5938 6.80449 76.55 6.15765H78.2465C78.2718 6.40626 78.3593 6.60192 78.5066 6.74464C78.6609 6.88736 78.8565 6.95871 79.0936 6.95871C79.2985 6.95871 79.4596 6.90347 79.577 6.79068C79.6944 6.67788 79.7543 6.53056 79.7543 6.3441C79.7543 6.17606 79.699 6.03565 79.5862 5.92516C79.4804 5.81236 79.3468 5.72259 79.1857 5.65583C79.0246 5.58217 78.8013 5.4947 78.5158 5.39572C78.0992 5.253 77.7585 5.11719 77.4915 4.98598C77.2314 4.85016 77.0035 4.6499 76.8101 4.38978C76.6237 4.12276 76.5316 3.77747 76.5316 3.35623C76.5316 2.9649 76.6306 2.62652 76.8308 2.34108C77.0288 2.05565 77.3027 1.83696 77.6503 1.68964C78.0048 1.53541 78.4077 1.45715 78.8611 1.45715C79.5931 1.45715 80.1755 1.63209 80.6037 1.97968C81.0387 2.32727 81.285 2.80607 81.3403 3.41377H79.6162C79.5862 3.19739 79.5034 3.02475 79.3745 2.90045C79.2502 2.76924 79.0798 2.70478 78.8611 2.70478C78.6747 2.70478 78.5228 2.75543 78.4054 2.85441C78.2926 2.95339 78.2373 3.10071 78.2373 3.29177C78.2373 3.446 78.288 3.57951 78.3869 3.6923C78.4928 3.79819 78.624 3.88566 78.7783 3.95242C78.9325 4.02148 79.1581 4.10665 79.4481 4.21254C79.8717 4.35525 80.2147 4.49797 80.4817 4.64069C80.7487 4.7765 80.9789 4.97907 81.1723 5.24609C81.3656 5.51311 81.46 5.8607 81.46 6.28886H81.4577ZM21.3088 16.0351C21.3088 16.3459 21.2351 16.6336 21.0855 16.9007C20.9359 17.1677 20.7103 17.3841 20.4041 17.5521C20.098 17.7201 19.7228 17.803 19.2762 17.803C18.8296 17.803 18.4521 17.7247 18.1114 17.5705C17.7753 17.4094 17.506 17.1907 17.3011 16.9191C17.1032 16.6405 16.9881 16.3229 16.9559 15.9684H17.8605C17.8789 16.1548 17.9411 16.339 18.047 16.5185C18.1598 16.6935 18.314 16.8385 18.512 16.9559C18.7168 17.0687 18.9631 17.124 19.2486 17.124C19.6215 17.124 19.9069 17.025 20.1049 16.8247C20.3028 16.6244 20.4041 16.3712 20.4041 16.0605C20.4041 15.7934 20.3328 15.5771 20.19 15.409C20.0542 15.241 19.8816 15.1098 19.6767 15.0177C19.4719 14.9187 19.1933 14.8128 18.8388 14.7C18.4222 14.5642 18.0861 14.4353 17.8329 14.3179C17.5843 14.1936 17.3702 14.0095 17.1907 13.7678C17.0157 13.5261 16.9305 13.2061 16.9305 12.8079C16.9305 12.4672 17.0111 12.1656 17.1722 11.9032C17.3403 11.6431 17.5751 11.4405 17.8812 11.2978C18.192 11.1551 18.5557 11.0837 18.9723 11.0837C19.6192 11.0837 20.1302 11.2426 20.51 11.5579C20.8898 11.8687 21.1085 12.2669 21.1707 12.7503H20.2568C20.2062 12.4902 20.0726 12.26 19.8563 12.0597C19.6399 11.8618 19.3429 11.7605 18.97 11.7605C18.6294 11.7605 18.3554 11.8503 18.1506 12.0298C17.9457 12.2048 17.8421 12.4534 17.8421 12.7756C17.8421 13.0312 17.9066 13.2383 18.0378 13.3995C18.1736 13.5537 18.3416 13.678 18.5419 13.7724C18.7398 13.8598 19.0138 13.9588 19.3614 14.0716C19.7849 14.2074 20.1233 14.3386 20.3765 14.4629C20.6366 14.5872 20.8576 14.776 21.0371 15.0315C21.2167 15.2801 21.3065 15.6116 21.3065 16.0282L21.3088 16.0351ZM23.2976 11.8595V14.1061H25.7952V14.7576H23.2976V17.0503H26.0737V17.7409H22.4482V11.1712H26.0737V11.8618H23.2976V11.8595ZM30.1458 11.1045C30.91 11.1045 31.55 11.2932 32.0656 11.673C32.5881 12.0528 32.938 12.5685 33.1176 13.2199H32.2221C32.0679 12.8217 31.8055 12.5017 31.4395 12.26C31.0781 12.0183 30.6499 11.8963 30.1527 11.8963C29.7061 11.8963 29.3056 12.0022 28.9511 12.214C28.5966 12.4188 28.3181 12.7135 28.1132 13.1002C27.9153 13.4846 27.814 13.9381 27.814 14.4606C27.814 14.9832 27.9176 15.4574 28.1224 15.8487C28.3273 16.2331 28.6104 16.5324 28.9695 16.7441C29.3355 16.949 29.7545 17.0526 30.2264 17.0526C30.6292 17.0526 30.9998 16.9651 31.3359 16.7925C31.672 16.6175 31.9436 16.3666 32.1554 16.0374C32.3718 15.7014 32.503 15.31 32.5467 14.8635H29.9663V14.2304H33.2649V15.0131C33.2097 15.5356 33.0485 16.0075 32.7815 16.4288C32.5145 16.8523 32.1531 17.1861 31.6996 17.4347C31.2461 17.6833 30.7305 17.8076 30.1527 17.8076C29.5197 17.8076 28.9603 17.6672 28.4746 17.3887C27.9912 17.1032 27.6114 16.7073 27.3375 16.2055C27.0705 15.6968 26.9369 15.1144 26.9369 14.4629C26.9369 13.8115 27.0705 13.2337 27.3375 12.7296C27.6114 12.2209 27.9889 11.8226 28.4746 11.5372C28.9603 11.2518 29.5151 11.1091 30.1435 11.1091L30.1458 11.1045ZM35.2169 11.1689V15.1098C35.2169 15.7566 35.3596 16.2331 35.6451 16.5439C35.9305 16.8477 36.3264 16.9996 36.8283 16.9996C37.3301 16.9996 37.7145 16.8454 37.993 16.5347C38.2716 16.2239 38.412 15.7497 38.412 15.1098V11.1689H39.2591V15.1098C39.2591 16.0052 39.0358 16.6774 38.5892 17.1309C38.1472 17.5774 37.5557 17.8007 36.8098 17.8007C36.064 17.8007 35.477 17.5774 35.0305 17.1309C34.5885 16.6774 34.3698 16.0029 34.3698 15.1098V11.1689H35.2169ZM44.0609 17.7386L42.3459 15.0545H41.4229V17.7386H40.5758V11.1689H42.7373C43.4831 11.1689 44.0424 11.3485 44.4153 11.7099C44.7883 12.0644 44.9747 12.5362 44.9747 13.1255C44.9747 13.6596 44.8251 14.0923 44.5281 14.4215C44.2289 14.7438 43.7984 14.9463 43.2322 15.0269L45.0208 17.7386H44.0609ZM41.4229 14.4399H42.6613C43.6235 14.4399 44.1046 14.0164 44.1046 13.1716C44.1046 12.3268 43.6235 11.9032 42.6613 11.9032H41.4229V14.4376V14.4399ZM49.0169 11.086C49.6246 11.086 50.1724 11.2288 50.6558 11.5142C51.1461 11.7996 51.5329 12.2002 51.8114 12.7158C52.0899 13.2245 52.2303 13.8023 52.2303 14.4491C52.2303 15.096 52.0899 15.676 51.8114 16.1917C51.5329 16.7004 51.1461 17.0986 50.6558 17.3841C50.1724 17.6695 49.6246 17.8122 49.0169 17.8122C48.4092 17.8122 47.8544 17.6695 47.3572 17.3841C46.8669 17.0986 46.4802 16.7004 46.2016 16.1917C45.9231 15.676 45.7827 15.096 45.7827 14.4491C45.7827 13.8023 45.9231 13.2245 46.2016 12.7158C46.4802 12.2002 46.8669 11.7996 47.3572 11.5142C47.8544 11.2288 48.4069 11.086 49.0169 11.086ZM49.0169 11.8779C48.5634 11.8779 48.156 11.9838 47.7969 12.1956C47.4424 12.4004 47.1638 12.6997 46.959 13.091C46.761 13.4754 46.6597 13.9289 46.6597 14.4514C46.6597 14.974 46.7587 15.4205 46.959 15.8119C47.1638 16.2032 47.4424 16.5047 47.7969 16.7165C48.1583 16.9214 48.5634 17.025 49.0169 17.025C49.4703 17.025 49.864 16.9191 50.2185 16.7073C50.5799 16.4955 50.8584 16.1986 51.0564 15.8119C51.2612 15.4205 51.3648 14.9671 51.3648 14.4514C51.3648 13.9358 51.2612 13.4754 51.0564 13.091C50.8584 12.6997 50.5776 12.4004 50.2185 12.1956C49.864 11.9838 49.4634 11.8779 49.0169 11.8779ZM57.5339 16.0328C57.5339 16.3436 57.4603 16.6313 57.3107 16.8984C57.161 17.1654 56.9354 17.3818 56.6293 17.5498C56.3231 17.7178 55.9479 17.8007 55.5014 17.8007C55.0548 17.8007 54.6773 17.7224 54.3366 17.5682C54.0005 17.4071 53.7312 17.1884 53.5263 16.9168C53.3283 16.6382 53.2133 16.3206 53.181 15.9661H54.0857C54.1041 16.1525 54.1662 16.3367 54.2721 16.5162C54.3849 16.6912 54.5392 16.8362 54.7371 16.9536C54.942 17.0664 55.1883 17.1216 55.4737 17.1216C55.8466 17.1216 56.1321 17.0227 56.33 16.8224C56.528 16.6244 56.6293 16.3689 56.6293 16.0582C56.6293 15.7911 56.5579 15.5748 56.4152 15.4067C56.2794 15.2387 56.1068 15.1075 55.9019 15.0154C55.697 14.9164 55.4185 14.8105 55.064 14.6977C54.6473 14.5619 54.3113 14.433 54.0581 14.3156C53.8094 14.1913 53.5954 14.0072 53.4158 13.7655C53.2409 13.5238 53.1557 13.2038 53.1557 12.8056C53.1557 12.4649 53.2363 12.1633 53.3974 11.9009C53.5654 11.6408 53.8002 11.4382 54.1064 11.2955C54.4172 11.1528 54.7809 11.0814 55.1975 11.0814C55.8443 11.0814 56.3554 11.2403 56.7352 11.5556C57.115 11.8664 57.3337 12.2646 57.3958 12.748H56.482C56.4313 12.4879 56.2978 12.2577 56.0814 12.0574C55.8651 11.8595 55.5681 11.7582 55.1952 11.7582C54.8545 11.7582 54.5806 11.848 54.3757 12.0275C54.1708 12.2025 54.0673 12.4511 54.0673 12.7733C54.0673 13.0289 54.1317 13.236 54.2629 13.3972C54.3987 13.5514 54.5668 13.6757 54.767 13.7701C54.965 13.8575 55.2389 13.9565 55.5865 14.0693C56.0101 14.2051 56.3485 14.3363 56.6017 14.4606C56.8618 14.5849 57.0828 14.7737 57.2623 15.0292C57.4419 15.2778 57.5316 15.6093 57.5316 16.0259L57.5339 16.0328Z" fill="#ACACAB"/>
</svg>
